<?xml version="1.0" encoding="UTF-8"?><svg id="wrong" xmlns="http://www.w3.org/2000/svg" viewBox="0 0 612 841.89"><path d="M411.99,74.2c-2.23,2.77,5.54,3.65,7.49,4.56,66.13,30.92,84.56,73.8,84.05,147.56-.02,3.1-1.56,6-1.3,8.96.42,4.76,9.6,20.47,11.62,28.48,8.16,32.3,2.79,71.35-13.89,99.79,21.34,45.44,19.37,100.18-2.55,144.94-6.25,12.76-9.89,21.8-15.43,34.84-18.82,44.28-53.25,80.76-96.32,99.4,6.67,17.14,4.28,20.36,23.19,22.85,21.59,2.84,45.58,1.72,63.69,17.22,19.66,16.82,17.31,48.41-14.18,35.02,3.41,24.36-22.43,17.69-36.34,12.38-23.16-8.83-38.14-19.62-64.59-21.51-13.85-.99-56.27,4.51-47.27-23.16,3.72-11.44,29.16-15.76,39.13-12.11-4.17-21.41-15.45-13.73-29.46-13.06-18.96.9-36.95-1.42-54.97-7.57-2.3,4.84-17.63,11.78-18.99,14.09-.44.75-1.56,14.93-1.27,15.66,2.57,6.5,28.2,12.39,35.36,15.46,13.36,5.74,32.6,18.97,38.24,33.28,3.61,9.16,2.6,19.14-8.35,20.5-11.55,1.44-22.02-4.39-32-9.15,5.26,11.43-5.72,21.74-16.56,20.59-22.76-2.41-41.02-33.22-59.86-43.49-13.76-1.72-31.9,4.4-44.75-1.7-15.15-7.19-5.97-22.86,4.18-30.04,9.39-6.64,18.87-8.18,29.93-8.11,3.39.02,7.95,3.19,9.98-1.25,1.01-2.2,1.23-11.27.04-13.09-.47-.71-13.59-8.37-14.39-8.59-.74-.21-8.87,5.86-11.08,6.95-8.14,4.01-19.42,7.97-28.43,8.28-4.37.15-8.73-1.54-12.23-1.14-8.87,1.02-19.69,9.55-32.87,10.26-14.17.76-25.19-.31-19.49-18.32-8.71,6.67-27.65,5.27-27.67-8.48-.01-11.24,14.97-37.09,14.8-39.2-.04-.55-5.04-5.79-6.2-8.83-1.45-3.8-2.02-9.15-2.29-13.28-1.85-28.03,3.97-55.79,7.64-83.35-7.48-4.21-10.72-13.14-12.28-21.49-10.37-55.59,26.11-159.9,62.96-201.4,13-14.63,17.99-12.18,23.61-34.16,7.7-30.11,9.09-57.04,22.33-86.41,36.06-79.96,131.77-128.25,214.78-122.24,13.6.98,51.38,7.14,34.99,28.65-.91,1.19-2.86,1.22-3,1.4Z" fill="#10150f"/><path d="M394.43,57.2c2.63.56,10.8,3.04,12.54,4.59,1.76,1.56.45,3.11-.68,4.5-4.67,5.7-16.55,4.84-22.25,8.16-1.62.95-2.56,1.42-2.14,3.63,51.22,8.74,101.22,48.55,109.04,104.45-25.75-2.86-57.27-8.29-69.57-35.24-7.64,20.05,18.39,32.42,33.21,37.22,16.36,5.29,35.82,1.26,38.87,24.13l-21.79,2.31c-9.41-9.07-20.6-21.23-34.09-23.08-34.79-4.77-45.45,37.82-59.68,61.65-13.43,22.5-30.04,39.44-35.76,67.2-9.25,44.93,39.46,54.04,71.07,41.39,8.38-3.35,32.29-22.27,34.78-22.66,7.38-1.16,7.07,13.29,7.91,14.14,3.89,3.9,13.01-4.76,15.63-7.76,14.22-16.25,20.42-45.74,20.77-67.25.14-8.33-5.45-16.48,4.28-22.82,11.44,18.48,12.37,44.49,9.2,65.7-3.93,26.26-17.04,45.05-33.08,64.72-.45,2.21,2.41,5.61,3.2,7.95l3.75,16.67c-2.73,5.49-9.85-5.13-10.63-8.35-3.19,5.31-6.14,6.29-11.88,5.67-5.31,6.51-12.4,9.17-17.05.11-2.13,2.01-4.12,1.57-6.51.83-5.14,9.3-11.54,14.35-19.2,15.15-9.82,4.75-20.01,7.8-30.56,9.15-14.64-1.93-28.68-5.91-42.12-11.94-6.45,4.74-19.78,5.08-26.91.84-8.12-7.26-17.49-13.93-27.41-18.09-2.01-4.41-6.23-4.82-12.67-1.25l-3-1.68c-2.13,2.71-5.35,4.03-8.68,3.27.36,9.28.35,59.44-7.42,61.91-1.08.34-2.12-.68-2.81-1.79,5.37-24.14,6.28-59.36-1.21-82.95-6.69-21.08-22.18-46.83-43.91-52.83l-4-.03c-12.61-10.06-28.88-13.53-44.45-11.39-4.32.59-10.61,4.24-4.29,3.68,27.66-2.47,41.95,2.17,60.9,25.83,21.84,27.27,32.02,58.09,30.7,92.89-.59,9.88-3.17,19.12-5.01,28.72-4.47,2.62-4.01-3.69-2.8-7.44-9.81,6.3-18.11,13.54-26.25,22.12-1.53,1.46-3.13,1.12-4.8-.32.77,4.11-5.81,4.59-7.52,1.31-13.32-.02-15.06-16.15-15.97-27.34-1.4,2.09-2.7,3.96-4.52,5.73-3.71,3.61-13.06,12.54-17.11,8.55-.13,2.73-.51,3.32-2.51,1.31-1.64,4.43-10.49,3.67-13.79,1.31-1.76,1.73-2.41,1-1.25-1.31-5.86-5.89-9.29-14.48-6.27-23.07l.81-20.92c-20.92,23.88-47.62,2.76-34.95-25.35l-1.57-2.26c.75-2.49,4.89-33.46,3.05-32.08-5.4,6.99-10.33,14.16-14.78,21.53-4.26,1.17-6.99,5.3-8.19,12.38.02,4.69-2.62,12.49-7.05,7.1,2.76-13.8,5.92-29.36,12.73-41.74,9.74-24.81,26.57-50.16,45.47-70.34,1.92-5.15,4.66-10,8.23-14.56,2.63-3.21,7.91-15.75,8.77-15.67,4.2-20.28,8.62-41.03,13.26-62.26,1.98-1.97,2.9-4.83,2.75-8.59,4.85-3.79,7.37-9.32,7.56-16.58,3.46-1.23,4.05-1.83,6.19-4.71,16.03-29.32,30.1-49.3,58.54-68.63,35.28-23.99,73.3-38.5,115.2-43.2l.55-2.67c12.85-1.48,25.89-1.37,39.13.35Z" fill="#ee7323"/><path d="M252.79,460.62c2.77.71,4.43-5.95,4.72-7.49,2.96-16.04,3.59-39.51,2.88-55.91-.12-2.66-1.2-4.58-1.32-7.1,3.19.39,2.78,7.66,4.51,7.92,5.33.82,6.95-4.09,7.4-4.06,1.94.16,2.9,2.28,3.97,2.47,1.51.27,2.86-2.17,4.83-2.4.41-.05,7.87.3,8.19.56,1.22,1.01.63,3.83,1.95,4.77,1.44,1.02,4.67.74,6.65,1.92,3.98,2.38,10.17,7.91,14.2,10.1,1.01.55,3.12-.45,3.27-.25.4.53.12,2.62.83,3.66,3.2,4.71,17.32,3.92,22.28,2.68.98-.24.8-2.32,1.72-2.56,5.52-1.42,9.62,4.22,15.45,2.6l-1.27,2.59c8.23.32,20.7,6.36,28.25,6.61,10.81.36,22.01-4.97,31.67-8.83,2.17-.87,4.98-.16,7.52-1.33,4.54-2.09,8.4-13.11,12.64-14.06,1.5-.34,3.23.92,4.35.7,1.03-.2.68-2.68,1.44-2.7,3.44-.12,4.01,5.55,6.52,6.4,6.21,2.1,7.17-3.09,10.06-4.87,2.65-1.63,5.61.29,7.79-.81,1.89-.95,4.89-8.05,7.4-5.65.54.52,1.06,3.35,2.17,4.87,1.47,2.02,2.84,5.88,5.55,5.31l-2.5-15.66c10.07,29.78,14.57,72.07,8.77,103.14-3.47.12-4.74-2.81-3.82-8.78,4.48-16.85-8.82-11.23-9.53.26,7.44,6.96,7.12,15.94-.94,26.95.06,10.49-5.33,10.66-9.9,2.02-5.52,8.32-19.92,12.27-27.75,4.92-3.82-4.77-6.42-3.3-7.79,4.4-4.79,4.78-9.11,10.14-12.93,16.09-5.86,4.59-11.59,9.28-17.19,14.05,11.76,5,10.05,32.69-4.58,19.82-2.95-8.16-3.93-4.14-1.31,2.13-2.78,10.86-42.09-2.68-29.34-16-2.08-.7-3.86-1.79-5.35-3.28-4.85,14.62-23.7,12.87-34.81,7.04-6.11,1.88-8.19-1.64-6.88-7.45-3.33-2.56-3.46-5.79-.27-8.63l-3.22-4.15c-8.79,2.2-9.56-5.67-3.24-10.7-4.09-1.14-6.69-4.31-7.81-9.49l-9.26-3.53c-4.78-5.49-7.35-5.52-12.62-.25.31,4.18-.8,6.94-3.34,8.29-2.16,14.02-16.64,5.72-16.2-5.74-9.79-1.03-14.1-6.41-15.09-16.21l-1.62-2.39c2.85-5.62,4.64-11.35,5.38-17.19,2.69-6.96,5.9-17.51,7.52-24.81Z" fill="#ee7323"/><path d="M241.51,505.01c5.45.99,2.24,3.43,3.99,6.83,4.05,7.86,11.6,5.43,13.33,7.8.65.89-.14,3.02.31,3.93.61,1.23,1.94,1.11,2.02,1.31.32.78-1.01,2.35-.29,3.59,2.01,3.48,9.33,4.34,9.4.71.12-5.8-6.22-.4-8.14-4.57-1.66-3.59,4.02-4.44,3.21-7.84l-3.76-1.3,7.47.04c.68,2.65-.89,9.35,3.19,9.06,2.34-.16.34-4.67,1.76-7.18,2.53-4.46,8.67-4.72,9.84-6.17,1.01-1.24.12-4.54,2.79-4.89-3.13,14.47,11.01,9.45,14.34,15.77.79,1.49.51,3.84,1.36,5.1,1.15,1.69,5.67,1.78,6.87,4.61.59,2.95-10.03,5.55-2.53,9.77,2.23-8.59,3.9.52,6.3,1.97,3.5,2.1,7.96-1.93,7.5,7.17l-4.37-3.91c-7.04,6.1-2.71,4.22-1.21,7.86.51,1.24-1.4,6.63,1.2,6.47,3.13-.19,1.31-7.56,5.03-9.1,5.02.08-1.33,5.73-.65,8.43.35,1.4,15.54,4.94,18.19,4.38,1.51-.32,9.28-3.6,10.62-4.43,3.21-1.98,4.56-16.1,2.53-20.14,7.14-1.6,6.8,7.79,12.51,11.09-1.42,3.7-6.64-.32-7.49.66-3.64,4.17,5.84,3.82,6.25,5.89.22,2.51-3.11,3.4-3.62,5.46-2.02,8.05,21.75,16.81,27.43,11.51l-5-9.8c2.62-.78,5.91,1.66,8.01,1.39.95-.12.3-3.66,2.62-2.69,4.4,1.83-.92,5.54-.61,7.1.34,1.73,5.61,3.84,7.52,3.33-1.21-3.54,1.34-8.45,1.25-10.97-.02-.65-1.7-.79-2.36-1.85-.73-1.18-.61-2.84-1.94-4.22-2.6-2.7-8.75-2.34-8.22-6.46,7.47,2.23,7.36-2.74,10.09-4.55,8.62-5.71,8.36-3.98,15.77-13.62,3.81-4.95,1.43-3.71,2.33-5.38.73-1.35,5.09-2.73,6.75-5.99,1.19-2.34,1.25-6.68,1.5-6.93.27-.26,6.93-1.36,7.26-1.18.25.14.48,2.15,1.51,2.89s7.24,4.49,7.82,4.49c1.72-.01,14.03-3.66,15.09-4.86,3.63-4.13.05-13.22,8.64.23,3.83,6,2.49-2.75,2.64-3.36,1.16-4.75,3.52-7.41,4.95-10.37,5.97-12.36-2.86-12.02-3.81-17.45-.11-.65.92-7.8,1.18-8.1.48-.55,2.59-.25,3.37-.98,2.48-2.31,1.97-5.64,6.76-4.26,1.2.35,2.86,2.89,3.4,2.39.46-.42-1.03-3.12,1.25-2.61,1.05,7.24-3.72,15.42.01,22.19-.12.64.19,1.39-.01,1.94-.25.63-.64.75-1.24.67-1.63,4.41-2.47,9.19-2.51,14.36-10.18,40.41-28.9,74.71-61.53,99.76-40.41,31.03-97.19,48.43-146.54,33.39,5.78-11.27,10.45-21.48,11.33-34.53l-1.29-11.14c-2.79,25.64-24.81,56.39-50.1,60.76-32.15,5.56-51.67-14.02-53.96-46.4-3.58-.62-2.08.79-2.67,3.02-1.08,4.08-.63,7.03-1.09,10.7-.19,1.49.53,2.65-1.84,1.92-4.23-1.31-17.15-11.1-19.58-14.98-2.62-4.19,2.41-4.34,2.63-4.58,1.81,4,4.16,3.49,7.05-1.54,4.48-8.43,10.13-16.37,18.23-21.29,21.62-23.87,42.85-49.73,56.9-79.31l3.06-1Z" fill="#ee7323"/><path d="M460.87,339.2c-3.88-28.2-29.83-41.08-55.66-37.72-17.18,2.23-48.37,16.5-50.88,36.42,8.93-.58,15.11-8.66,22.66-13.59,20.22-13.21,51.41-24,66.4,2.52-.01,2.94-19.1,16.19-22.61,18.28-16.77,10-33.84,15.04-52.95,8.1-17.72-6.43-21.88-21.7-17.66-39.88,5.15-22.19,23.99-44.13,35.29-62.47,16.87-27.39,29.27-78.86,70.99-42.18,30.14,26.5,34.46,84.43,15.1,118.79-.75,1.34-8.53,14.42-10.67,11.72Z" fill="#453b29"/><path d="M162.54,467.15c1.83.21,2.96,1.61,3.41,4.2l9.54,2.6c-.95-12.42,15.33-1.96,17.29,5.55,2.68-.81,5.14-.57,7.37.7,2.5-.6,6.11-.86,7.52-1.31l3.44,1.39c9.84-4.2,19.79-.79,13.46,11.3,7.3.29-.59,15.36-4.66,8.69l-1.92-.3c1.23,6.44,2.1,11.73-5.62,13.54l1.98,1.95c-2.13,5.16-5.19,9.94-9.18,14.35-.32.35-.39,2.6-1.76,3.98-9.21,9.32-41.74,35.29-36.5,3.81,6.88-13.19,13.76-26.66,19.46-40.43,1.75-.98,4.93-7.87,2.51-7.83-.32.22-1.71-.49-2.31.18-.4.45-.94,4.55-2.01,6.42-9.88,17.3-34.77,58.44-55.4,59.9-3.44.24-9.04-.59-10.23-4.73-4.36-15.18,14.9-60.31,18.56-78.73,3.41-5.38,5.92-6.69,7.52-3.92l1.25,1.31c1.8,1.07,2.16,3,1.09,5.79l6.28.78c3.82,3.76,5.8-4.32,6.42-7.87.28-.06,1.51-.96,2.51-1.31Z" fill="#e35926"/><path d="M160.42,556.83c.91.86,6.76,3.76,8.04,4.03,8.27,1.77,13.38-1.44,20.4-4.91-13.8,18.71-28.58,39.16-50.13,48.29-1.22-1.33,15.95-28.63,17.76-31.75.76-1.32,3.27-4.8,1.66-6.11-18.27,26.23-36.1,56.21-61.64,75.49-5,3.78-26.23,17.78-31.22,10.71-4.75-6.73,25.28-53.43,29.78-61.82,5.95-11.09,10.45-24.64,17.31-35.51l7.62,7.74c11.32,6.26,29.2-6.13,36.89-14.9,1.08,2.86,1.11,6.44,3.51,8.72Z" fill="#4b4c1f"/><path d="M360.59,682.57c.18-7.87-2.11-17.54-6.41-24.02-1.27-1.92-3.7-1.38-3.61-3.39,5.44,1.25,19.72-8.03,22.95-7.57,6.67.96,6.88,12.57,10.34,17.91,8.8,13.57,25.4,9.96,38.76,11.85,16.15,2.29,40.1,5.92,49.08,22,5.45,9.75,4.62,12.03-6.45,10.63-9.94-1.25-9.94-5.73-16.5-10.22-5.86-4.02-22.13-13.28-28.61-13.28h-20.68c-.57,3.02.29,2.09,1.6,2.94,14.61,9.48,34.84,6.23,45.32,25.86,3.62,6.77,5.64,10.69-3.69,10.44-15.08-.39-43.99-18.82-61.75-23.23-16.97-4.21-33.19-2.36-49.8-4.27-7.14-.82-18.79-6.3-8.05-12.31.81-.45,10.01-3.36,10.56-3.36h26.95Z" fill="#744d28"/><path d="M233.98,669.52c-.28,15.11-2.27,21.84,12.21,28.41,20.53,9.31,46.94,11.49,61.03,33.04,10.77,16.47-9.01,10.19-17.31,6.28-17.27-8.16-31.82-31.36-53.42-32.47-1.4,1.26,4.55,6.82,5.6,7.86,7.98,7.97,31.06,20.92,27.44,34.93-3.05,11.79-18.31,1.14-24.16-3.09-11.27-8.15-30.53-32.27-41.44-35.17-9.2-2.45-36.62,3.98-42.13-.49-7.23-5.87,6.91-13.74,11.67-15.5,10.93-4.04,18.23-.02,28.48-1.67,9.42-1.52,9.71-14.34,9.48-22.11,7.74,2.1,14.81,1.34,22.55,0Z" fill="#795029"/><path d="M76.05,405.79c5.46-.19,3.72-5.17,4.64-7.82.73-2.1,4.86-13.9,5.48-14.31.38-.25,3.13,1.78,3.65,1.26.16-.17.05-2.8,1.22-4.59,2.8-4.29,7.4-8.5,10.65-12.47,1.81-2.2,1.41-5.92,5.59-6.41,4.55,6.5,1,11,.24,17.74-.42,3.74,0,7.43-.44,11.29-.25,2.16-2.15,4.77-2.22,5.58-.05.56,2.57.59,2.58,1.27.04,2.22-3.5,11.76-3.82,14.47-.53,4.56,2.09,13.39,5.6,16.24.73.59,9.46,5.06,10.02,5.09,2.14.12,12.53-4.92,14.78-6.41,1.32-.88,5.16-8.31,7.85-3.95.59.96-.6,19.43-.66,22.84-.04,2.53-1.43,5.07-1.33,7.83.17,5.16,5.71,9.22,5.1,15.03-3.56-.53-2.87,5.24-7.52,3.92.23-1.18,1.26-3.53,1.25-3.92-1.5-.52-2.75-1.42-3.75-2.71-7.55-.87-12.48-4.07-10.47-12.93-3.87,1.33-7.25,1.79-9.28-2.57-3.23,6.57-7.41,4.15-7.27-2.62-6.65,2.73-9.03.12-7.13-7.85l.3-2.66.02-10.43-29.47,71.77c-9.36-17.76-5.61-40.71-3.13-60.03,2.35-9.91,4.86-19.92,7.52-30.03-.55-1.02-.94-1.87,0-2.61Z" fill="#e55c25"/><path d="M101.12,437.12c4.72,1.91.48,5.44,1.26,9.13.32.39,7.6-2.46,8.76-1.29.27.27-1.17,6.18.02,7.82l2.5-6.52c3.39-.98,3.59,4.5,5.74,5.01,1.56.37,7.08-3.11,7.69.82.4,2.6-2.44,4.96,1.6,9.3,1.96,2.1,9.81-.69,10.03,7.06-3.27-.71-2.54,1.68-3.4,3.58-5.95,13.24-26.16,54.4-39.16,58.49-16.23,5.1-12.34-22.58-11.18-32.53,2.28-19.44,7.72-43.95,16.13-60.88Z" fill="#e55c25"/><path d="M394.43,57.2h-37.6s2.51,3.9,2.51,3.9c-16.08,4.13-34.12,5.05-49.89,10.06-32.99,10.49-80.96,36.28-102.99,64.05-6.5,8.19-21.73,37.31-26.29,41.23-1.61,1.38-3.65.72-3.8.89-.56.6,1.82,10.39-5.14,14.95-1.48.97-5.4.13-3.65,3.32.17.31,3.17-3.26,2.47.62-3.11,3.32.44,4.29-5.04,5.42l-12.51,63.15c-.53-.2-1.03-1.3-1.23-1.32,8.22-56.05,19.5-102.8,58.21-144.38,41.08-44.14,126.88-74.26,184.96-61.9Z" fill="#ee7323"/><path d="M111.14,533.74c.08,3.98.24,7.87-.55,11.82-1.75,8.74-26.54,49.14-33,57.02-.91,1.11-1.38,3.45-3.4,2.96-5.33-6.43-4.51-16.15-4.44-24.23.16-17.9,4.01-37.64,6.32-55.4l6.21,9.82c10.27,8.91,18.84,2.88,28.86-1.99Z" fill="#4b4c1f"/><path d="M161.28,632.99c.5,1.9-.49,2.17-1.22,3.27-10.54,15.91-34.3,30.65-52.42,34.19-3.27.64-12.53,3.32-14.03-.29l9.37-13.71c13.1-12.46,24.28-27.41,38.26-38.53l20.03,15.07Z" fill="#3a3d19"/><path d="M207.66,324.84c30.95,27.9,41.33,69.65,38.86,110.97-3.58-9.86.71-30.02-4.99-38.17-4.54-6.49-1.63-3.06-3.67-9.48-7.09-22.39-29.77-58.7-51.7-66.37-2.62-.92-18.85-3.42-21.81-3.52-5.26-.18-11.41,3.82-15.56-.6,2.25-6.05,7.55-6.64,13.15-7.17,16.48-1.56,33.2,3.04,45.73,14.34Z" fill="#f49020"/><path d="M495.94,489.34c-2.14.34-1.34-3.11-1.23-4.54,2.35-29.66,1.82-55.53-5.38-84.52-.76-3.07-5.63-15.21-5.56-16.06.05-.63,7.22-9.63,7.82-9.77,3.07-.7,6.59,12.74,7.5,15.67,10.33,33.37,8.66,66.52-3.14,99.21Z" fill="#ec7123"/><path d="M241.51,505.01c-7.56,21.64-41.62,65.2-58.29,82.25-2.38,2.43-6.38,3.68-8.83,6.47-3.56,4.05-7.07,11.51-9.28,14.78-3.3,4.89-11.04,10.26-8.84-.35,29.31-32.51,73.11-81.66,88.99-122.72,1.81,2.34.96,3.72.3,6.1-1.12,4.03-2.72,9.65-4.06,13.48Z" fill="#c95c27"/><path d="M241.51,464.54c-3.22,18.93-23.71,51.34-36.35,65.28l-.6-5.23c3.3,2.82,9.54-4.88,7.94-7.66-.31-.54-6.16-1.52-1.72-5.41,4.01-3.52,6.67,2.58,5.2-8.21-.3-2.21-4.78-4.85.84-5.79,3.22-.54,5.41.36,6.51,3.58,1.42-.56,4.4-6.47,2.52-7.82-1.87,3.61-5.7,2.6-6.89-.68s3.84-1.01,4.88-4.05c1.13-3.3-.59-7.95-4.27-7.86-2.07.05-11.1,5.95-11.9-1.78,5.51-1.74,11.58-10.73,16.44-14.86,2.62-2.23,9.95-5.79,12.08-7.66,1.68-1.48.08-5,.94-7.38.94-2.62,5.06-7.32,6.27-10.56,1.4,7.5-1.64,15.56-3.07,23.08-.32,1.68,1.21,2.87,1.18,3.03Z" fill="#e55c25"/><path d="M142.49,279.15l-6.21,16.05c-15.68,16.41-32.12,40.88-42.47,61.85-1.37,2.78-1.59,7.26-2.6,8.8-.83,1.26-3.16.29-3.99,1.55-2.9,4.43-9.53,31.47-11.17,38.39-.18.76.18,1.84,0,2.61-.9,1.33-1.32.9-1.25-1.31,9.03-38.86,23.74-81.61,50.18-111.59,5.09-5.78,12.83-10.63,17.51-16.36Z" fill="#f39220"/><path d="M494.71,217.78c1.54,1.57-2.04,25.89-3.65,29.5-.47,1.04-.66,4.3-2.62,1.85-.48-.6-2.56-11.89-3.74-15.05-.83-2.22-6.99-14.35-6.29-14.98l16.29-1.32Z" fill="#f4d68b"/><path d="M76.05,408.4c-1.83,8.08-3.2,16.14-4.96,24.21-.47,2.17-.37,4.51-2.56,5.82,1.52-11.87,3.64-20.05,6.27-31.33l1.25,1.31Z" fill="#ee7323"/><path d="M188.86,489.35c1.86-1.24,3.03-3.43,6.26-2.6,1.39,8.49-3.88,5.19-6.23,6.59-.09.06.7,1.44.49,1.86-.41.82-2.07,4.81-3.03,1.99.98-2.38,1.7-5.34,2.51-7.83Z" fill="#e55c25"/><path d="M483.42,495.88c.08,4.87-1.34,9.74-2.51,14.36-3.17-4.31,2.12-10.58,1.28-15.68.59.16,1.03,1.3,1.23,1.32Z" fill="#f5901f"/><path d="M375.61,144.68c.27.27,2.41,6.5,2.5,7.3,2.26,19.82-38.18,32.36-52.39,35.37-15.91,3.37-32.12,3.22-48.28,4.54-3.76,1.02-10.43,22.13-7.71,22l97.13-6.55-4.4-16.96c21.19,21.51,4.58,68.55-19.83,81.17-49.99,25.85-100.65-30.06-69.78-79.19l-16.3-8.5c18.07-2.5,36.36-.35,54.5-2.64,16.18-2.05,53.31-11.7,60.62-28.25.88-2,1.34-10.85,3.94-8.28Z" fill="#11150f"/><path d="M162.54,467.15c5.72-1.99,12.9-7.71,17.12-12.19,2.15-2.29,2.76-7.69,6.69-7.38.47,7.99.97,16.4,4.14,23.77,2.65,6.16,5.44,3.91,9.65,8.86-2.04.49-7.68,2.7-8.1,2.6-1.65-.38-1.76-4.06-2.6-5.3s-2.7.13-2.91-.15c-.54-.73,0-3-1.42-4.33s-5.4-1.14-6.92-3.26c-3.76,3.3,5.53,5.72,3.14,7.82-.68.6-16.61-3.57-17.25-4.22-1.26-1.28-1.38-4.39-1.55-6.22Z" fill="#e55c25"/><path d="M160.03,468.46c4.87,5.97-1.64,7.33-2.5,13.05,4.4,1.98,5.13-2.52,5.65-2.61,2.49-.43,2.49,1.79,1.86,3.26-.82,1.9-8.41,2.89-10.73,3.21-4.28.6.32-5.62-.54-6.45-7.97-.7-10.79-.13-7.52-9.15,3.6-2.12,9.59-.35,13.79-1.31Z" fill="#e55c25"/><path d="M291.02,523.32c2.58-.18,3.03,10.13-1.24,9.11-5.45-1.3.23-9.04,1.24-9.11Z" fill="#ee7323"/><path d="M277.77,525.98c.22.14,1.7,4.73,1.33,5.14l-6.26-1.32c.59-2.42,2.19-5.64,4.93-3.82Z" fill="#ee7323"/><path d="M473.4,279.15l-14.52-37.75c-2.65-3.32-5.77-9.11-8.68-11.85-4.43-4.18-20.99-9.59-15.11-18.37,4.67-6.97,21.66,8.74,25.15,13.12,5.03,6.3,13.15,25.51,13.15,33.31v21.54Z" fill="#836239"/><path d="M289.77,220.4c.53-.06,1.72-1.8,3.13-1.3,1.36,21.45,12.23,36.85,34.51,33.97,10.26-1.33,20.55-13.25,22.61-23.45.66-3.27-.12-11.22,1.73-12.56,2.44-1.77,11.63.09,15.13-.57-1.15,33.27-21.75,56.06-54.58,53.59-21.54-1.62-38.71-16.73-42.87-38.9-.36-1.9-1.92-10.77.31-10.77,6.21,0,14.17.71,20.06,0Z" fill="#f8d185"/><path d="M237.33,478.18c3.07-8.77,4.55-15.52,5.08-18.12,1.96-9.45,2.61-17.68,2.78-23.91-2.8,3.69-5.3,6.98-7.43,9.78-15.01,19.69-17.92,23.16-23.28,25.87-3.15,1.59-12.23,6.18-18.19,2.24-8.95-5.91-4.21-26.61-9.59-27.91-1.41-.34-2.4.91-6.26,4.48-8.99,8.32-14.42,13.33-20.15,14.46-4.66.92-12.09-.22-15.65-5.09-6.5-8.9.17-29.84-2.87-39.63-.33-1.05-.86-2.29-1.83-2.54-2.01-.53-3.93,3.69-6.85,6.52-4.89,4.74-13.78,6.75-19.17,3.67-6.81-3.89-6.97-15.28-7.04-20.37-.17-11.86,4.46-15.78,5.09-27.5.47-8.69-1.57-15.9-3.33-20.57-2.51-8.46-7.47-13.69-11.75-13.27-.87.09-2.13.44-3.57,1.76-2.03,4.92-4.65,11.6-7.42,19.63-1.52,4.41-6.4,18.83-11.48,41.02-6.71,29.34-7.17,43.42-5.29,43.94.28.08.54-.17.98,0,1.6.61,1.49,5.19.98,9.78.93.47,2.45,1.09,4.3,1.02,8.89-.34,15.85-16.2,16.24-17.11,1.62-3.78,2.84-8.15,7.04-11.81,2.61-2.28,3.67-1.93,3.91-1.83,2.44.98,1.69,8.67,1.25,13.34-3.27,34.17-2.69,36.69-1.05,38,4.92,3.94,19.03-3.34,27-10.39,4.04-3.58,8.4-8.78,9.98-7.74.8.52.56,2.44.2,4.07.87,3.95,2.08,9.94,3.13,17.31,2.34,16.45,1.1,20.18,3.91,22,7.25,4.68,29.01-11.31,37.95-18.94,1.98-1.69,4.88-4.29,6.06-3.46,2.16,1.51-2.87,13.34-7.04,23.02-8.48,19.69-13.74,26.54-10.96,30.76,2.47,3.74,9.55,2.79,12.13,2.44,15.83-2.13,26.03-16.96,34.82-29.74,10.09-14.67,14.85-27.96,17.37-35.17Z" fill="#e35926"/></svg>