<?xml version="1.0" encoding="UTF-8"?><svg id="Layer_1_copy_5" xmlns="http://www.w3.org/2000/svg" viewBox="0 0 612 777.94"><path d="M310.12,78.94c31.77,7.67,76.68,29.63,88.56,63.74,4.43,12.72,2.32,24.53,4.9,34.59.74,2.89,7.45,8.95,9.44,12.37,21.28,36.71,23.31,85.79,1.54,122.68,39.58-25.79,62.9-79.72,60.62-127.75-.53-11.25-9.34-38.4,4.81-44.08s32.15,19.79,37.74,31.38c11.61,24.09,13.53,52.28,9.15,78.61,24.4-32.77,39.49-17.27,37.08,19.3-1.57,23.86-11.19,48.99-23.63,68.8.34,2.44,33.12-16.53,20.54,27.18-7.22,25.09-28.68,47.6-49.73,60.96,18.7,10.72,3.83,29.69-7.28,39.69-16.75,15.09-40.22,22.85-62.36,22.14-.43,44.39-19.58,86.26-50.52,116.14-4.6,4.45-16.73,11.8-19.64,15.77-4.18,5.71-5.19,18.52-11.81,23.91,23.95,3.3,53.41,2.1,72.45,20.39,17.05,16.37,7.76,38.84-15.17,29.2.25,34.59-54.32,3.44-71.87-1.76-11.02-3.27-42.54-7.5-49.38-11.7-10.18-6.25-6.13-20.42,3.26-25.69,7.02-3.94,16.29-1.87,19.15-11.01-21.83,5.29-43.22,5.62-65.36,1.97-4.22-.7-16.24-5.58-18.36-5.41-1.03.08-10.17,6.9-13.23,8.3-11.1,5.1-13.87-1.21-15.35,16.13,10.15-1.08,21.23,3.43,20.13,15.63-1.42,15.65-24.62,18.9-35.1,26.6-7.08,5.19-12.82,14.55-20.6,19.44-15.22,9.58-35.57,8.31-30.7-14.97-8.8,4.24-33.02,17.12-39.16,3.93-6.75-14.49,11.18-32.26,22.68-38,7.48-3.73,35.1-9.44,37.53-11.77s5.58-17.73,4.89-21.31c-.3-1.54-18.7-16.2-22.52-21.02-6.9-8.71-11.38-18.62-16.32-28.53-5.1,5.13-25.12,12.81-30.89,9.91-1.58-.79-3.02-5.23-3.93-5.24-1.01,0-5.98,9.95-16.81,10.53-31.7,1.7-14.97-43.82-9.59-60.17.8-2.43,4.5-8.82,4.46-9.33-.05-.64-6-3.45-7.32-9.84-10.23-49.73,15.79-156.43,55.64-189.72,3.34-2.79,16.58-9.73,16.89-10.71,1.18-3.79-4.08-25.1-6.75-26.73-2.2-1.34-11.01,7.75-21.88-1.69-15.93-13.83,6.77-44.9,5.01-46.64-32.79,11-45.94-11.79-20.21-36.78,6.26-6.08,29.1-18.6,31.5-22.12,3.4-4.98,9.73-30.18,15.09-40.33,24.3-46.04,108.15-105.11,158.4-108.48,28.86-1.94,39.06,13.48,14.02,31.5Z" fill="#062220"/><path d="M131.54,235.3c.13-2.54,2.23-7.96.01-9.33-4.84,22.16-68.45,33.11-34.23.03,6.4-6.18,32.15-20.94,34.27-23.91,1.96-2.75,7.04-23.81,9.51-29.8,20.8-50.4,107.96-116.3,160.57-115.67,14.02.17,14.85,4.23,4.3,12.75-9.04,7.29-21.72,9.05-30.69,16.53,32.6,1.51,67.17,9.3,92.61,31.57,11.28,9.87,24.16,24.53,24.17,40.8-28.51-34.17-76.82-39.56-101.27,2.7-9.76,16.86-10.3,33.38-17.22,49.79-9.97,23.65-19.94,11.47-36.48,19.27-15.45,7.28-23.06,31.98-11.8,46.13,3.43,4.31,9.11,5.47,9.43,5.95.57.83,2.4,15.69,3.78,20,3.88,12.11,9.78,23.05,16.57,33.55-.43.55-.75,1.02-.64,1.19,19.54,30.13,50.53,59.13,88.08,48.47,14.8-4.2,18.58-11.67,24.23-24.76.27-.62,1.41-2.75,1.54-2.84.63-.43-.06,3.58-2.03,1.28,12.23-22.69,6.77-52.09,10.05-77.42,27.48-12.57,36.18-49.23,32.64-77.79,22.68,44.07,7.83,95.06-16.86,134.19,3.36,1.39,8.98-5.55,11.26-4.15,1.43.88,16.62,25.43,18.35,28.82,4.71,9.24,17.03,40.16,10.25,48.86-1.46,1.88-1.57.66-2.79-.61-1.45-1.52-18.19-29.66-20.22-27.4,6.16,18.17,10.22,43.06.41,60.55-13.38,23.86-18.66-10.46-24-19.69,1.86,51.08-21.72,71.9-60.67,33.26-10.93-10.84-17.72-24.17-26.39-36.76,1.2,14.92,22.91,43.04-8.06,30.54-20.49-8.27-38.64-30.92-46.97-51.55.32,10.2,4.84,23.39,10.68,31.5l3.2,6.56c5.44,44.94-12.8,85.01-31.48,123.38-6.44,15.79-11.59,35.05-.65,49.94-.53,1.1-.65,2.21-.26,3.35.97.21.92.61,0,1.17,2.83,7.02-12.8,5.21-17.87,4.55-30.06-3.93-41.88-30.67-34.5-59.31,4.43-11.21,9.93-22.11,15.38-32.85.05-.1.07,1.87-1.19.08,21.88-39.1,34.03-85.5,25.27-130.71-6.63-34.21-29.86-68.87-66.83-68.84-2.06-15.86-8.48-29.32-11.22-45.52l-2.87-3.7c-2.09-14.74-3.5-29.66.62-44.15Z" fill="#12914a"/><path d="M413.43,558.57c-1.9-1.94-1.7-5.11.6-9.49-42.87,55.05-119.26,81.98-184.43,64.36-1.71-.19-3.32.19-4.84,1.15-23.81-28.3,9.69-71.11,19.93-101.25,9.05-26.63,14.03-53.78,9.27-81.98,5.71,7.94,25.43,24.5,34.4,27.85,7.94,2.96,21.7,6.37,23.43-5.67,20.31,29.82,66.89,55.7,78.06,3.5,22.46,12.79,31.31-17.98,34.79-35.01,9.82,46.83,11.66,93.51-11.21,136.53Z" fill="#f0c01d"/><path d="M497.66,306.49c2.64,2.47,11.26-9.69,12.81-11.77,6.45-8.67,28.66-52.09,37.38-52.21,13.29-.18,4.05,43.97,1.77,52.04-10.22,36.06-31.29,59.72-59.83,81.39,24.69-1.9,39.85-28.27,64.03-29.77.6,40.36-42.15,76.26-75.49,89.03-.97.37-22.5,5.63-16.06,6.65,4.32-1.83,8.67.38,13.53.07,6.79-.44,35.75-11.18,34.92-1.18-1.9,22.87-50.12,40.82-69.21,38.47,3.46-10.84-9.27-51.16-7.64-57.66.33-1.32,5.33-3.5,7.08-7.69,5.48-13.17-3.89-40.35-9.67-52.95-6.01-13.09-15.14-21.9-21.2-34.55,44.8-21.43,74.1-81.33,75.3-131.25.28-11.73-4.02-29.69-2.35-39.8,2.63-15.89,21.36,12.77,23.82,17.37,22.58,42.15,11.34,93.34-9.17,133.81Z" fill="#036854"/><path d="M195.56,482.71c-14.74,31.97-38.23,16.58-30.32-14,.06-5.19,1.42-9.98,1.11-15.16-2.36,3.8-4.04,8.59-5.6,12.83-18.95,45.28-58.27,18.57-44.92-22.17,1.07-3.8,1.83-8.84,2.23-12.83-2.22,2.55-4.27,7.29-5.6,10.5-13.77,28.53-38.17,14.79-29.2-12.84,4.66-47.47,55.38-129.42,102-69.24,26.15,33.75,21.68,84.2,10.3,122.92Z" fill="#12914a"/><path d="M376.39,271.48c-4.69-13.76-16.48-33.82-32.04-35.03-23.83-1.85-40.46,23.79-69.51,19.75-5.37-.75-11.94-5.08-17.28-5.48-11.8-.88-20.92,10.41-21.58,21.92-13.37-7.19-8.28-27.07,2.77-33.88,11.98-7.38,26.1-1.63,36.53-14.55,8.8-10.91,11.62-35.08,17.79-49.2,28.1-64.39,101.37-32.3,106.85,27.07,2.12,23.01-1.98,57.47-23.54,69.41Z" fill="#f5ab10"/><path d="M160.74,466.38c-15.26,41.31-28.04,73.53-56.19,107.91-5.9,7.2-38.02,45.38-39.31,15.17-.93-21.84,42.04-114.99,50.58-145.26-6.13,41.69,21.2,61.84,44.92,22.17Z" fill="#036854"/><path d="M253.95,257.47c6.16,35.72,41.09,89.66,79.36,90.94,4.74.16,19.88-3.57,21.5-8.89,1.67-5.47.48-27.5,1.37-35.93,1.11-10.6,3.06-24.68,5.76-34.87.23-.87.48-5.25,2.09-3.68,2.31,3.68,4.25,7.08,4.56,11.65.75,11.06-1.59,50.76-3.44,61.89-3.57,21.37-23.6,31.11-43.1,29.6-33.13-2.56-69.97-43.25-77.86-75.46-2.78-11.33-5.45-33.35,9.77-35.26Z" fill="#f5ad10"/><path d="M413.43,558.57c-29.78,56.01-92.86,87.73-154.13,77.9-6.7-1.07-20.22-4.9-25.55-9.04-3.07,2.79-11.64-8.51-8.98-11.67-.07-.32-.03-.83,0-1.17.22-2.2.39-3.21,2.8-3.52,4.27-.56,24.79,5,31.73,5.55,43.27,3.42,99.83-16.54,132.27-46.34,10.35-9.51,18.67-21.13,28.05-31.53l-6.18,19.83Z" fill="#d6a60c"/><path d="M262.95,259.82c9.71,1.77,20.9,3.59,30.77,2.22,18.48-2.56,31.79-21.02,52.81-17.32,7.89,1.39,6.59,10.17,6.22,16.83-.51,9.06-9.02,72.01-13.41,74.75s-4.83-12.39-5.72-15.14c-6.05-18.78-18.87-33.23-38.78-35.56-4.6-.54-19.83,2.17-20.75,1.66-2.47-1.37-12.34-26.22-11.15-27.43Z" fill="#4b1e19"/><path d="M186.57,528.23c2.23-1.77,2.96-1.42,2.01,1.5-6.73,20.79-19.4,29.75-15.41,55.02s23.79,35.45,47.76,33.42c2.2-.19,2.82-.21,3.82-2.42.32,1.46,7.63,10.62,8.98,11.67-30.51,33.18-79.22,7.54-94.17-28.76-7.01-17.02.31-12.93,11.08-23.16,13.86-13.18,26.47-30.38,35.93-47.27Z" fill="#08743e"/><path d="M195.56,482.71c-13.87,47.22-47.83,98.1-95.46,112.02,29.02-38.44,52.32-78.51,65.14-126.03-.38,31.05,9.63,41.12,30.32,14Z" fill="#036653"/><path d="M344.92,649.6c-2.24,4.34.23,4.02,4.07,4.52,20.21,2.62,41.64,1.08,61.04,8.92,8.87,3.59,21.84,11.26,20.24,22.74-23.75-.59-41.32-22.9-66.26-21,8.22,3.57,47.91,20.52,43.71,33.1-.44,1.48-1.5,1.58-2.73,1.88-10.76,2.62-47.14-15.16-60.32-18.99-10.29-2.99-20.77-4.49-31.2-6.67-.53-4.14,3.07-3.72,6.32-3.22l10.98,2.39c1.55-7.1,6.46-12.18,14.73-15.24-8.42-1.63-4.83-15.57-.59-8.43Z" fill="#f4ab12"/><path d="M170.85,667.11c3.08-1.28,3.89.88,2.43,6.48,5.98.32,10.7,1.84,15.28,6.05,4.26-.44,6.18,2.28,5.76,8.17,5.08-1.9,8.87-1.8,11.35.31-4.47,2.33-10.95,3.51-15.65,6.49-6.72,4.26-32.3,36.53-40.61,25.72-7.75-10.08,18.93-30,24.82-35.7-10.1,3.53-57.67,29.64-65,25.52-1.77-13.68,15.01-23.46,25.95-27.03,11.79-3.84,30.49-2.37,35.69-16.02Z" fill="#f4ab13"/><path d="M112.45,441.87c-11.27,27.18-20.38,55.93-33.89,82.06-.96,1.86-2.93,7.07-5.4,6.63-5.55-32.89.94-69.9,10.09-101.53-.75,7.67-1.36,22.65,7.54,25.42,12.08,3.76,13.94-6.89,21.66-12.58Z" fill="#036754"/><path d="M255.08,335.67c2.59.78,25.34,25.53,34.91,30.83,31.37,17.38,50.04,14.79,76.28-7.49.92-.78,2.07-1.29,2.81-2.33-.28,17.71-15.6,29.43-31.77,32.34-36.31,6.52-69.04-22.95-85.59-53.94.86-1.83,2.53.34,3.36.59Z" fill="#09703b"/><path d="M329.19,338c-23.18-5.59-40.78-24.34-51.65-45.49,27.68-7.46,53.99,16.28,51.65,45.49Z" fill="#e93d31"/><path d="M344.92,649.6c-.07.1-1.96-1.51-2.23.6-1.01,7.79,5.59,4.18,10.08,5.81-.12,1.15-15.95,9.04-17.68,11.36-1.29,1.72-1.96,7.25-2.69,7.73-3.75,2.44-14.68-4.87-18.93-1-4.33-.91-10.55-.21-13.36-4.29-2.61-8.24,14.07-8.23,18.43-10.86,5.93-3.58,9.14-16.06,12.55-18.77,4.42-3.51,20.53-7.39,26.16-11.59.85.85-10.99,19.03-12.34,21.01Z" fill="#e68e0e"/><path d="M170.85,667.11c2.31-6.07,2.99-12.23,3.37-18.68l24.7,3.52-5.6,25.66c13.29-3.78,37.31-2.5,12.35,10.51l-12.17,2.21c-3.33-2.58-.99-7.74-1.3-8.03-.23-.22-3.25.16-4.55-.54-2.56-1.38-4.03-3.45-6.87-4.54-1.95-.75-10.68-1.48-11.05-1.95-1.08-1.33,4.3-6.18,1.12-8.16Z" fill="#e68f10"/><path d="M133.79,283.15c-3.11-2.32-1.69-.61-2.89,1.04-3.73,5.11-19.79,21.38-20.79,6.56-.77-11.53,18.21-42.7,21.43-55.44-.86,17.27-.67,30.65,2.25,47.85Z" fill="#0a773e"/><path d="M261.8,211.96c-15.84-13.44-26-19.26-46.04-8.77-4.39,2.3-18.54,15.56-19.78,15.66-4.5.37-2.51-12.37-1.9-14.85,2.84-11.62,21.39-23.53,32.33-24.76,17.56-1.97,46.11,10.55,35.4,32.72Z" fill="#062421"/><path d="M267.43,155.93c-25.51-22.58-57.72-16.18-78.6,9.34,5.8-42.92,61.88-51.07,78.6-9.34Z" fill="#052320"/><path d="M344.1,160.3c-3.23-3.64.64-8.5,4.86-8.99,9.81-1.15,23.58,11.04,28.32,19.45,2.44,4.33,7.65,13.3,1.91,16.37-3.39.37-14.58-14.51-18.64-17.65-3.77-2.92-14.97-7.51-16.44-9.17Z" fill="#fadf7e"/><path d="M324.7,182.79c-10.42,2.76-11.66-15.75-3.68-12.01,4.33,2.03,3.84,7.92,3.68,12.01Z" fill="#091c22"/></svg>