<?xml version="1.0" encoding="UTF-8"?><svg id="Layer_1" xmlns="http://www.w3.org/2000/svg" viewBox="0 0 1452.5 1011"><ellipse cx="699.5" cy="470" rx="497.5" ry="421" fill="#8fd7ea"/><path d="M1130.95,408.35c40.29,182.84-248.05,385.86-461.41,455.97-58.55,19.24-345.12,113.4-515.54-45.32-16.33-15.21-84.59-78.78-94.77-174.51-21.4-201.18,228.6-404.67,461.41-455.97,295.95-65.21,569.19,33.22,610.31,219.83Z" fill="#8fd7ea"/><path d="M1380.83,622.74c-3.56,26.16-15.2,111.65-82.83,174.26-128.76,119.2-354.34,57.18-467.82,1.76-167.47-81.78-386.42-293.36-320.79-480.93,63.47-181.41,310.01-260.22,550.65-176.02,205.09,71.76,346.56,291.62,320.79,480.93Z" fill="#8fd7ea"/><path d="M842,795c2.4-1.76,5.61-6.41,8.27-8.23,16.25-11.08,41.68-12.75,60.72-13.27-11.58-6.91-23-14.86-33.01-23.99-28.38-25.89-47.1-60.72-64.51-94.49-36.1-70.04-35.08-167.61,15.19-230.5-6.68-19.37-6.64-42.7.29-62.07,1.02-2.86,5.77-10.53,5.86-12.13.05-.78-5.72-11.41-6.55-14.09-13.36-43.05,16.72-102.05,53.79-124.92l6-28.64c-10.13-5.42-21.35-8.75-31.81-13.39-19.65-8.72-40.84-18.83-60.51-27.56-8.25-3.66-34.7-11.59-37.3-19.66-2.47-7.67,2.88-12.2,9.28-14.83,12.52-5.14,29.57-7.93,42.9-12.07,55.3-17.17,111.78-35.16,167.17-52.06,9.64-2.94,28.41-9.12,37.71-8.1,5.87.64,18.88,5.67,25.1,7.86,73.08,25.72,147.15,50.68,219.78,77.29,14.19,5.2,34.91,9.83,47.62,16.34,6.73,3.45,10.45,10.81,5.47,17.49-4.19,5.61-29.17,10.38-37.1,12.86-1.36.43-1.36,1.81-2.17,2.06-3.97,1.23-30.84,7.14-31.27,8.71-.36,1.31-.11,8.1.3,9.65.47,1.78,2.71,3.44,3.46,5.54,3.51,9.85,4.26,15.31,1.02,25.43-.87,2.73-3.8,5.73-3.57,8.01.31,3.13,4.28,10.62,5.36,14.75,7.3,28.14,11.66,78.88,12.53,108.46.2,6.67.42,10.66-5.5,14.58-6.19,4.1-18.15,8.75-25.85,6.94-.81-.19-.27-1.81-2.12-2.06-11.52-1.51-27.48,5.05-33.35-8.63,2.1-30.95,3.02-63.01,6.8-93.78,1.07-8.74,2.5-18.84,4.67-27.33.77-3.02,4.97-12.55,4.96-13.69-.02-1.87-2.67-3.41-3.37-5.26-3.67-9.62-2.93-18.14.97-27.49,1.12-2.69,4.91-4.58,3.76-8.73l-49.41,13.88c-1.58,1.08,2.02,32.89,2.41,37.63,1.33,16.28,1.66,15.87,6.3,30.7,13.08,41.86,9.1,68.65,12.73,110.27,2.6,29.89,18.85,41.38,34.95,63.05,52.47,70.6,59.54,159.69,58.99,244.93-.06,8.66-1.99,25.88-.89,32.98,1.73,11.19,10.57,24.77,11.93,39.07.87,9.21,1.72,19.34-6.99,24.48,21.79-2.08,43.74-3.49,65.49-6,14.32-1.65,32.51-6.44,46.03-6.99,43.82-1.76,43.78,87.46,24.45,112.47-16.08,20.81-31.46,15.4-55.52,15.57-4.03.03-7.84-.06-11.92,0-23.61.34-46.95.68-70.53,1.96l23.22,13.99c10.8,10.92,26.11,15.65,30.29,31.98s-4.28,34.55-20.97,40.07c-14.34,4.74-25.89-1.9-36.54-11.05,2.58,23.61-16.14,26.4-34.55,20.04-11.46-3.96-21.14-13.96-31.11-20.87-4.25,1.47-7.94,3.93-12.7,3.76-25.46-.89-60.6-37.98-77.16-55.91-2.55-2.76-6.71-10.36-10.01-10.99-10.99-.82-22.02-.57-33.01-.99-37.17-1.41-74.8-1.41-111.95-4.05-15.66-1.11-31.38-3.98-47.02-4.98-76.32-4.86-152.82,8.06-228.95,10.03-91.15,2.36-188.98-7.81-279.11,2.88-1.9.23-.96,1.94-2.86,2.16-41.46,4.88-83.28,8.82-125.02,11.01-1.26.18-2.25.4-3.26,1.21-2.81,2.24-8.6,11.88-11.29,15.2-17.18,16.14-34.92,32.78-58.04,39.96-20.2,6.27-41.98,5.26-38.97-21.46-13.64,13-40.83,26.25-59.68,19.18-20.84-7.81-5.87-38.6,2.68-51.18-9.15-.32-18.39.38-27.54.03-17.36-.67-39.04.06-50.87-14.13-23.61-28.29-25.43-96.56,4.92-120.91,3.93-3.16,8.95-5.75,13.96-6.05,9.55-.58,24.32-.63,32.22,3.03l85.87,10.63,26.44-39.12c-3.06-1.56-5.69,2.94-7.26,3.78-13.34,7.16-35.94,14-50.99,11.48-3.67-.61-6.73-2.27-8.24-5.76-5.39-12.48,2.51-44.85,6.78-58.22,2.07-6.5,9.99-22.04,10.27-27.27.15-2.84-2.64-8.78-3.25-12.31-9.75-56.81,13.33-163.28,48.74-209.67,11.81-15.48,28.31-25.73,37.51-43.49,8.27-15.96,12.11-34.51,15.45-52.04-.92-.66-9.85.56-12.31-.03-.74-.18-.58-1.73-1.4-1.94-7.36-1.89-16.46-2.46-23.58-5.25-11.57-4.52-8.69-14-7.59-24.16,3.07-28.33,8.58-71.87,16.38-98.62,1.05-3.59,5.08-10.79,5.35-12.76.23-1.67-4.09-8.59-4.62-11.99-1.43-9.15.8-17.62,5.76-25.25-22.38-6.47-46.17-11.77-68.21-19.1-6.4-2.13-15.53-5.23-22.07-8.13-11.85-5.25-12.03-17.07,0-22.56,15.65-7.15,42.71-14.7,59.67-20.36,16.04-5.36,32.37-10.14,48.61-14.86.62,2.28-.24,5.05-2.59,8.31-.87,3.54-2.34,5.94-4.41,7.19l2,.93v61.37l-2,1.2c.68-3.16,10.05-3.02,11,0l-2-.92v-58.39l2-1.19c-.48-.07-.94-.18-1.32-.41-2.24-1.37,6.02-26.42,13.32-25.09,23.4-3.55,62.48-20.38,86.39-28.15,21.02-6.83,44.74-15.88,65.85-21.11,4.48-1.11,8.46-2.43,13.26-1.72,26,7.34,51.94,15.04,77.71,23.08,53.64,16.73,108.84,34.42,162.17,52.06,7.35,2.43,22.33,4.47,27.67,9.3,7.11,6.42,3.84,15.23-3.83,19.26-13.49,7.09-34,12.44-48.8,18.15-22.34,8.62-46.14,18.32-68.18,27.07-3.04,1.21-17.47,4.61-18.15,6.71l6.19,31.09c28.09,19.05,39.09,47.94,42.73,80.77,1.1,9.91.2,25.99,2.21,34.79.62,2.7,9.68,13.73,11.97,18.03,6.25,11.75,11.28,27.98,12.81,41.19,1.04,9.02-.66,29.21,1.23,35.77.77,2.67,11.6,16.88,14.17,21.83,31.85,61.38,22.67,145.26-12.56,203.2-10.93,17.98-25.83,33.05-38.41,49.59-19.16,25.2-41.02,50.68-70.41,64.1-.09,1.42,3.66,1.55,4.78,1.7,16.81,2.29,26.23,2.82,40.54,12.46,2.18,1.47,7.55,5.67,8.67,7.83,86.46,1.8,179.97-2.54,263-8Z" fill="#153013"/><path d="M261,96c-2.34,3.2-4.9,4.95-6.88,8.62-1.66,3.07-5.12,13.76-5.12,16.88v60.5h-11v-63.5c0-3.29,4.58-12.96,7-15.5,1.89-1.98,10.53-6.96,13.02-7.57,1.77-.43,2.79.6,2.98.57Z" fill="#ecc322"/><path d="M842,795c-4.24,3.1-17.94,1.64-23.54,1.96-52.87,3.05-105.95,6.14-158.91,7.09-26.99.48-54.05-.46-81.04-.04-1.38-.2.52-.95.5-1,14.82-.23,29.71.29,44.54.04,48.22-.81,96.91-2.2,144.92-5.08l73.54-2.96Z" fill="#050b03"/><path d="M1054.73,217.32c8,3.55,19.06,3.94,28.48,5.97,20.03,4.32,60.04,13.94,70.33,32.67,19.59,35.62,15.05,77.14,17.47,115.53,2.74,43.37,22.3,51.65,43.81,83.19,27.3,40.06,41.72,88.3,47.18,136.31l-8.47-5.02c-15.57-11.9-22.57-31.43-33.78-46.22-1.1-1.46-.75-2.1-3.24-1.76-3.22.44,8.42,37.5,9.05,40.95,4.31,23.78-3.12,29.05-24.22,17.22-14.03-7.86-20.48-21.56-28.68-34.31-2.53-3.94-6.18-8.59-5.63-.37.63,9.48,7.23,31.75,4.23,39.26-4.02,10.04-20.06-.58-25.25-5.23-3.65-3.27-7.98-9.1-10.82-13.18-1.99-2.86-9.66-18.02-10.67-18.35-3.1-1-3.3,3.11-3.49,5.53-.54,6.65,2.27,26.83.5,30.49-2.85,5.87-14.46-3.34-17.16-6.34-29.3-32.5-18.16-96.23,5.69-129.13,1.8-2.49,12.55-12.95,10.96-14.53-13.73,1.36-24.07,18.07-30.17,29.32-20.74,38.24-19.93,80.66-9.54,121.88,14.39,57.06,51.53,103.94,94.69,142.29-24.71,34.46-75.68,53.86-111.01,23.03l-14.93-21.07c-2.76-2.79-4.79-1.76-5.13,2.03-.63,7.15,6.91,20.16,11.57,25.52l10.02,8.99c-33.66,10.43-72.92,7.21-106.51-2.51-83.31-24.11-134.61-102.58-141.99-187.01-.49-5.59-.44-36.9-1.48-38.52-.7-1.09-1.39-1.26-2.56-.5-2.59,1.68-5.56,22.83-5.96,27.04-.36,3.87.47,8.28-.01,12-.23,1.81.34,1.63-2,1.48-.7-11.85-3.62-23.57-4.05-35.46-1-28.19,4.31-69.28,16.17-94.91,4.35-9.41,11.24-17.4,15.89-26.62,1.94-1.62,4.02,5.07,5.02,6.46,12.41,17.12,25.14,26.37,33.47-.48,7.04,4.93,14.16,9.87,22.48,12.52,38.84,12.4,69-12.17,77.71-49.3,6.19-26.39-.58-43.08-11.85-66.56-11.33-23.6-26.22-45.14-55.86-42.64.65-27.52-19.58-54.64-48.99-41.01,10.35-16.43,23.98-31.36,43.19-37.09,33.71-11.19,75.39-9.73,111.3-6.89,7.44.59,39.49,3.2,44.24,5.31Z" fill="#e87a1e"/><path d="M100,830c-2.12-.48-7.35-.62-8.52-1.98-3.16-10.16-7.97-19.68-14.48-28.01,31.36,4.95,62.93,8.55,94.51,11.98,24.78,2.69,51.23,4.58,76.95,6.05,24.08,1.38,46.6-4.34,63.54,16.46,10.2,12.53,14.1,29.46,22.59,40.41,9.17,11.84,23.59,10.49,29.43-2.91,2.62-.77,1.75,1.32,3.03,2.4,8.38,7.07,19.49,6,25.95-2.91,2.22-3.06,2.5-6.29,4.15-8.85,1.88-2.93,5.33-5.69,7.06-8.94,5.71-10.76,5.84-29.43-1.2-39.69l62.48,2.01c25.69,2.82,37.37,13.01,53.49,31.51,9.73,11.17,23.06,36.32,41.53,21.47,3.86-3.11,4.17-7.68,4.51-8.01,1.59-1.52,6.32,2.89,6.7,2.97,1.46.34,7.12.34,8.6.02.82-.18.79-1.62,1.43-1.95,11.92-6.15,14.62-15.22,13.26-28.52-.72-6.99-4.48-12.26-6.98-18.51,25.14-.48,50.39.61,75.54.04,9.89-.22,26.01.18,35.03-.96,1.91-.24.95-1.92,2.87-2.16,7.37-.93,17.28.48,25.11.12,33.54-1.54,67.26-3.84,100.98-5.02,1.35-.05,2.3-.54,3.47-1.02-3.78,8.51-6.96,19.88-.53,28.04,5.07,6.44,13.66,8.65,21.34,5.3,1.6-.7.57-2.57,2.19-2.33-.54,16.53,14.65,23.97,28.7,16.19,10.36-5.74,15.75-16.93,24.3-24.7,13.14-11.96,29.93-21.55,47.65-24.35,18.21-2.88,37.27-2.96,55.37.38l-11.42,12.58c-21.29,23.38-3.76,61.06,26.41,36.92-1.66,6.36,3.08,14.19,9.28,16.23,17.5,5.75,30.43-15.31,40.7-25.76,13.19-13.42,28.72-25.51,46.28-32.75,8.61-3.55,21.94-3.22,24.36-13.78,24.27-.43,48.67.78,72.93.1,36.85-1.03,83.3-2.31,118.14-10.02,5.9-1.31,30.96-4.18,36.8-4.05.76.02,1.76-.23,1.51.53-9.89,17.85-13.6,38.17-12.99,58.51h-10.01c-7.77,2.13-16.03,3.08-24.77,2.85-32.69,3.9-65.04,4.97-97.41,3.1-17.52.38-19.75,1.59-6.7,3.63,39.91,4.05,80.05,2.97,120.4-3.24l3.47,1.66c2.42-.24,15.43-2.58,16-2,.11,5.56,1.02,12.48,2.7,17.8s5.29,9.96,7.3,15.19c-39.47.67-78.88,3.58-118.28,5.02-.91-1.06-1.71-2.02-2.71-3.01l-3.26-.32c-15.43-12.87-35.57-18.82-54.94-23.22-23.23-5.28-46.02-7.02-69.49-8.64-10.21-.71-27.58-.16-4.02,3.29,28.28,1.3,56.22,6.1,83.56,13.7,8.08,2.25,35.6,10.11,39.22,16.05.4.66.68,1.39.93,2.13,12.92,8.11,26.63,18.66,39.25,27.31,6.85,4.69,14.85,8.2,20.75,14.2-7.26.25-12.34,8.13-19,3.5l-2.13.64c-15.81-9.68-31.54-19.57-47.18-29.69-4.01-2.43-17.57-5.49-7.95.43,27.94,15.6,41.91,23.39,41.91,23.39l13.71,6.03.64,2.19c4.34,3.98-1.69,7.05-3.52,10.98-.87,1.87-1.96,5.72-2.26,7.78-.19,1.29,1.93,5.33-.71,4.23-3.07-1.29-9.62-6.7-13.21-8.8-60.11-35.2-89.63-49.18-161.77-53.23-56.7-3.19-112.42-2.2-167.97-9.04-30.66-3.78-85.56-3.86-116.14,0-1.91.24-.95,1.91-2.87,2.16-25.98,3.31-58.47,4.49-85.08,5.91-107.26,5.74-213.61-4.46-320.98,5.02-42.7,3.77-85.13,9.83-127.96,12.04-5.99.31-13.47-.83-19.11-.12-1.91.24-.95,1.92-2.87,2.16-19.58,2.48-50.76.72-71.57.92-35.06.26-70.07-.18-105.02-1.33l.02-1.67c2.16-4.15,5.65-8.58,8.18-13.37.74-1.41.4-3.16,2.82-2.63l1.96-1.03c30.55,5.09,64.83,3.77,95.52-1.18-27.54-1.61-55.07-2.41-82.59-2.42l-1.89-1.37-13-1.01c4.72-16.99,3.35-34.9,0-51.99,2.7-.84,1.56,1.52,2.7,2,.73.31,1.75-.16,2.3,0,1.85-.44,3.8-.89,5.7-.52,46.49,9.17,92.9,14.7,139.26,8.85-44.15-.51-92.32-1.9-136.04-13.54-2.85-.76-5.44-2.22-7.91-3.79Z" fill="#a47527"/><path d="M358,758c-15.98,28.12-52.08,27.7-78.21,14.71-11.64-5.78-28.15-21.34-34.17-32.83-8.63-16.5-2.76-12.79,6.92-23.83,50.43-57.49,94.25-142.49,79.14-221.23-8.13-42.37-42.69-74.94-87.68-67.83,9.76-18.79,13.99-39.92,17.2-60.78,6.07-1.75,12.17-1.85,14.6-8.93l-2.84-32.74c-2.17-22.26,3.24-41.67,12.56-61.52,4.79-10.2,7.39-10.96,17.5-15.5,36.9-16.58,100.35-16.93,141.52-17.48,36.27-.48,74.69-1.25,109.18,11.64l13.27,11.82c-4.05.88-8.3-1.2-12.33-1.12-18.33.38-32.29,19.91-34.67,36.62-6.96-2.11-15.2-2.73-22.48-1.99-10.98,1.1-26.3,12.15-34.05,19.95s-13.89,20.04-20.96,29.04c.61-6.77,2.72-13.61,2.56-20.52-.55-22.88-14.73-49.61-36.37-58.65-46.04-19.24-82.63,23.29-79.67,67.67,2.74,41.09,40.49,67.67,79.99,53.52-15.27,28.78,6.96,64.75,32.33,79.16,14.35,8.15,32.3,15,49.16,13.81,15.55-1.09,30.94-10.32,42.02-20.98,2.88,12.9,12.59,7.76,20.43,2.43,17.26-11.76,29.42-40.53,31.05-60.95.36-4.45-1.53-25.22-.82-26.33.16-.25,3.12-1.1,4.35-2.14,1.68-1.44,6.83-8.22,7.92-7.98,19.59,21.41,24.74,52.18,23.61,80.51-.36,8.96-3.38,20.51-3.11,28.96.2,6.27,4.21,14.83,5.6,21.46,2.84,13.59,5.9,30.72,6.51,44.49.54,12.38,1.28,22.72-12.26,10.55-3.35-3.01-12.67-18.19-17.13-16.92-1.62.46-8.26,20.95-10.83,25.23-34.22,57-107.78,45.53-145.79-.85-4.23-5.16-7.63-14.21-11.15-17.85-2-2.07-5.04-2.14-6.22.61-4.55,10.58,7.79,24.71,14.34,31.77-5.07,5.06-16.87,2.17-23.46-.06-17.96-6.09-31.87-21.74-43.48-36.07-2.57,37.57-11.39,73.46-21.47,109.06-9.38,38.37-19.88,84.59,6.83,118.35l.57,3.72Z" fill="#34912a"/><path d="M439,563c35.5,38.32,90.72,52.86,134.91,19.41,13.09-9.91,23.71-23.02,29.58-38.41,6.72,8,14.65,12.58,24.55,15.65-.04,45.81-8.94,92.12-32.04,131.85-22.09,38.01-54.78,71.68-96.49,87.51-39.57,15.01-78.29,19.22-119.27,9.05-3.89-.97-28.17-6.03-29.25-7.08-1.54-1.52.78-1.86,1.27-2.28,3.73-3.22,11.3-8.24,12.59-13.45.97-3.93-5.81-6.1-6.86-7.26-41.53-45.79-5.28-126.79,4.69-177.81,3.8-19.45,6.38-39.37,7.32-59.19,16.44,21.32,39.01,47.13,68.99,42Z" fill="#ecbf22"/><path d="M1074.63,68.4c26.94,9.06,55.56,19.66,82.38,29.1,14.69,5.17,32.31,9.99,46.26,15.74,6.85,2.82,8.88,4.3,9.75,12.25,1.53,14.14-1.07,30.98-.11,45.41-16.63,3.61-33.08,9.41-49.77,11.98-3.08-10.16,1.15-26.23-5.59-34.91-10.44-13.45-45.49-21.73-62.14-25.86-49.78-12.35-111.29-17.6-162.61-7.81-7.35,1.4-18.9,4.3-25.14,7.86s-7.57,12.88-9.36,19.64c-2.28,8.65-4.04,17.68-5.47,26.53-2.81,4.55-6.38-.79-8.08-1.6-17.25-8.31-38.75-17.7-56-24.99-18.2-7.69-37.11-14.15-55.74-20.74v-2.97s77.21-21.3,77.21-21.3c52.68-17.51,105.13-33.39,158.55-48.45,22.16,5.68,44.14,12.84,65.86,20.14Z" fill="#27352c"/><path d="M459.63,68.4c62.55,19.37,125.56,40.11,188.37,59.1l32.99,10.49c-10.33,4.07-20.32,8.82-30.73,12.78-15.59,5.93-31.78,10.65-47.47,16.32-14.66,5.3-30.32,13.02-45.97,17.23-1.71.46-3.37.92-5.17.76-1.62-.37-6.86-27.4-7.94-31.28-.97-3.49-3.86-13.97-6.32-15.68-1.46-1.02-5.82-2.33-7.87-3.13-54.38-21.08-172.38-16.91-224.31,8.94-5.55,2.76-13.35,4.02-16.42,10.37-2.85,5.88-4.37,36.44-5.8,37.71-3.86-2.19-22.56-4.9-23.8-7.69-2.33-5.24-1.59-41.69-1.23-49.85.21-4.71.52-13.57,1.27-17.73,1.57-8.7,5.43-7.09,11.01-8.99,41.68-14.22,84-27.69,125.54-41.46,6.44-2.13,18.89-7.44,24.8-8.24,5.2-.71,32.09,8.21,39.05,10.36Z" fill="#27362c"/><path d="M271.68,440.36c16.57,5.18,32.94,19.98,40.51,35.96,15.38,32.46,15.1,109.84-22.81,127.56-21.59,10.09-19.9-13.81-19.37-28.37.21-5.73,1.98-13.35,2.03-19,.02-2.04-1.02-2.05-2.54-1.53-1.08.37-9.37,17.2-11.08,19.94-7.16,11.44-15.95,25.58-28.38,31.62-39.47,19.21-18.33-38.03-16.15-54.15.84-6.22-.49-7.69-4.09-2.09-9.63,14.97-13.89,28.75-27.76,42.24-5.41,5.26-13.45,9.67-21.04,10.45,6.81-43.1,15.91-90.13,40.77-126.72,14.54-21.4,42.25-44.57,69.9-35.92Z" fill="#34922a"/><path d="M508.72,142.32c.27.11.28,1.43,1.65,1.84,5.66,1.68,11.6,1.72,16.59,5.38,5.66,15.39,9.79,32.25,13.58,48.42,2.09,8.9,3.93,18.02,5.45,27.04-5.07-2.22-10.56-3.38-15.95-4.54-39.36-8.48-102.08-8.48-143.61-3.54-1.9.23-.95,1.92-2.86,2.16-24.54,3.07-44.94,2.87-69.78,9.21-5.13,1.31-16.65,6.26-20.5,6.54-1.23.09-1.51-.33-2.13-1.28l10.07-72.82c2.05-4.21,30.73-12.53,36.77-14.23,37.48-10.56,78.71-13.31,118.5-11.48,11.74.54,42.07,3.27,52.23,7.31Z" fill="#27362c"/><path d="M1118.66,142.36c.32.14,1.13,1.98,2.75,2.68,5.5,2.39,23.66,8.11,25.38,13.67l6.21,75.28c-.68.66-14.68-7.72-16.78-8.71-31.06-14.62-66.23-20.32-100.73-24.27-44.77-5.13-93.76-7.76-137.48,3.99.81-6.08,1.91-12.23,3.28-18.21,3.48-15.18,7.58-32.29,11.77-47.23,1.14-4.05,1.61-6.75,5.75-8.24,20.55-7.38,61.51-8.88,83.74-8.37,30.43.69,88.46,7.43,116.11,19.41Z" fill="#27362c"/><path d="M547.35,440.35c-.64.62-3.43,5.35-4.34,4.65-2.39-13.8-10.55-23.47-23.76-27.76-1.4-.46-3.2.07-4.55-.27-1.02-.26-.27-2.71-3.19-1.98-.46.11,0,1.86-1.94,2.1-2.47.31-13.84.39-15.88-.1-4.51-1.08-10.23-2.18-15.89-3.27-9.59-1.85-33.81-10.73-39.78-18.22-2.44-3.06.46-9.88-9.64-5.59-.5.21-8.2,5.52-8.89,6.09-11.59,9.5,8.26,5.74,9.79,6.15.91.25,7.1,5.82,9,7.08,13.95,9.26,26.77,16.38,44.24,17.76,10.06.79,31.86-2.38,39.44,2.56,10.33,6.75,4.46,11.1-3.04,16.87-27.84,21.39-68.71,10.43-89.89-14.93-13.01-15.58-19.37-33.96-7.44-52.39,3.57-5.51,6.74-5.73,10.45-9.55,28.04-28.83,48.53-94.88,100.27-61.35,44.51,28.85,53.98,94.61,15.04,132.16Z" fill="#ecbf22"/><path d="M882.59,317.58c22.21-13.37,40.3-12.62,56.83,8.5,9.71,12.41,16.02,29.4,20.6,44.39-12.07,15.58-23.62,35.54-45.52,37.51-11.3,1.01-18.88-4.13-30.77.24-7.99,2.93-15.4,12.2-19.52,19.47-3.25,5.73-4.35,11.8-7.7,17.28-23.5-24.38-25.2-63.17-9.02-92,8.84-15.76,19.74-26.14,35.11-35.4Z" fill="#4d4b26"/><path d="M1133.02,604.01c1.47-1.04,4.06,2.69,4.8,3.67,6.48,8.49,13.2,24.85,19.17,34.83,24.24,40.53,62.18,95.78,100.64,123.31,3.49,2.5,8.58,3.81,11.37,7.16-13.28,2.55-26.03-1.48-37.73-7.71-59.29-31.54-115.4-98.76-136.25-162.8-.16-.5-.27-1.63.48-1.48,7.13,8.22,19.86,16.98,30.87,10.86,3.2-1.78,6.11-7.48,6.65-7.86Z" fill="#4f8222"/><path d="M269.38,615.61c5.71,4.18,11.16,3.65,17.66,1.92,5.22-1.39,11.91-8.11,16.46-11.54.77-.58,1.69-2.03,2.5-.5-5.89,14.3-12.43,28.4-20.19,41.81-22.13,38.29-67.46,93.52-109.13,109.87-7.01,2.75-14.35,4.28-21.68,5.81,4.16-5.39,9.83-9.05,14.51-13.98,28.52-30.02,53.38-69.01,72.03-105.97,6.69-13.25,12.81-26.95,17.47-41.04l6.14,9.34c1.6.88,3.12,3.46,4.23,4.27Z" fill="#236827"/><path d="M1277.99,763c-2.47,2.63-26.64-16.25-29.52-18.97-34.75-32.87-66.5-79.07-90.28-120.72-1.58-2.77-3.9-6.12-4.18-9.3,1.6-.07.98,1.88,2.64,2.84,2.56,1.48,9.76,1.53,12.78,1.09,7.23-1.04,14.99-13.59,14.57-20.93,1.52-.41,1.66.4,2.51.98,10.79,7.47,21.97,36.25,28.97,49.03,12.91,23.61,27.56,43.75,41.94,66.06,9.81,15.22,19.38,31.33,20.58,49.91Z" fill="#396c23"/><path d="M406.7,267.32c11.56,7.07,21.05,19.55,24.6,32.87,9.06,34.03-11.06,74.51-49.68,70.68-10.12-1-22.87-8.68-29.65-16.35-22.16-25.1-12.61-71.88,16.29-87.81,9.65-5.32,28.99-5.17,38.44.61Z" fill="#f2e1a0"/><path d="M68.45,912.47c-3.76,2.35-6.89,3.12-11.67,1.44-2.81-.99-10.46-6.78-12.75-9.43-17.77-20.6-18.39-75.28-1.53-96.49,19.15-24.1,35.39,9.17,40.02,26,6.14,22.32,8.29,64.51-14.06,78.48Z" fill="#855b1d"/><path d="M143.01,760c1.22-16.93,5.53-33.22,11.51-48.98,11.66-30.71,30.38-60.52,41.96-91.04,1.02-2.68,1.85-5.03,1.52-7.98,2.74-.64,2.25,2.47,3.99,4.51,11.9,13.96,32.93,3.42,43-7.51-12.77,31.93-30.08,62.52-49.77,90.72-9.67,13.85-20.66,28.73-31.68,41.32-6.12,6.99-13.84,12.57-20.53,18.96Z" fill="#236827"/><path d="M1394.75,781.23c11.73-1.86,17.05,8.5,20.74,17.78,7.02,17.67,6.44,50.94-1.75,68.21-9.37,19.74-28.07,25.03-36.75,1.29-6.67-18.24-5.36-50.97,2.16-68.88,2.88-6.85,7.71-17.15,15.6-18.41Z" fill="#855a1d"/><path d="M235,356l7.99-115-3.49,9c-6.86,33.86-8.88,68.74-13.63,102.88-8.31-.59-12.43.11-11.86-9.37,1.41-23.58,7.89-56.9,12.28-80.72.96-5.21,5-29.48,8.71-31.35.95-.48,5.46.67,7.51.64,2.72-.04,6-2.23,8.01-.11,2.38,2.5,4.92,22.81,5.46,27.54,3.28,28.47,5.17,59.25,7.05,87.95.08,1.3.24,7.29-.04,7.55-.29.28-6.41-.13-8.03.56-1.7-1.22-.83-7.41-1.1-9.94-.12-1.15-.45-5.49-1.87-5.62l-2.01,16h-15Z" fill="#edc122"/><path d="M1208.5,358c-.49-.08-2.39-1.07-2.54-1.69-.61-2.55-.11-11.53.05-14.8.87-18.12,3.04-38.84,5-57,.95-8.78,4.98-47.7,9.48-52.54,1.63-1.75,5.26.09,8.01.14s4.89-2.07,7-.12c2.97,2.74,6.56,25.34,7.36,30.67,4.57,30.31,5.92,61.22,9.19,91.7-.33,1.32-17.19,6.88-20.05,5.66.79-4.64-.81-9.11-1.04-13.46-1.65-31.52-.14-63.46-1.92-95.08-.2-3.52-.55-11.36-3.03-13.46-3.6,26.3-1.44,53.01-1.97,79.54-.05,2.36-1.03,4.55-1.08,6.92-.26,11.16.28,22.39.04,33.54-4.48-.51-10.23.7-14.5,0Z" fill="#edc122"/><path d="M395.99,841l-6.57-12.92c-6.9-10.22-17.41-22-30.42-23.07-1.59,1.36,11.52,12.84,12.51,13.98,7.38,8.53,12.56,18,13.47,29.53.37,4.71.09,17.4-5.52,18.48-12.44,2.39-10.15-13.94-11.54-21.41-2.79-14.96-12.99-26.33-25.66-33.56-5.72-3.26-19.66-8.97-9.65,1.87,12.05,13.06,24.52,17.55,24.39,39.6-.06,9.4-6.33,26.77-14.83,11.84-11.96-21-16.55-40.7-40.43-53.62l-17.72-6.21c4.81-3.53,10.98-8.83,16.93-10.07,4.83-1,9.7-.07,14.55-.45,3.79-.3,9.58-2.07,13.04-2.02,3,.05,8.9,3.82,13.25,4.75,7.54,1.62,14.43.64,21.71,1.29,20.21,1.8,34.78,22.26,32.51,41.98Z" fill="#e3b921"/><path d="M1262.8,604.21c4.53,33.35,6.57,67.08,6.19,100.79-10.67-10.45-20.5-24.27-28.61-36.87-6.52-10.13-27.9-44.95-30.36-54.65-.54-2.14-.14-1.29.98-.99,16.12,4.25,29.14-4.12,28.01-21.49,6.88,6.24,14.65,11.01,23.79,13.21Z" fill="#396c23"/><path d="M495.39,813.58c-7.24-3.41-15.21-5.15-23.36-7.12l-19.03-2.46c3.9-.18,8.42-.54,12.22-1.28,32.22-6.25,51.88-18.27,85.75-4.21,15.8,6.56,33.38,25.7,30.93,43.9-.62,4.57-2.98,9.37-8.36,8.61-4.62-.65-8-15.16-10.38-19.7-10.79-20.5-30.47-36.27-54.71-34.38-12.93,1.01,8.09,6.19,10.81,7.28,14.4,5.81,33.9,27.94,36.5,43.49,1.89,11.32-5.41,15.58-14.24,8.24-8.53-7.09-14.98-19.67-23.51-27.49-6.45-5.92-14.72-11.18-22.62-14.9Z" fill="#e0b821"/><path d="M228.99,121v53s-82.99-23.01-82.99-23.01c-1.49-1.92,15.85-6.53,17.21-7.07.7-.28.87-1.53,1.6-1.81,20.94-8.13,42.74-14.45,64.19-21.1Z" fill="#27362c"/><path d="M263.99,926.01c.45,1.73-.72,2-1.49,3-11.19,14.59-43.73,40.71-62.11,42.89-31.81,3.76-12.42-20.44-2.37-32.39.69-.82.24-2.26,1.36-3.53,2.32-2.64,7.38-5.06,9.64-8.46l54.98-1.51Z" fill="#226827"/><path d="M569.63,267.38c9.66,5.78,17,18.94,19.86,29.62,5.19,19.36,5.28,42.14-10,56.99-.22-5.21-7.97-16.92-8.28-20.66-.09-1.07,3.34-7.09,4.07-9.55,4.29-14.5-2.48-40.31-20.78-39.86-9.05.22-13.78,6.51-14.51,15.08-.37.34-8.67-4.11-9-4.48-2.67-2.98.76-11.18,2.47-14.56,1.52-2.99,8.68-11.97,11.18-13.82,6.89-5.09,18.19-2.83,24.99,1.24Z" fill="#f2e1a1"/><path d="M934.37,440.38c-.88.53-1.1,1.75-3.65,2.79-19.58,8.02-38.37-.1-52.7-13.68,9.52-14.22,21.17-7.88,34.47-8.52,15.18-.72,33.01-12.92,42.49-24.51,2.07-2.53,7.44-14.57,8.11-5.98,1.41,17.91-13.75,40.96-28.72,49.89Z" fill="#4d4b26"/><path d="M183.5,928c.24-.02,1.73-2.15,2.49-.51-7.39,9.66-15.89,18.1-25.68,25.32s-24.07,16.53-36.81,16.27c-8.94-.18-10.64-1.95-9.42-10.5.61-4.27,12.7-30.58,15.41-30.58,17.2,0,37.19,1.3,54,0Z" fill="#236827"/><path d="M894.9,299.9c-.27.31-6.6,1.56-7.9,2.1-.55-13.96-12.91-24.24-25.94-15.43-8.1,5.48-10.66,20.74-10.05,29.92.16,2.47,2.06,7.27,1.74,8.9-.14.73-8.39,10.71-9.32,11.56-1.06.98-.71,1.53-1.93.04-8.43-10.3-6.29-38.26-1.06-50.04,11.25-25.36,42.64-38.61,52.85-4.75.86,2.86,2.91,16.21,1.6,17.7Z" fill="#f2e1a1"/><path d="M1132.99,794.01c2.04,1.5-.74,1.74-1.42,2.09-7.34,3.71-17.52,5.89-25.54,9.44-11.61,5.14-25.84,15.03-34.93,24.07-6.5,6.47-20.68,26.83-29.61,27.45s-6.05-6.7-4.23-12.28c9.86-30.23,54.82-53.64,85.27-51.81,1.52.09,10.03.74,10.45,1.05Z" fill="#4a4b25"/><path d="M628.01,649c3.42-9.94,5.81-20.4,7.7-30.79,6.7-36.89,7.26-77.39,2.13-114.54-1.79-12.94-5.91-25.76-6.33-38.68,20.95,34.87,24.48,77.53,19.36,117.37-2.08,16.17-7.16,33.58-13.39,48.61-2.41,5.82-5.55,13.31-9.46,18.03Z" fill="#35922b"/><path d="M1217.63,937.38c.27.14.54,1.32,1.63,1.9,7.92,4.21,34.06,16.62,39.01,21.67,1.85,1.89,6.84,13.92,6.78,16.58-.24,11.56-24.37.16-29.37-2.73-15.28-8.83-28.26-25.34-39.69-38.31-3.91-4.43-8.66-8.96-13-13,1.72-.82,4.72.86,6.51,1.49,9.41,3.34,19.27,7.78,28.12,12.4Z" fill="#d1630c"/><path d="M944.64,788.39c.26.08.39,1.25,1.15,1.52l9.2,3.09c-33.43,3.23-57.18,25.38-78.04,49.46-16.37,6.97-9.53-10.82-4.75-18.75,12.73-21.17,47.59-43.19,72.45-35.31Z" fill="#4a4b25"/><path d="M214.8,802.79c-1.92,1.11-20.54-.32-24.32-.78-1.4-.17-1.73.53-1.47-1.48l41.97-62.51c1.76,6.89,6.72,12.13,9.83,18.32-7.34,16.19-17.59,30.84-26.02,46.46Z" fill="#236927"/><path d="M286,788.01c1.44,1.6-7.43,6.15-9.01,7.48-3.6,3.02-6.8,6.85-9.69,10.53l-41.29-2.03,21.01-38.99,24.32,17.17,14.67,5.84Z" fill="#236827"/><path d="M1244,887c-19.13-12-42.9-17.18-64.81-21.69-5.31-1.09-9.63-2.07-13.9-3.27-16.48-4.62-38.62-2.62-55.14-6.69-3.44-.85-6.86-3.83-2.48-5.2,2.7-.84,16.1-.4,19.88-.2,34.67,1.77,99.37,9.18,124.46,34.04-.2,4.55-4.34,2.82-7.42,2.22l-.58.78Z" fill="#333d1b"/><path d="M1352,843c.13,0,1.14.9,2.42,1.04,4.74.52,8.79-2.36,7.59,3.96-3.88-.21-7.69.56-11.5,1.05-1.87.24-4.06-1.27-3.5,1.95-36.97,3.68-97.29,11.46-132.23,1.68-4.85-1.36-3.73-3.9.72-4.69,14.89-2.63,41.23.57,58.05.05,25.36-.79,53.57-5.51,78.46-5.04Z" fill="#333d1b"/><path d="M100,830c36.13,8.18,71.92,13.53,109.46,15.04,13.68.55,28.33-1.65,41.54,1.45-1.2,1.5-2.75,2.06-4.57,2.43-6,1.23-16.56,1.77-22.94,2.06-39.12,1.81-86.84-1.23-124.49-11.99l1.36-1.98c-5.31-1.04-8.63.64-7.37-6.02l7.01-1Z" fill="#333c1c"/><path d="M1202.6,763.41c.4.27.76,1.3,1.66,1.9,8.02,5.29,21.69,9.44,22.74,19.69l-49.48.99c-2.15-.42-10.08-10.73-10.39-12.67-.28-1.78,17.22-16.51,18.47-20.39,1.99-.28,14.22,8.64,17,10.49Z" fill="#236727"/><path d="M1142.73,912.32c.25.11.18,1.38.99,1.63,6.28,1.9,18.67,1.06,24.23,5.6,6.67,8.34,12.44,17.6,19.08,25.92,3.36,4.21,10.72,10.41,13.02,13.98.8,1.23,1.24,1.99.95,3.54-4.29,1.69-5.77-1.55-6.76-1.92-26.41-9.92-45.6-29.19-64.23-49.58,3.13.53,10.52-.17,12.72.83Z" fill="#d0620c"/><path d="M1304.73,939.23c32.16-5.95,23.25,38.12-.25,37.23-20.16-.76-18.31-33.79.25-37.23Z" fill="#5b5414"/><path d="M1059.99,799.01l-15.52,11.97c-9.76,8.41-15.8,24.52-24.47,32.53-10.69,9.88-22.17,8.47-17.23-8.23,2.12-7.18,16.7-23.05,23.19-26.81,10.22-5.92,22.67-6.9,34.03-9.45Z" fill="#4a4b25"/><path d="M158.01,672c-.73-11.78-1.64-23.69-1.05-35.54.13-2.57,1.3-19.75,2.06-20.45.31-.29,2.28.31,3.21-.05,8.1-3.11,19.28-7.52,26.27-13.97,1.35-1.24,1.71-3.41,3.49-4-6.74,21.09-16.28,41.41-26.47,61.02-2.2,4.24-4.6,9.27-7.51,12.98Z" fill="#246927"/><polygon points="1243 127 1295.01 147.51 1243 162 1243 127" fill="#27362b"/><path d="M280.9,206.09c-2.09,18.62-4.49,37.41-7.5,55.82l-6.4,10.09c-.72-10.35-1.26-21.16-3.15-31.36-.6-3.24-4.8-15.14-4.66-15.96.19-1.11,2.38-3.18,3-4.98,2.09-6.06,2.02-11.34,1.8-17.7l16.9,4.08Z" fill="#fef6d4"/><path d="M1233,182h-10.01c.89-6.21-.81-12.59-1.04-18.46-.71-18.17,4.1-41.94-8.42-56.6-1.44-1.68-5.01-1.77-3.05-3.93,6.7,3.97,15.78,6.99,19.56,14.44.47.93,2.95,7.62,2.95,8.05v56.5Z" fill="#edc322"/><path d="M895,785.01c-7.32,7.12-18.67,12.71-25.54,19.95-6.1,6.43-9.89,18.9-17.76,22.24-12.76,5.4-14.72-4.59-9.44-14.43,7.14-13.29,21.7-18.39,34.95-22.85.65-.22.78-1.54,1.58-1.82,4.62-1.57,11.27-1.55,16.2-3.09Z" fill="#4a4b25"/><path d="M107,890c27.22.62,63.39-1.55,89.26,2.25.87.13,3.01.45,2.73,1.74-4.07.45-7.52,2.23-11.62,2.88-21.58,3.42-57.79,3.62-79.91,2.17-2.85-.19-12.01-1.19-13.46-3.04-1.07-1.37-.97-5.17.13-5.88,1.25-.81,7.08.97,9.44,1,1.85.02,3.25-1.12,3.43-1.12Z" fill="#333d1c"/><path d="M245.76,192.28c.26.12.35,1.31.99,1.71,4.23,2.63,6.45,4.96,7.17,10.6,2.88,22.47-25.49,22.37-22.83,0,.72-6.08,8.74-14.9,14.68-12.31Z" fill="#e1ba21"/><path d="M1230.75,192.28c.57.24,6.83,6.89,7.32,8.14,4.01,10.19-1.83,23.24-14.37,20.36-3.82-.88-7.25-7.73-7.64-11.39-.8-7.51,6.28-20.56,14.69-17.11Z" fill="#e3bb21"/><path d="M1284,935c-5.14-.64-34.5-16.17-40.75-19.78-1.68-.97-2.02-2.65-3-3.24-4.24-2.56-13.4-5.96-16.62-9.11-3.31-3.23-1.48-5.1,2.73-4.81,11.14.76,21.3,11.02,29.91,16.28,7.18,4.39,24.07,12.11,28.74,17.66.41.49,2.2,2.83,2,2.99-.98-.06-2.03.13-3,0Z" fill="#313c1b"/><path d="M83,912c.95,1.9,1.38,1.93,3.41,2.07,30.5,2.12,65.03-.47,96.11-.09,1.69.02,4.45-.64,5.49,1.02-35.15.34-70.34-.25-105.5,0-.73-.04.4-2.83.5-3Z" fill="#e0912d"/><path d="M1020.76,253.26c93.56-11.9,88.13,145.35-3.01,129.49-66.05-11.49-58.55-121.67,3.01-129.49Z" fill="#153013"/><path d="M764.27,862.32c-9.13,4.14-66.31,4.52-79.81,3.72-2.43-.14-12.27-1.24-13.72-2.03-2.66-1.44-1.27-4.45,1.79-4.99,8.52-1.51,18.44-.04,26.98-2.01,31.92,2.05,68.7-5.9,100.04-3.06,5.01.45,9.45,2.43,2.67,4.77-9.05,3.12-32.09.95-37.95,3.6Z" fill="#333d1c"/><path d="M373.34,291.35c7.05-6.13,22.38-6.88,29.58-.77,14.17,12.01,14,45.44-2.88,54.98-30.31,17.13-49.79-34.15-26.71-54.2Z" fill="#143013"/><path d="M1050.64,267.37c46.61,24.65,31.34,109.52-25.18,105.66-46.33-3.16-57.27-69.5-25.99-97.06,14.02-12.35,33.48-17.96,51.17-8.6Z" fill="#f2e1a0"/><path d="M1049.61,294.38c14.38,16.33,9.87,53.78-15.06,55.65s-34.66-26.66-25.08-46.08c7.75-15.71,26.98-24.53,40.14-9.58Z" fill="#153013"/><ellipse cx="512.5" cy="403.5" rx="12.5" ry="13.5" fill="#ecbf22"/></svg>