<?xml version="1.0" encoding="UTF-8"?><svg id="Layer_1_copy_5" xmlns="http://www.w3.org/2000/svg" viewBox="0 0 612 777.94"><path d="M311.05,49.37c36.04,8.38,87.01,32.35,100.48,69.59,5.03,13.89,2.63,26.78,5.56,37.77.84,3.15,8.46,9.77,10.71,13.5,24.14,40.09,26.45,93.67,1.75,133.94,44.9-28.16,71.37-87.04,68.78-139.49-.61-12.29-10.59-41.93,5.46-48.13s36.48,21.61,42.81,34.26c13.17,26.3,15.35,57.08,10.38,85.83,27.68-35.78,44.81-18.86,42.08,21.07-1.78,26.05-12.69,53.49-26.82,75.12.39,2.67,37.57-18.05,23.31,29.68-8.19,27.39-32.55,51.97-56.42,66.56,21.22,11.7,4.34,32.41-8.26,43.33-19.01,16.48-45.64,24.95-70.76,24.17-.49,48.47-22.21,94.18-57.32,126.8-5.22,4.85-18.99,12.88-22.28,17.22-4.74,6.24-5.89,20.22-13.4,26.1,27.18,3.6,60.6,2.3,82.2,22.27,19.34,17.87,8.8,42.4-17.21,31.88.29,37.77-61.63,3.76-81.55-1.93-12.5-3.57-48.26-8.19-56.03-12.78-11.56-6.83-6.95-22.3,3.7-28.05,7.97-4.3,18.48-2.05,21.73-12.02-24.77,5.77-49.04,6.13-74.15,2.15-4.79-.76-18.43-6.09-20.84-5.91-1.17.09-11.54,7.53-15.01,9.07-12.6,5.57-15.74-1.33-17.42,17.61,11.51-1.18,24.09,3.74,22.84,17.06-1.61,17.09-27.93,20.64-39.83,29.04-8.03,5.67-14.54,15.88-23.37,21.23-17.27,10.46-40.36,9.08-34.83-16.34-9.98,4.63-37.46,18.69-44.43,4.29-7.65-15.82,12.69-35.22,25.73-41.49,8.48-4.08,39.83-10.31,42.59-12.85s6.33-19.36,5.55-23.27c-.34-1.68-21.22-17.69-25.55-22.95-7.83-9.51-12.91-20.33-18.52-31.14-5.79,5.61-28.5,13.99-35.05,10.82-1.79-.87-3.43-5.72-4.45-5.72-1.15,0-6.78,10.87-19.08,11.5-35.97,1.86-16.99-47.85-10.88-65.7.91-2.66,5.11-9.62,5.06-10.19-.06-.7-6.81-3.76-8.3-10.75-11.61-54.3,17.92-170.8,63.13-207.14,3.79-3.05,18.81-10.63,19.16-11.69,1.34-4.13-4.63-27.4-7.66-29.18-2.5-1.46-12.49,8.47-24.83-1.84-18.07-15.1,7.68-49.03,5.69-50.92-37.2,12.01-52.13-12.87-22.94-40.15,7.1-6.64,33.02-20.31,35.74-24.15,3.86-5.44,11.04-32.95,17.12-44.04,27.57-50.27,122.71-114.76,179.72-118.44,32.75-2.12,44.32,14.71,15.9,34.39Z" fill="#062220"/><path d="M108.43,220.1c.14-2.78,2.53-8.69.02-10.18-5.49,24.2-77.66,36.15-38.83.04,7.26-6.75,36.48-22.86,38.88-26.1,2.22-3,7.98-25.99,10.79-32.53,23.6-55.03,122.49-126.98,182.19-126.29,15.91.18,16.85,4.62,4.88,13.92-10.25,7.96-24.65,9.88-34.82,18.04,36.98,1.65,76.21,10.15,105.08,34.46,12.8,10.78,27.41,26.78,27.43,44.55-32.34-37.31-87.16-43.19-114.91,2.94-11.07,18.41-11.69,36.45-19.54,54.37-11.31,25.82-22.62,12.53-41.4,21.04-17.52,7.95-26.16,34.92-13.39,50.37,3.89,4.7,10.33,5.97,10.7,6.49.64.91,2.72,17.13,4.29,21.84,4.4,13.22,11.09,25.17,18.8,36.63-.49.6-.85,1.11-.72,1.3,22.17,32.89,57.33,64.57,99.94,52.92,16.79-4.59,21.08-12.74,27.5-27.04.3-.68,1.59-3,1.74-3.1.71-.47-.07,3.91-2.31,1.4,13.88-24.77,7.69-56.87,11.41-84.53,31.18-13.73,41.05-53.75,37.03-84.94,25.74,48.12,8.88,103.79-19.13,146.51,3.81,1.52,10.19-6.06,12.78-4.53,1.62.96,18.86,27.76,20.82,31.47,5.34,10.09,19.32,43.85,11.63,53.35-1.66,2.05-1.79.72-3.16-.66-1.65-1.66-20.64-32.38-22.94-29.92,6.98,19.84,11.6,47.02.47,66.11-15.18,26.05-21.17-11.42-27.23-21.5,2.11,55.77-24.64,78.5-68.83,36.32-12.4-11.84-20.1-26.39-29.94-40.14,1.36,16.29,25.99,47-9.14,33.35-23.25-9.03-43.84-33.76-53.3-56.28.37,11.13,5.5,25.54,12.11,34.4l3.63,7.16c6.18,49.07-14.53,92.81-35.72,134.71-7.31,17.24-13.15,38.27-.74,54.52-.6,1.2-.74,2.42-.3,3.65,1.1.23,1.05.67,0,1.27,3.21,7.66-14.53,5.69-20.27,4.97-34.1-4.29-47.52-33.48-39.15-64.75,5.03-12.24,11.27-24.14,17.45-35.87.06-.11.08,2.05-1.35.09,24.83-42.69,38.61-93.35,28.68-142.72-7.52-37.36-33.88-75.2-75.83-75.16-2.34-17.31-9.62-32.01-12.73-49.7l-3.25-4.04c-2.37-16.09-3.98-32.38.7-48.2Z" fill="#12914a"/><path d="M428.26,573.06c-2.16-2.12-1.93-5.57.68-10.37-48.64,60.11-135.32,89.5-209.25,70.27-1.94-.21-3.77.21-5.49,1.26-27.01-30.89,10.99-77.64,22.61-110.55,10.27-29.08,15.92-58.72,10.52-89.5,6.47,8.66,28.85,26.75,39.03,30.41,9,3.23,24.62,6.96,26.58-6.19,23.04,32.55,75.89,60.82,88.57,3.82,25.49,13.96,35.53-19.63,39.47-38.22,11.14,51.13,13.23,102.1-12.72,149.07Z" fill="#f0c01d"/><path d="M523.83,297.82c3,2.7,12.77-10.58,14.53-12.85,7.32-9.47,32.52-56.88,42.41-57.01,15.08-.2,4.6,48.01,2,56.82-11.59,39.38-35.51,65.21-67.88,88.86,28.01-2.08,45.22-30.87,72.65-32.5.68,44.07-47.82,83.26-85.66,97.21-1.1.4-25.53,6.15-18.22,7.26,4.9-2,9.84.41,15.36.07,7.71-.48,40.56-12.21,39.62-1.29-2.15,24.96-56.87,44.57-78.53,42.01,3.93-11.84-10.52-55.86-8.67-62.95.38-1.45,6.05-3.82,8.03-8.4,6.22-14.38-4.41-44.06-10.97-57.81-6.82-14.29-17.18-23.91-24.06-37.73,50.83-23.39,84.08-88.8,85.43-143.3.32-12.8-4.56-32.42-2.67-43.45,2.98-17.35,24.24,13.94,27.03,18.96,25.62,46.03,12.87,101.91-10.4,146.1Z" fill="#036854"/><path d="M181.06,490.23c-16.73,34.91-43.37,18.11-34.4-15.29.07-5.67,1.61-10.9,1.26-16.56-2.68,4.14-4.58,9.38-6.36,14.01-21.5,49.44-66.11,20.27-50.97-24.21,1.22-4.15,2.08-9.65,2.53-14.01-2.52,2.78-4.85,7.95-6.36,11.46-15.63,31.15-43.31,16.14-33.13-14.02,5.29-51.83,62.84-141.31,115.73-75.6,29.66,36.85,24.6,91.93,11.69,134.21Z" fill="#12914a"/><path d="M386.23,259.6c-5.32-15.03-18.7-36.93-36.36-38.24-27.04-2.02-45.9,25.98-78.86,21.57-6.1-.82-13.54-5.55-19.61-5.98-13.39-.96-23.74,11.36-24.48,23.93-15.17-7.86-9.39-29.55,3.15-36.99,13.59-8.06,29.62-1.78,41.45-15.89,9.98-11.91,13.19-38.31,20.18-53.72,31.89-70.3,115.02-35.27,121.23,29.55,2.41,25.12-2.24,62.75-26.71,75.78Z" fill="#f5ab10"/><path d="M141.56,472.39c-17.32,45.1-31.82,80.28-63.76,117.82-6.69,7.86-43.13,49.55-44.6,16.57-1.06-23.84,47.7-125.55,57.39-158.6-6.96,45.52,24.06,67.52,50.97,24.21Z" fill="#036854"/><path d="M247.31,244.3c6.99,39,46.62,97.9,90.04,99.29,5.38.17,22.56-3.9,24.4-9.7,1.89-5.98.54-30.03,1.55-39.23,1.26-11.57,3.47-26.95,6.53-38.07.26-.95.55-5.74,2.37-4.02,2.63,4.02,4.82,7.74,5.17,12.71.85,12.07-1.8,55.43-3.91,67.58-4.05,23.33-26.78,33.97-48.9,32.32-37.59-2.8-79.39-47.22-88.34-82.39-3.15-12.38-6.18-36.41,11.09-38.5Z" fill="#f5ad10"/><path d="M428.26,573.06c-33.79,61.15-105.36,95.78-174.88,85.05-7.6-1.17-22.94-5.35-28.99-9.87-3.48,3.04-13.21-9.29-10.19-12.74-.08-.35-.04-.91,0-1.27.25-2.4.44-3.5,3.18-3.85,4.84-.61,28.13,5.46,36.01,6.06,49.1,3.74,113.26-18.06,150.07-50.6,11.74-10.38,21.18-23.07,31.83-34.43l-7.02,21.65Z" fill="#d6a60c"/><path d="M257.53,246.86c11.02,1.93,23.72,3.91,34.91,2.42,20.96-2.79,36.07-22.95,59.92-18.92,8.96,1.52,7.48,11.11,7.06,18.37-.58,9.89-10.24,78.63-15.22,81.62s-5.48-13.53-6.49-16.53c-6.86-20.5-21.41-36.28-44-38.82-5.22-.59-22.5,2.37-23.54,1.81-2.8-1.5-14-28.63-12.65-29.95Z" fill="#4b1e19"/><path d="M170.87,539.93c2.53-1.94,3.36-1.56,2.28,1.64-7.64,22.7-22.01,32.49-17.49,60.08s27,38.7,54.19,36.49c2.49-.2,3.19-.22,4.34-2.64.36,1.6,8.66,11.6,10.19,12.74-34.61,36.23-89.89,8.23-106.85-31.4-7.96-18.59.35-14.11,12.57-25.29,15.73-14.39,30.04-33.17,40.77-51.61Z" fill="#08743e"/><path d="M181.06,490.23c-15.74,51.56-54.27,107.11-108.31,122.31,32.93-41.97,59.36-85.72,73.9-137.6-.43,33.9,10.93,44.9,34.4,15.29Z" fill="#036653"/><path d="M350.53,672.44c-2.55,4.73.26,4.39,4.62,4.94,22.93,2.87,47.24,1.17,69.26,9.74,10.07,3.92,24.78,12.3,22.97,24.83-26.95-.64-46.88-25-75.18-22.93,9.32,3.89,54.36,22.41,49.59,36.14-.5,1.62-1.7,1.73-3.1,2.06-12.2,2.86-53.48-16.56-68.43-20.73-11.67-3.26-23.57-4.9-35.4-7.28-.61-4.53,3.48-4.06,7.18-3.52l12.46,2.61c1.76-7.75,7.33-13.3,16.71-16.64-9.56-1.78-5.48-17-.67-9.2Z" fill="#f4ab12"/><path d="M153.03,691.56c3.49-1.4,4.41.96,2.75,7.07,6.78.35,12.14,2.01,17.34,6.6,4.83-.48,7.01,2.49,6.53,8.92,5.77-2.08,10.06-1.97,12.88.34-5.07,2.54-12.43,3.84-17.76,7.09-7.63,4.65-36.65,39.89-46.08,28.08-8.79-11.01,21.48-32.76,28.16-38.98-11.46,3.86-65.44,32.36-73.76,27.87-2.01-14.93,17.03-25.61,29.44-29.51,13.38-4.2,34.6-2.58,40.49-17.49Z" fill="#f4ab13"/><path d="M86.77,445.63c-12.79,29.67-23.12,61.07-38.46,89.6-1.09,2.03-3.33,7.72-6.13,7.24-6.3-35.91,1.07-76.32,11.45-110.86-.85,8.38-1.54,24.73,8.55,27.75,13.71,4.1,15.82-7.53,24.58-13.74Z" fill="#036754"/><path d="M248.6,329.68c2.94.86,28.75,27.87,39.6,33.66,35.59,18.98,56.78,16.14,86.54-8.18,1.04-.85,2.35-1.41,3.19-2.54-.31,19.34-17.7,32.14-36.04,35.31-41.2,7.12-78.33-25.06-97.11-58.9.97-2,2.87.37,3.81.65Z" fill="#09703b"/><path d="M332.69,332.22c-26.3-6.11-46.27-26.57-58.6-49.67,31.41-8.14,61.26,17.77,58.6,49.67Z" fill="#e93d31"/><path d="M350.53,672.44c-.08.11-2.22-1.65-2.53.66-1.14,8.51,6.34,4.57,11.44,6.34-.14,1.26-18.09,9.87-20.06,12.41-1.46,1.88-2.22,7.92-3.05,8.44-4.25,2.67-16.65-5.32-21.48-1.09-4.92-.99-11.97-.23-15.15-4.68-2.97-9,15.96-8.98,20.91-11.86,6.73-3.91,10.37-17.54,14.24-20.5,5.01-3.83,23.3-8.07,29.69-12.65.97.93-12.47,20.78-14,22.94Z" fill="#e68e0e"/><path d="M153.03,691.56c2.62-6.63,3.39-13.36,3.83-20.4l28.02,3.84-6.36,28.02c15.08-4.13,42.33-2.73,14.01,11.47l-13.81,2.41c-3.78-2.81-1.12-8.45-1.47-8.77-.26-.24-3.69.18-5.16-.59-2.91-1.51-4.58-3.77-7.79-4.96-2.21-.82-12.12-1.62-12.54-2.13-1.22-1.45,4.88-6.75,1.27-8.91Z" fill="#e68f10"/><path d="M110.98,272.34c-3.53-2.53-1.92-.66-3.28,1.13-4.23,5.58-22.46,23.34-23.59,7.16-.88-12.58,20.66-46.62,24.32-60.53-.97,18.86-.75,33.47,2.55,52.24Z" fill="#0a773e"/><path d="M256.22,194.61c-17.97-14.67-29.5-21.03-52.24-9.57-4.98,2.51-21.04,16.99-22.44,17.1-5.1.4-2.84-13.51-2.16-16.21,3.22-12.69,24.27-25.69,36.68-27.03,19.92-2.16,52.31,11.52,40.17,35.72Z" fill="#062421"/><path d="M262.61,133.44c-28.94-24.66-65.49-17.66-89.18,10.2,6.58-46.86,70.21-55.76,89.18-10.2Z" fill="#052320"/><path d="M349.6,138.21c-3.67-3.97.73-9.28,5.51-9.82,11.13-1.25,26.75,12.05,32.14,21.23,2.77,4.73,8.68,14.52,2.16,17.87-3.85.41-16.55-15.84-21.15-19.27-4.27-3.19-16.99-8.2-18.66-10.01Z" fill="#fadf7e"/><path d="M327.59,162.76c-11.82,3.01-13.23-17.2-4.18-13.11,4.92,2.22,4.35,8.64,4.18,13.11Z" fill="#091c22"/></svg>