<?xml version="1.0" encoding="UTF-8"?><svg id="Layer_1_copy_3" xmlns="http://www.w3.org/2000/svg" viewBox="0 0 612 777.94"><path d="M494.78,43.19c6.57-2.27,9.33,1.33,8.85,7.66-.42,5.5-11.96,46.19-14.52,51.19-4.56,8.89-12.72,4.11-11.22-6.86,1.01-7.4,10.51-40.96,13.62-47.62.86-1.84.92-3.56,3.27-4.38Z" fill="#f7d885"/><path d="M560.52,78.1c6.94-.37,6.37,7.44,3.55,12-1.56,2.52-30.64,30.53-33.08,31.91-7.11,4.03-13.04-1.66-9.6-8.53,1.18-2.36,29.43-29.26,33.07-31.93,1.49-1.09,4.35-3.36,6.07-3.45Z" fill="#f7d985"/><path d="M418.18,48.63c4.73-1.73,7.44.34,9.91,3.92,2.11,3.05,20.46,42.31,20.86,44.84.56,3.49.04,5.63-3.36,7.1-6.27,2.73-8.69-3.39-11.22-7.9-2.54-4.53-18.47-37.44-18.91-40.24-.39-2.51-.1-6.69,2.72-7.73Z" fill="#f6d885"/><path d="M287.99,36.79c10.87,11.34-10.65,25.81-9.45,26.95,36.98,5.8,81.56,27.91,90.26,67.79,1.67,7.66.57,14.67,1.68,21.29.75,4.47,4.66,11.21,5.95,17.02,1.54,6.98,1.41,18.01,2.96,23.29.94,3.21,12.71,11.61,11.82,18.27,1.78-13,4.52-47.37,17.11-54.51,19.78-11.22,101.43,5.15,124.81,12.67,11.04,3.55,44.58,15.87,46.28,28.22.26,1.88-1.32,4.66-1.19,4.87,1.96,3.16,26.07-1.09,28.47,15.85,5.82,41.18-36.42,98.99-79.86,101.2,19.71,31.63,1.14,89.75-33.91,103.92,14.94,10.34,8.3,19.77,10.97,32.22.67,3.11,3.72,3.84,4.36,8.76.69,5.27-1.56,16.14-7.37,17.83-16.93,4.92-74.52-18.51-94.36-21.64-1.4,19.17-8.64,35.46-17.33,52.14-1.81,3.47-7.71,9.83-8.45,12.33-4.49,15.24-1.09,21.62-11.61,37.61-5.44,8.27-11.84,6.78-6.26,20.31,22.92-.88,89.48,6.51,87.34,39.91-1.16,18.03-21.86,8.41-22.91,9.42-1.72,1.67,1.07,10.88-10.66,12.86-14.86,2.5-47.77-13.67-63.98-18.61-9.65-2.94-43.09-8.9-48.43-13.91-11.83-11.08,3.21-28.14,16.98-26.28-2.08-21.08-27.68-7.72-41.05-6.59-16.25,1.37-32.8-.58-48.66-3.79-3.05-.62-13.6-4.7-14.78-4.55-.91.12-11.19,9.94-13.96,11.89-4.82,3.4-15.37,6.9-16.16,11.18-3.1,16.79,7.34,15.35,15.93,24.67,28.83,31.28,3.31,55.87-27.88,28.44-5.32,26.16-45.2,38.96-40.49,2.2-41.15,29.1-47.01-11.26-14.57-33.72,7.47-5.17,24.32-10,27.1-17.71,5.96-16.48.1-12.27-7.63-20.75-3.92-4.3-6.96-10.11-10.36-14.86-15.52,9.37-55.97,26.58-72.18,14.26-3.7-2.81-4.02-8.95-4.42-9.28-1.41-1.15-23.04,7.56-35.75,2.41-31.97-12.97,28.83-43.87,38.46-51.66,13.1-10.59,46.58-47.09,48.27-63.37.19-1.8-8.21-27.31-9.22-33.59-3.93-24.39-3.61-50.91,2.31-74.97,4.75-19.3,14.61-31.93,15.04-52.77.44-21.36-8.23-40.74-9.85-61.33-6.65-84.35,42.12-136.26,109.45-177.07,14.93-9.05,62.17-34.52,77.18-18.85Z" fill="#062220"/><path d="M117.75,263.92c-5.37-34.32-11.81-50.07-2.73-86.41,12.94-51.81,70.64-99.49,116.47-123.08,6.72-3.46,45.36-21.31,49.16-10.77,2.63,7.29-27.86,23.05-32.73,27.73,42.91-1.49,103.41,17.92,112.65,65.64-33.06-43.75-87.21-14.49-102.26,28.45-12.8-77.2-103.43-55.31-85.32,21.87,1.01,4.29,7.14,17.96,7.16,19.03.01.6-8.62,6.14-8.79,8.29,17.15-3.93,31.53-4.84,48.12,2.22l-13.6,13.18c-4.82,7.72-4.08,19.38,2.23,26.06,2.61,2.77,9.77,5.09,10.8,6.71,1.23,1.94,3.85,13.86,5.86,18.21,2.38,5.17,5.72,11.01,8.93,15.68,2.71,6.23,6.55,11.88,11.52,16.94-1.77,5.4,3.38,10.69,7.32,14.59,21.49,21.18,64.29,29.39,81.46-.58,4.07-4.35,6.81-2.5,2.56-1.71-.32.06-.72-.31-1.15-.8,8.17-8.3,15.28-17.03,16.14-29.32.59-8.47-3.97-33.31-1.77-38.89.72-1.82,5.24-2.47,7.53-4.5,13.61-12.03,17.6-32.8,20.2-49.79,22.85,33.58,2.41,73.79-12.56,106.09,4.5.59,9.1-10.2,10.9-8.74,11.45,17.36,24.63,32.71,23.65,55.05-.88,20.18-4.5,6.6-9.16-.07-2.54-3.64-5.2-7.65-8.99-10.14,4.38,17.84,4.13,35.67-2.89,52.36-45.18-.92-92.57-9.61-131.55-33.32-29.01-17.65-65.99-60.74-99.64-62.79-1.84-1.35-3.45-3.43-4.83-6.24-4.61-3.09-23.83-28.97-23.55-30.9.16-1.11,3.36.6-1.15-.05Z" fill="#129149"/><path d="M266.5,384.24c20.27,27.71-18.48,35.61-38.28,27.35-8.18-4.33-16.64-8.38-25.16-12.02,7.2,6.05,14.18,13.2,21.88,18.58,10.23,10.04,6.2,23.92-6.61,29.18-11.69,4.8-25.03,3.68-36.05-1.84-7.97-6.16-15.83-11.97-22.43-19.68,1.21,6.18,7.29,11.91,11.49,16.4l1.25,3.23c22.19,18.23-14.24,24.59-26.4,16.46-5.27-4.52-10.11-8.32-15.31-13.13-.74-2.72-1.93-4.68-4.97-6.16-12.16-13.91-18.32-31.74-22.36-49.51l-2.19.98c-1.64-51.42,13.42-108.37,75.81-71.98,31.84,18.57,52.73,46.01,89.36,62.13Z" fill="#12914a"/><path d="M452.45,302.2c-14.73-21.06-18.52-49.76-17.54-74.97.23-5.88,4.97-31.68,3.9-34.37-.46-1.15-19.46-15.2-20.26-14.25-2.18,15.49-5.6,30.73-4.43,46.53,1.9,25.71,19.6,41.72,25.21,66.11-36.24-20.46-46.86-77.95-33.11-114.59,3.14-8.38,4.37-12.27,14-13.35,17.81-2,13.27,7.19,21.86,18.56l4.93-18.6c4.99.88,10.27,1.67,15.3,2.19l2.28.7c-.97,6.49-2.18,12.96-3.64,19.41,10.76,8.84,17.89-7.45,18.67-17.06l2.38-.86c22.2,3.62,46.15,9.47,66.72,18.59-1.09,2.59-.93,5.53.51,8.81-5.93,45.32-29.41,97.97-75.64,113-11.05,3.59-14.9,4.15-20.1-7.18l-1.02,1.32Z" fill="#f3b019"/><path d="M218.37,252.97c-2.36,2.54-15.12-15.29-.35-26.06,4.66-3.4,12.28-5.18,17.12-8.04,24.5-14.45,22.45-37.32,34.47-59.6,44.94-83.33,124.81-8.51,92.26,71.47-1.38,3.39-6.61,16.61-10.54,13.43-3.77-3.04-8.74-13.68-13.8-17.92-24.48-20.47-46.09,8.94-69.49,11.28-21.11,2.1-35.86-16.72-48.81,10.26-.78,1.62-.86,3.42-.84,5.17Z" fill="#f5ab11"/><path d="M325.57,481.58c12.23-6.49,28.06-17.47,18.59-32.81,15.93-.88,47.5-20.1,47.08-37.7-.13-5.37-5.11-10.01-5.19-10.97-.1-1.12,7.43-17.78,7.32-21.33,1.15,9.11,8.79,24.42,7.65,33.25-1.13,8.82-21.75,22.25-20.88,35.11.61,8.93,16.45,10.16,16.55,15.2.25,13.56-11.3,38.32-18.62,49.88-2.46,1.96-3.53-.13-2.78-2.95-27.83,26.61-70.01,42.47-108.74,44.04-7.4.3-32.23,0-36.76-4.17-.6-.56-1.1-1.22-1.57-1.92-.63-.17-1.62.19-2.19,0-2.62,1.73-3.67.48-2.19-2.19-.59-10.62,3.66-15.72,12.14-22,32.03-6.03,64.99-14.67,89.17-38.54.93-.92,1.18-1.78.41-2.9Z" fill="#efc01d"/><path d="M226.03,547.21c-18.26,20.81-35.53,45.38-67.03,32.57-30.74-12.5-34.93-61.06-32.5-89.45,9.85,7.98,39.47,29.99,49.47,13.93.93-1.5.42-5.14,1.37-5.17,1.96-.07,29.05,12.68,36.65,14.21l1.43,2.47c-3.22,9.68-.9,20.63,7.94,26.42l.47,2.83c.73.4,1.66,2.01,2.19,2.19Z" fill="#08763f"/><path d="M228.22,411.58c10.97.5,38.72,4.34,41.49-11.55,1.34-7.68-2.75-9.41-3.21-15.79,35.21,15.5,73.28,19.99,111.27,23.82,10.97,9.42-11.33,23.92-19.75,27.77-45.02,20.63-90.67-3.52-129.8-24.25Z" fill="#036754"/><path d="M182.28,445.49c3.7-2.31,7.45,1.82,11.46,2.21,20.86,2.06,43.38-4.49,31.2-29.56,20.46,14.31,50.63,27.19,75.28,31.37,13.62,2.31,59.25.81,25.7,22.03-46.22,29.23-105.12,3.72-143.63-26.05Z" fill="#036854"/><path d="M60.88,569.07c-1.13-2.21,20.17-16.6,22.97-19.11,4.53-4.06,33.59-34.17,31.7-37.74-10.5,5.58-18.17,16.89-27.91,25.12-13.58,11.46-30.92,23.4-49.21,25.16-3.67.35-22.68,1.21-22.28-3.64,11.52-13.72,28.81-20.81,43.05-32.46,20.35-16.65,38.16-37.27,49.25-61.21.97.2,7.83,11.05,8.15,12.63,2.41,12.08-.62,32.48,1.19,46.94,1.2,9.65,4.6,18.78,6.41,28.26-16.57,12.96-42.47,25.25-63.31,16.04Z" fill="#03594b"/><path d="M487.44,398.46c5.78-22.6-36.01-16.53-35.75-32.1.34-20.01,40.93-21.07,53.17-11.01,2.85,2.34,4.15,7.39,7.74,9.2-3.36-21.75-29.5-28.91-48.11-22.97-1.17-29.17,48.17-32.09,58.56-8.8,8.8,19.72-4.66,61.57-20.81,75.55-3.26,2.82-15.35,10.98-19.23,8.25-1.55-1.09-7.53-27.62,4.42-18.11Z" fill="#036854"/><path d="M212.35,125.64c36.33-.48,50.12,59.98,25.19,82.52-12.06,10.91-12.12,3.41-24.65-.57-17.8-5.65-25.69,2.15-32.2-19.21-7.41-24.3.04-62.33,31.66-62.75Z" fill="#f9e6a8"/><path d="M251.59,305.08c-12.74-12.93-36.97-48.02-19.52-64.12l21.52,35.33c16.42,23.79,51.46,45,78,23.72l2.75-62.35,6.64,7.02c-1.76,25.59,11.84,58.08-13.29,75.49s-57.27,4.01-76.09-15.09Z" fill="#f5ac10"/><path d="M312.45,298.91c-2.52-17.57-18.74-32.06-36.63-32.86-4.3-.19-16.21,3.28-16.96,2.86-1.52-.84-19.9-27.92-18.6-29.05,15.24,3.7,28.86,4.79,44.04-.26,7.59-2.52,36.75-22.72,40.14-6.83,1.62,7.61-1.85,54.32-4.99,60.58-.51,1.02-5.9,6.74-7.01,5.56Z" fill="#4b1e1a"/><path d="M378.07,512.21c-33.56,52.98-100.47,70.13-158.6,50.3l8.75-15.3c44.5,12.04,101.07-4.19,136.63-31.27,1.74-1.33,17.4-17.89,14.88-9.21-.3,1.05-4.42,3.99-1.66,5.47Z" fill="#d7a60c"/><path d="M560.74,192.82l2.39,2c-1.03,13.08-2.65,26.14-4.87,39.18l-15.09,35.46c-2.66,2.67-4.68,5.7-6.06,9.08-4.57,4.27-6.19,8.52-8.09,13.81-2.39,2.77-16.33,17.91-18.3,18.43-2.79.73-6.95-1.95-10.63-2.06-14.41-.44-28.63,3.51-39.43,13.16-.68-8.54-5.3-12.73-8.2-19.68-.66-1.57-2.42-5.07-1.65-6.55,4.54.21,8.02,11.79,8.94,12.07,8.86,2.73,31.19-9.49,38.57-14.9,25.11-18.4,46.7-67.13,48.72-97.73.18-2.68-4.43-7.5,1.67-8.83,5,2.22,7.51,3.82,12.03,6.56Z" fill="#e5900f"/><path d="M176.81,598.62c1.16,23.55,1.44,12.42,16.31,24.71,6.85,5.66,15.98,19.3,10.32,27.66-14.87.05-25.67-12.63-33.18-23.92,2,9.58-12.12,43.05-25.18,35.55-9.09-5.22,2.25-30.8,7.66-36.65-6.05,2.77-39.04,28.89-43.25,25.29-6.1-24.65,27.33-32.55,43.26-42.8,2.95,3.34,8.73,4.08,13.06,1.4l7.71,1.46.12-15.64c3.17-4.03,4.57-1.01,3.17,2.93Z" fill="#f4ab14"/><path d="M146.18,461.9c6.6,1.24,33.11,3.87,31.54-7.96-.63-4.71-9.27-6.89-6.38-11.73,7.03,7.52,18.56,18.03,27.02,23.85,12.25,8.42,38.51,16.97,46.83,24.27,11.89,10.44-6.72,15.35-15.33,15.4-32.63.18-60.79-24.18-83.67-43.83Z" fill="#036855"/><path d="M356.19,593.15c20.22.93,42.31-.7,61.53,6.83,9.74,3.81,23.7,12.94,21.59,24.89-23.45-5.07-42.96-20.07-67.81-21.87,8.12,6.27,45.45,17.58,45.95,29.07.37,8.59-14.83,2.45-19.64.94-20.64-6.48-38.29-14.42-60.21-20.18-1.27-4.24.15-6.12,2.87-9.27,3.11-3.61,11.41-10.57,15.73-10.42Z" fill="#f3ab14"/><path d="M433.84,321.89c-3.54,6.57-9.21,11-11.43,18.63-4.63,15.92-1.82,37.92,18,38.24,1.73,2.46-9.74,25.39-13.63,27.44-3.4,1.8-11.96-1.36-16.3-.03-.34-5.62-9.48-26.7-9.04-30.16.14-1.12,3.19-3.38,3.87-5.57,6.8-21.89,1.27-41.78-10.82-60.58,12.12,6.18,25.34,12.35,39.36,12.03Z" fill="#08733e"/><path d="M325.57,481.58l4.37.54c-16.41,21.53-45.06,30.54-70.03,38.26-6.55,2.02-18.2,2.74-22.96,4.58-1.17.45-9.5,9.08-9.9,9.95-1.41,3,.92,10.21-3.2,10.12-11.57-6.31-14.57-19.87-9.84-31.72,16.58,3.34,49.57,3.31,42.66-21.86,23.49,4.21,47.73,1.37,68.91-9.86Z" fill="#efc01d"/><path d="M520.38,304.81c10.82-13.4,27.2-17.84,39.43-29.28,14.54-13.6,23.43-34.08,24.5-53.83h-13.86c3.61-12.37.25-13.92,14.36-12.76,12.39,1.02,13.93,3.18,13.38,15.46-1.74,38.87-37.86,79.28-77.81,80.4Z" fill="#f3af1c"/><path d="M101.34,394.08c.17-2.83,1.25-9.18,2.17-12.02,4.18,22.7,11.51,48.94,29.52,64.55l-2.16,2.16c-.59-.55-5.62-6.77-5.46-2.75,7.29,9.55,13.84,19.48,21.84,28.48,7.34,8.26,18.38,13.81,21.45,24.61-3.15,5.97-20.28-4.35-23.95-6.79-28.06-18.74-45.35-65.47-43.41-98.24Z" fill="#08723d"/><path d="M395.58,246.42c7.34,19.72,16.05,34.44,31.7,48.68,3.81,3.46,18.5,12.25,19.19,15.87,1.48,7.65-29.15-.92-32.87-2.19-10.57-3.61-21.09-10.26-29.58-17.54l11.56-44.81Z" fill="#fff"/><path d="M497.16,472.69c-4.42,3.21-94.41-22.19-105.95-26.64,1.74-1.45,2.49-6.08,3.8-7.14,4.97-4.01,37.15,4.8,44.77,6.66,7.64,1.87,56.96,15.44,58.49,20.34.32,1.03-.77,6.52-1.12,6.77Z" fill="#7f4e26"/><path d="M233.69,296.73c17.28,25.04,44.93,43.54,76.83,39.09,10.09-1.41,16.59-7.45,24.9-10.65,1.03-.4,3.71-1.84,4.37-.55-3.92,2.25-5.5,7.51-7.84,10.21-.29.34-3.47,3.64-5.25,5.14-24.54,20.74-71.04,4.43-84.09-21.58-.71-1.41,1.08-3.28.66-3.96-3.02-4.86-10.29-11.94-9.57-17.71Z" fill="#129149"/><path d="M445.89,417.05c15.67,3.24,55.3,14.49,49.21,36.09-18.56-5.53-36.94-12.9-55.78-17.5-.78-.29-1.5-.78-1.75-1.62-.29-.95,5.55-18.04,8.31-16.98Z" fill="#eea616"/><path d="M356.19,593.15c-4.92,5.19-12.27,8.77-16.51,14.74-1.14,1.6,1.28,3.84-2.08,4.95-4.93-1.3-25.85-3.98-27.19-8.44-2.87-9.56,17.75-9.1,22.82-10.16l-3.29-15.3c19.52-.83,23.55-10.74,26.25,14.21Z" fill="#e79010"/><path d="M473.24,388.62c-1.79,9.45-2.4,18.93-1.11,28.43l-36.06-9.29c5.72-8.24,10.01-17.77,10.92-27.9l26.25,8.77Z" fill="#e89a13"/><path d="M454.54,347.98c-.15.31-4.6,1.96-5.9,3.46-4.76,5.45-6.85,11.17-6.04,18.57-28.1-.42-7.7-48.85,7.1-47.08,3.18.38,5.43,23.87,4.84,25.05Z" fill="#046853"/><path d="M280.18,271.57c10.74,1.65,28.36,15.93,25.14,28.46-17.64-2.49-34.43-12.79-43.19-28.46,5.6.6,12.67-.83,18.05,0Z" fill="#ea3e34"/><path d="M530.08,290.89c-2.56-1.16,1.2-3.05,1.11-4.79-.05-.93-2.36-.11-2.17-1.06.34-1.71,5.96-7,7.17-8.77,1.96-2.85,1.68-8.22,4.5-5.65l15.82-36.96c-.22-13.2,6.66-26.92,4.48-39.74,1.56.94,6.21,1.91,7.45,3.74,3.6,5.35-3.54,26.99-5.64,33.76-7.07,22.76-17.19,41.46-32.71,59.47Z" fill="#e5900f"/><path d="M147.28,301.11c-9.8-.6-18.71.57-27.34,5.46,2.45-14.23.01-28.57-2.19-42.65,1.37-1.25.59-3.34,2.68-1.04,4.24,4.67,8.95,14.01,13.28,19.54,4.05,5.18,14.19,12.18,13.58,18.69Z" fill="#09753d"/><path d="M152.75,608.47c1.42-5.74,5.55-11.74,4.38-18.6l21.87,2.21-2.19,6.55c-.06-1.21.75-3.56-1.08-3.28l-.03,18.59c-.21.49-9.38-2.07-10.46-2.06-.48,0-.47,2.12-1.13,2.13-3.57.05-7.93-1.9-12.46-.08,1.29-1.78.7-3.87,1.09-5.46Z" fill="#e58c0f"/><path d="M322.29,570.17l47.02-30.61c-2.58,24.96-24.38,33.55-47.02,30.61Z" fill="#097640"/><path d="M481.98,167.66c-2.03,11.42-5.36,25.62-20.24,21.87-8-2.01,2.69-18.5.55-24.06,6.56.69,13.18,1.13,19.69,2.19Z" fill="#fbe087"/><path d="M445.89,417.05l-6.56,18.59c-5.65-1.38-11.77-2.13-17.5-3.28-3.96-4.04,2.42-16.29,7.66-17.5,6.46.2,10.24.91,16.41,2.19Z" fill="#f8de82"/><path d="M429.48,414.86c-3.37,5.32-6.99,11.08-7.66,17.5-6.9-1.38-14-1.91-20.78-3.82,10.32-13.37,11.57-14.19,28.43-13.68Z" fill="#f0ac16"/><path d="M427.28,240.94c-7.39-14.36-4.18-31.56-3.26-47.02,9.11,1.7,3.48,16.66,3.23,23.47-.29,7.82.3,15.73.03,23.55Z" fill="#f0f0f0"/><path d="M574.72,232.37c2.5,2.43-13.82,34.24-20.23,36.22l16.56-35.11c.38-1.34,3.32-1.45,3.67-1.11Z" fill="#f0f0f0"/><path d="M462.29,260.63c-1.99.41-2.71-1-3.75-2.25-8.06-9.65-6.87-51.21-.67-61.78,3.63-6.18,13.79-4.51,14.23-.02.15,1.54-7.67,23.75-8.55,29.77-1.61,11.01-2,23.35-1.26,34.29Z" fill="#fbe086"/><path d="M320.45,144.36c-.96-1.14-1.64-2.54-.92-4,10.16-13.47,37.87,17.92,31.81,26.26-3.8,5.23-12.65-9.78-15.91-12.64-3.6-3.17-13.05-7.34-14.97-9.62Z" fill="#fadf7c"/><path d="M304.52,152.62c2.63,2.66,2.01,11.23-3.13,10.17-7.75-1.6-4.18-17.58,3.13-10.17Z" fill="#0c1c21"/><path d="M210.41,148.21c27.87-6.55,35.69,60.63,1.34,53.96-23.97-4.65-18.58-49.91-1.34-53.96Z" fill="#052421"/><path d="M225.76,161.37c3.22,3.27,2.07,9.82-4.59,8.47-8.78-1.78-1.55-14.71,4.59-8.47Z" fill="#f2e8b6"/></svg>