<?xml version="1.0" encoding="UTF-8"?><svg id="Layer_1_copy_4" xmlns="http://www.w3.org/2000/svg" viewBox="0 0 612 777.94"><path d="M403.45,52.16c80.67,20.16,120.72,98.71,114.17,178.4-.47,5.78-5.4,21.52-5,24.32.35,2.52,8.67,14.92,10.51,20.67,5.91,18.44,6.38,34.52-1.65,52.25-2.26,5-14.18,19.54-14.31,20.8-.26,2.52,7.43,19.94,8.74,24.96,19.58,75.3-.08,148.47-48.25,207.81-6.25,7.7-20.1,18.91-24.59,25.99-7.63,12.03-8.25,23.12-20.18,35.59-2.65,2.77-19.44,14.32-19.58,15.57-1.33,11.69,16.12,8.73,23.77,10.1,22.94,4.11,74.38,12.21,74.96,43.14.5,26.55-27.01,13.61-28.54,14.85-1.44,1.16.79,11.89-10.62,14.68-14.7,3.6-54.11-15.88-70.1-21.52-11.36-4-52.4-13.91-57.96-19.86-12.75-13.65,4.96-32.46,20.65-30.38-2.12-22.36-15.5-12.14-29.22-11.7-20.5.67-36.02-.47-55.93-4.96-9.73-2.19-16.2-10.83-22.51,4.46-2.12,5.14-1.52,18.36,1.46,23.07,3.59,5.67,33.63,12.13,44.55,21.6,25.43,22.04,17.57,61.2-18.75,38.87-.27,30.88-24.79,21.76-40.9,7.81-4.24-3.67-16.86-19.76-19.73-20.56-9.87-2.74-22.98,21.43-39.61,13.73-18.82-8.72-1.34-37.66,9.42-47.04,12.63-11.01,22.01-8.32,15.55-31.76l-27.33,26.46c-19,13.23-42.11,25.13-65.64,17.9-1.92-.59-3.69-3.67-4.92-3.78-.92-.08-12.13,5.77-15.17,6.52-15.75,3.91-42.85,4.46-38.36-18.92,2.21-11.52,37.8-40.34,47.71-50.85,6.78-7.19,12.43-15.68,19.42-22.72-5.87,3.38-14.36,1.33-19.42,3.26-2.61,1-11.26,12.1-14.98,14.85-24.27,17.89-28.06-8.66-26.38-27.68.88-9.98,14.26-49.45,13.77-52.1-.19-1.03-5.83-4.14-7.45-6.43-23.91-33.81-2.47-144.53,11.08-183.46,14.35-41.21,36.89-73.11,70.34-100.86-9.37-129.36,103.33-240.9,229.22-246.77,24.73-1.15,62.2,4.21,31.75,33.68Z" fill="#062220"/><path d="M193.34,521.69c31.38-57.88,51.77-134.52,21.23-196.97-14.1-28.83-37.6-46.07-70.53-46.21,2.01-1.49,4.31-2.36,5.9-4.49,6.59-8.82,5.42-40.04,7.29-53.66,12.95-94,86.67-164.72,177.71-185.45,9.71-2.21,66.53-12.11,68.46-.09,1.14,7.12-37.25,16.47-42.74,19.95,86.98,4.36,149.11,72.45,145.26,159.55-3.13,3.2-48.67-11.85-53.58-16.77-.69-.69-5.09-13.09-5.77-15.32-.98-3.21,1.58-9.14-2.89-8.12l-3.92,20.75c-33.73-6.5-53.29,20.21-68.71,45.39,10.02-20.12,10.78-48.54.72-68.82-2.53-5.09-6.24-8.71-11.75-10.31-.09,7.18,8.11,21.27,7.15,27.91-.55,3.81-21.7,13.92-26,15.52-23.95,8.92-47.07,7.84-72.07,9.67-2.32,55.08,51.97,80.14,91.54,40.29-14.89,22.01-70.36,53.53-58.66,85.26,5.92,16.06,33.39,10.87,47,12.01-1.89,2.76-5.35,4.07-10.38,3.95,20.12,18.66,79.4,26.84,99.9,8.67,1.56-3.77,3.72-5.38,6.46-4.84,4.67,6.46,11.33,1.9,17.24-1.56,15.75-9.2,28.28-35.33,31.46-52.84,2.91-16.02-3.26-33.96,12.26-42.25,11.57,19.93,14.24,44.64,3.15,65.45-5.79,10.87-17.07,17.52-22.62,28.6,2.84,1.69,10.73-3.2,11.65-2.58,1.29.86,7.64,26.01,8.46,29.82,9.91,45.75,5.78,94.01-14.91,136.18,8.47-35.82,8.76-76.88-.88-112.62-1.01-3.74-2.56-9.33-5.62-11.89v26.59c0,10.09-22.23,42.72-36.31,39.56-.36-11.04.62-25.79-6.47-35.02,1.41,18.4-7.75,51.93-26.38,59.88-37.28,15.89-69.29-44.35-83.23-70.25l12.97,45.4c-16.7-1.5-32.2-9.3-44.58-20.27-3.33-2.95-18.8-22.14-20.26-22.54-1.37-.38.39,3.21-1.92,2.58l-2.63-6.46c-2.26-.59-.93,2.38-1.28,2.58-2,2.55-1.28-.56-1.22-.41,11.91,32.42-17.31,92.82-31.94,122.66-7.33,16.67-13.69,34.62-11.49,53.05l-2.04,3.68c-8.8,1.5-20.2-7.69-27.3-13.54-8.21-6.75-22.03-19.88-22.57-30.14,5.37-10.34,10.32-20.85,14.85-31.54Z" fill="#11904a"/><path d="M275.05,417.93c12.09,23.33,41.67,56.26,70.6,53.08,2.95-.32,6.56-3.81,8.54-3.17,1.53.49,16.67,18.31,22.92,22.48,19.41,12.94,38.85,14.31,55.53-3.64,3.88-4.18,8.98-16.27,9.75-16.87.53-.41,8.74,1.7,13.28.98,16.38-2.6,24.69-20.92,32.07-33.4,5.7,46.49-3.03,88.85-27.22,128.4-1.15-1.92-2.69-1.13-4.63,2.37-61.07,54.49-150.39,65.28-224.94,35.25-3.8.79-5.79-4.01-2.59-6.48-7.14-37.88,24.93-78.23,35.93-113.87,6.36-20.59,11.05-45.02,8.18-66.42.21-.36,2.46,1.38,2.58,1.3Z" fill="#efc01d"/><path d="M206.31,463.32c-6.87,21.76-44.09,32.95-37.61,0,.04-7.36,2.19-14.6,1.28-22.04-2.85,6.11-4.33,13.04-6.47,19.45l-2.52,1.59c-2.54,8.77-15.88,21.6-25.33,19.85-24.63-4.57-22.81-26.75-18.83-46.08.27-5.35,2.03-10.29,2.58-15.56-2.4,3.21-6.24,9.48-7.77,12.97-16.74,30.59-47.55,10.54-40.21-19.45,9.06-45.47,47.7-169.73,114.57-110.03,41.06,36.66,34.73,111.96,20.32,159.31Z" fill="#12924a"/><path d="M431.98,334.92c.35.79,1.63,2.28,1.29,2.58-12.73,2.18-25.23,6.92-38.22,7.84-10.7.76-21.13-1.42-31.11-1.4-11.24.02-40.23,3.19-48.3-.98-17.75-9.18,3.38-36.43,11.91-45.66,11.04-11.94,26.33-20.9,37.64-33.7,18.44-20.89,29-56.49,60.97-59.65,46.8-4.63,63.21,60.33,57.52,96.43-1.72,10.91-16.77,52.29-31.36,48.9-1.53-.35-12.47-21.96-16.5-26.63-30.96-35.83-93.48-20.9-116.68,16.15,14.57-4.53,25.85-14.85,40.23-20.06,24.05-8.71,48.71-10.16,67.41,9.7-1.49,1.5-3.24,2.54-5.26,3.09-24.74-.71-48.59,1.49-71.56,6.61-9.87-1.51-17.98,0-24.35,4.56l1.19-1.89c25.11-.84,50.35-1.08,75.73-.7l1.54,2.59,1.88-2.76c7.74-1.74,15.35-3.98,22.83-6.73l3.18,1.71Z" fill="#f4ab11"/><path d="M116.81,436.08c-.4,7.95-.81,32.14,5.51,37.3.63.51,13.13,6.36,14.37,6.36,9.97.02,22.13-13.43,24.23-22.9l2.57,3.88c-12.19,36.55-30.25,77.46-49.07,111.11-4.98,8.91-36.71,61.82-46.15,58.76-6.98-10.92.42-27.72,1.4-39.95l47.12-154.56Z" fill="#036854"/><path d="M228.35,596.91c.35,1.88,1.93,4.46,2.59,6.48l3.32,1.67c3.29,9.63,9.36,17.66,17.91,23.23l.82,3.63c-8.82,21.27-35.81,24.25-55.51,18.54-15.57-4.51-48.29-37.45-52.78-52.35-2.15-7.12,15.65-24.53,20.38-31.41,9.52-13.85,20.28-30.34,28.25-45.03-.1,12.05-10.6,22.05-12.78,34.18,10.76,18.17,28.46,32.9,47.79,41.04Z" fill="#09753f"/><path d="M230.95,603.39c1.85-2.9.67-2.43,3.53-1.71,6.92,1.74,14.95,6.09,22.13,7.82,72.15,17.36,131.23,6.13,190.8-36.72,2.88-2.07,14.58-16.64,13.1-7-38.04,62.18-141.03,107.94-207.52,66.15-11.76-7.39-17.74-15.38-22.05-28.53Z" fill="#d6a60c"/><path d="M138.85,604.7c6.43,23.17,29.19,41.75,49.25,53.8-15.9,22.68-47.8,44.14-76.48,39.56,10.99-10.65,23.03-20.87,32.42-33.06,1.88-2.44,14.72-21.3,15.03-22.62,3.68-15.89-20.9,16.77-22.14,18.1-15.26,16.27-43.25,42.56-67.12,41.13-3.19-.19-12.38-1.99-12.13-6.23.47-7.87,39.08-40.68,46.82-49.17,10-10.96,21.35-30.76,30.49-39.55,1.25-1.21,1.66-2.48,3.86-1.96Z" fill="#03594a"/><path d="M168.69,463.32c-.11,20.97,12.31,22.65,27.43,11.21,5.26-3.98,5.19-8.98,10.19-11.21-9.47,31.12-23.56,59.18-41.75,86-15.37,22.65-35.14,50.28-61.35,60.57,26.36-46.69,50.08-94.96,65.48-146.57Z" fill="#036955"/><path d="M381.4,660.46c1.96-.05,11.23-.38,11.66.02.62.58,1.27,15.57,2.76,16.69,1.36,1.02,28.55,2.25,33.85,3.12,21.22,3.47,61.29,9.37,60.68,37.25l-76.52-27.23c10.36,5.09,45.56,21.71,47.77,33.36,1.3,6.87-4.16,5.81-9.36,5.39-15.18-1.23-51.65-18.77-68.87-24.52-8.63-2.88-31.11-6.81-36.99-10.35l1.62-2.33,20.98,3.8c-1.27-11.02,12.51-17,21.59-19.94l-1.06-11.25c-6.03.9-8.73-.44-8.11-3.99Z" fill="#f4ab13"/><path d="M211.49,685.1c2.63.15,4,2.12,4.11,5.89,7.64-.22,14.92-1.31,21.83-3.28l2.59,1.28c7.19,10.71,39.72,9.8,52.42,28.64,4.53,6.72,9.4,20.85-3.16,17.43-6.22-1.7-43.01-32.65-45.36-30.49,5.04,6.26,29.02,38.44,18.15,44.78-12.25,7.15-35.92-32.47-46.38-34.17-11.09-1.81-40.9,30.72-37.62,7.22,2.84-20.36,28.98-20.98,33.43-37.3Z" fill="#f4ac14"/><path d="M71.42,414.04c-.34,28.84,18.08,44.74,40.21,19.45-15.36,35.17-21.62,78.02-39.56,112.81-7.11-9.45-8.99-23.96-9.79-35.57-2.23-32.3,2.88-65.23,9.14-96.69Z" fill="#036855"/><path d="M444.95,359.56c-2.41,2.4-2.98,5.56-5.82,7.8-19.96,15.75-68.12,9.77-89.73-1.1-6.6-3.32-12.1-8.97-18.58-12.55,5.25.25,13.66-1.93,18.15-1.94,14.34-.03,30.17,4.3,44.79,3.94,8.25-.2,42.86-8.33,46.66-5.25,1.36,1.1,3.01,6.99,4.52,9.09Z" fill="#08713b"/><path d="M277.65,220.79c10.59,2.93,21.49,2.81,32.41,2.6-11.43,54.97,56.19,32.66,35.06-8.45l23.3-11.01c2.32,63.44-79.61,91.95-90.76,16.87Z" fill="#f9e7aa"/><path d="M426.79,328.44c1.95,2.08,3.96,3.67,5.19,6.48-6.4,1.96-22.05,7.78-27.89,7.78h-78.47c.43-10.35,16.09-6.03,24.02-7.13,5.78-.8,13.3-3.65,18.45-4.19,18.89-1.97,39.73-.9,58.69-2.94Z" fill="#e7910e"/><path d="M381.4,660.46c1.63,2.82,9.58.5,10.38,1.29.56.55.18,13.13,2.59,15.56-4.62,1.11-14.19,4.79-18.27,8.34-.32.28-4.95,6.3-5.06,6.7-1.1,3.78,4.07,2.65,2.57,7.01l-27.23-5.18c-16.94-10.2,16.56-16.33,23.35-15.57l-3.9-16.85c5.28.02,10.27-1.16,15.57-1.3Z" fill="#e68e0f"/><path d="M211.49,685.1c-.65-6.95.16-14.46-.08-21.44l26.02-3.19c-2.21,6.08-.83,23.42,2.59,28.52-7.16,6.13-18.71,1-27.23,6.48,1.31-3.66-1.07-7.87-1.31-10.37Z" fill="#e68f0f"/><path d="M364.54,651.38l59-28.55c-5,12.83-25.36,28.55-38.89,28.55h-20.1Z" fill="#097940"/><path d="M505.92,224.68c-.85,11.95-3.21,25.61-12.96,33.72-6.54-12.34,2.6-22.62-1.31-35.01l14.27,1.29Z" fill="#f6e6ad"/><path d="M281.54,165c23.85-9.92,52.28-11.89,72.63-29.16,3.94-3.34,13.8-17.27,14.92-17.52,3.99-.87,4.77,9.51,4.56,12.28-2.24,29.38-69.71,38.72-92.11,34.4Z" fill="#062220"/><path d="M494.23,167.59c-25.41,5.77-66.1-13.12-63.54-42.78,13.98,14.4,26.74,24.75,44.92,33.53,1.86.9,20.25,6.54,18.62,9.25Z" fill="#052220"/><path d="M435.43,218.5c12.48-.92,39.49,37.2,27.69,43.2-1.51.77-2.42.94-3.94.01-1.08-.66-9.82-17.06-13.74-21.32-2.69-2.92-13.09-9.56-14.09-11.84-1.73-3.97-1.07-9.67,4.07-10.05Z" fill="#fade7a"/></svg>