<?xml version="1.0" encoding="UTF-8"?><svg id="right" xmlns="http://www.w3.org/2000/svg" viewBox="0 0 612 841.89"><path d="M206.28,685.83c-.02.07-.94-.21-1.14.65-.98,4.22-1.8,8.66-.99,13.02,8.25,4.26,17.33,4.12,25.78,8.06,22.38,10.43,49.17,49.22,5.51,46.42.27,19.94-24.2,13.99-35.24,8.47-13.26-6.64-27.83-27.51-40.28-29.63-14.69-2.5-52.99,20.48-57.65-7.11-2.19-12.95,10.72-22.38,20.57-26.04,11.73-4.36,24.31-3.66,36.08-7.66,3.44-2.45,8.87-22.15,7.15-25.1-.5-.86-5.3-4.23-7.04-6.31-8.96-10.73-7.89-7.95-18.85-14.94-11.79-7.51-23.48-15.79-31.51-28.06-7.53,1.35-14.38,5.5-22.08,6.23-6.02.58-12.95-1.88-17.28-1.08-3.41.63-14.35,8.2-19.87,10.11-11.34,3.92-34.26,7.57-30.68-12.99.79-4.53,6.5-12.98,6.71-15.49.41-4.96-1.56-14.5-1.14-21.39,1.63-26.39,13.3-48.88,17.2-72.25,1.65-9.91,1.37-21.33,3.15-31.93,8.47-50.57,36.45-102.54,72.55-135.6-7.1-18.93-8.5-38.75-4.27-58.71-28.67,8.2-25.34-25.78-13.99-42.9-9.31.66-17.87-5.68-16.98-16.48,1.34-16.13,33.28-35.73,44.42-46.6,13.58-13.24,19.37-28.08,30.85-42.35,33.59-41.72,108.3-77.05,159.2-78.9,17.37-.63,47.86,1.19,30.96,27.8,30.87,6.2,58.11,26.78,72.92,56.78,9.92,20.09,14.67,44.81,15.76,67.49.2,4.21-1.39,12.73-.98,14.91.93,4.95,13.84,17.25,13.78,24.9,2.72.64,1.86-.4,2.59-1.62,9.74-16.27,19.63-55.58,22.71-75.1,1.76-11.15,2.82-42.19,7.85-49.56,8.28-12.14,24.03-1.39,30.95,7.06,19.25,23.52,20.51,62.28,14.03,91.45,3.18.77,1.99-1.04,2.88-2.5,9.12-14.92,25.08-50.88,43.77-27.78,16.18,27.73,8.28,65.03-3.5,93.39-.07.32-.76.57-.88,1.07-1.6,6.5,4.41-.66,5.88-1.35,29.18-13.74,28.89,12.27,22.67,34.63-6.64,23.89-22.01,46.13-38.15,63.47-1.18,2.97,4.28,1.6,6.14,2.17,15.12,4.72,5.93,25.05-.04,34.7-10.5,16.97-29.78,30.74-47.99,35.78,3.01,14.9-3.81,21.63-13.54,30.16-13.4,11.74-30.03,20.45-46.06,27.14-16.3,63.17-59.94,115.35-114.29,143.26-9.14,2.45-9.37,8.46-5.87,17.99,1.73,4.72,3.68,8.44,9.16,8.5,21.45-.59,41.74,3.2,60.86,11.36.25,1.55,16.22,7.15,17.53,19.53,1.41,13.32-9.51,16.58-19.87,15.8,2.4,27.08-27.59,15.24-41.42,10.13-22.28-8.23-35.82-16.44-60.64-18.94-9.49-.96-35.68,2.88-37.83-12.08-2.56-17.78,18.01-22.42,30.26-23.28-.67-3.27-2.16-9.44-4.67-11.35-21.92,2.25-43.78,3.55-65.7-.49-5.34,2.51-10.81,4.33-16.42,5.46l-3.03,7.65Z" fill="#101610"/><path d="M570.2,284.5c1.99-9.19,6.28-17.7,8.32-26.97,4.81-21.87,5.48-46.29-4.82-66.42,1.1-3.03,4.39,5.28,5.23,7.59,9.19,25.29,3.6,62.64-8.73,85.8Z" fill="#f1d752"/><path d="M178.29,555.84c10.98-15,22.54-38.47,30.93-55.51,16.45-33.42,26.46-83.21,2.29-114.86-3.09-.25-1.18.53-.82,2.15,5.85,26.4,8.49,41,3.21,68.55-3.9,20.34-21.63,66.59-42.56,71.4-14.96,3.44-3.87-21.36-2.68-29.5.2-1.35,1.37-5.55-.85-5.34-8.36,22.28-26.1,48.68-49.35,52.79-13.36-12.46.97-34.94,2.1-50.27-7.19,10.16-14.32,20.76-24.02,28.28-39.23,30.43-16.09-31.51-11.57-49.74-9.92,10.92-17.06,31.04-32.64,32.82-.29-28.4,8.76-57.11,19.99-82.49,11.05-24.97,40.3-76.53,69.24-76.53h21c.67,0,3.12,2.73,4.08.64-9.16-8.58-22.54-7.63-33.81-5.68.14-9.49,1.31-19.48,5.83-27.75-1.81-2.03-13.63,13.02-12.84,16.39-2.73,2.27-5.69-17.89-5.8-19.58-1.28-19.09,3.64-41.18,10.47-58.66-5.5,2.2-23.5,27.33-29.08,21.38-3.88-21.11,13.46-35.94,23.26-51.66-6.05,1.55-28.08,11.33-32.17,5.09-2.02-3.08,10.95-16.01,13.49-18.37,8.57-7.97,18.9-13.95,27.39-22.1,16.23-15.58,23.42-36.13,38.35-52.53,32.95-36.2,115.45-72.18,162.17-65.92,2.53.34,7.55.86,7.81,4.29.63,8.3-23.68,16.3-28.08,22.07h32.08c1.86,0,17.15,6.03,20.04,7.34,47.13,21.43,63.14,73.22,59.33,125.32,18.95,26.32,31.35,58.82,23.77,92.52-5.24,23.29-21.16,48.75-39.57,61.94,8.6,1.19,15.96-5.96,22.58-10.64,7.82,1.44,17.79,46.53,19.07,55.17,10.67,72-12.26,137.26-62.65,184.52l-1.57-1.76c-36.08,21.79-80.42,27.88-120.19,19.86-2.35,3.2-5.98,3.37-4.2-.43,2.34-8.77,4.92-16.58,4.67-25.88-.04-1.52.86-4.7-1.15-4.4-1.4,12.63-7.29,23.96-14.01,34.07-25.43,11.58-53.64,9.9-77.66-5.45-14.3-9.14-16.69-14.95-12.53-31.59,1.58-6.31,13.23-38.18,18.33-39.14.1-.02-.77.73-1.62-.81Z" fill="#ef7423"/><path d="M461.72,295.86c-.31-9.98-4.85-24.02-6.69-34.55,15.45-29.06,25.46-61.68,29.87-94.97.68-5.16,2.36-35.9,3.81-36.89,10.7-2.34,17.75,7.33,22.48,16.33,17.6,33.48,9.79,75.62-2.26,109.68-4.68,13.23-11.72,25.6-15.72,39.14l4.72-2.15c15.29-23.65,27.6-49.55,42.83-73.22,5.54-8.62,11.02-19.03,19.69-24.03,6.69-.97,10.42,20.16,10.87,25.59,3.87,46.62-26.35,95.14-56.53,125.58-1.94,1.96-5.41,2.07-6.44,5.01,31.34-11.48,48.44-52.21,81.68-58.77,4.26,3.39-2.34,24.56-4.14,29.73-10.35,29.8-36.79,62.61-63.11,76.85-3.96,2.14-8.99,3.88-13.27,5.22,2.39,4.44,12.4,1.82,16.62.93,6.23-1.32,34.47-13.39,37.71-8.59,1.47,5.04-2.34,10.9-4.86,15.11-15.86,26.46-45.79,39.1-73.96,40.5-.26,3.28-.17,2.1,1.75,2.48,7.03,1.4,14.25,2.71,21.45,2.7,3.85,12.21-17.34,25.76-26.08,31.51-1.67,1.1-3.59.84-4.12,1.17-1.93.87-3.6-.56-4.99-4.28-8.47,3.51-10.31-12.1-4.85-16.08-2.29-2.62-2.17-5.58.81-7.46l.89-21.24,2.3-2.69c-1.04-.23-1-.66,0-1.26l.97-3.15c7.78-5.77,22.38-23.25,10.75-31.54-9.35-4.79-14.04-8.13-2.3-14.95,22.19-17.25,36.15-68.32-6.88-37.17-2.5.03-4.25-.57-3.92-3.31,9.33-14.55,18.44-30.39,15.38-48.78-2.61-15.69-13.24-10.56-21.21-2.36l-3.29-.09Z" fill="#34612f"/><path d="M66.32,514.21c-2.73,6.04.79,20.78,5.86,24.57,9.72,7.28,24.65-4.71,32.62-10.7-1.6,43.11,37.41,22.86,50.75,1.29,2.43,2.82,4.37,8.02,8.21,8.8,6.11,1.24,12.01-4.39,18.03-4.41-25.3,34.33-58.44,75.88-101.47,80.13,9.93-11.46,21.02-24.01,24.22-40.04.25-1.27,1.18-4.43-.88-4.11-9.2,22.25-30.11,39.92-50.55,49.43-3.43,1.6-23.05,10.4-24.19,5.26-.23-2.29.2-4.28.99-6.39,4.16-11.21,20.44-28.39,26.85-41.61,2.51-5.19,5.95-13.21,7.16-18.77.36-1.66-.22-2.5-1.67-1.8-1.6.77-18.32,25.5-21.62,29.62l-6.97,6.96c2.73-24.91,7.48-49.77,16.59-72.9l16.06-5.32Z" fill="#34612f"/><path d="M196.95,677c.3,10.72-5.65,18.47,1.16,28.4,5.44,7.93,13.67,6.22,21.24,8.56,11.91,3.68,28.38,15.96,30.09,29.91-14.06,4.88-18.09-4.76-26.93-11.88-9.14-7.36-21-13.69-32.56-13.34,3.79,3.83,9.38,5.27,13.9,8.29,9.27,6.21,22.65,18.44,23.43,30.81-29.72,6.95-45.16-35.92-71.55-35.23-10.43.27-32.78,10.27-41.29,6.51-1.6-.71-3.16-2.67-4.37-4.04.3-8.21,9.02-13.74,15.41-16.17,10.07-3.84,31.38-3.49,38.29-7.79,8.4-5.24,10.27-28.84,12.77-29.04l20.42,5.01Z" fill="#6c4825"/><path d="M178.29,555.84c4.14-3.47,1.83,3.16,1.24,4.5-1.21,2.75-3.2,3.84-4.07,5.7-4.27,9.17-18.22,40.42-11.99,48.76,1.22,1.64,11.42,10.31,13.45,11.58,17.46,10.93,40.97,14.21,60.45,9.16,3.85-1,7.38-3.42,11.24-4.35,2.51-.6,1.36-1.46,3.16,1.63-16.55,24.9-43.55,42.71-72.3,29.64-15.51-7.05-17.75-21.5-25.09-35.93-3.21,2.9-1.28,8.07-1.75,11.99-.21,1.76.63,2.18-1.74,1.85-8.46-6.37-17.99-11.36-25.71-18.88-1.78-1.73-8.44-7.85-7.01-10.17.84-1.36,21.14-14.75,25.13-18.25,10.44-9.13,26.73-25.98,34.98-37.24Z" fill="#e25926"/><path d="M461.72,295.86c20.56-21.96,30.71-5.79,26.3,20.25-1.92,11.33-9.66,23.59-15.8,32.74,5.14-2.14,8.97-6.97,14.34-9.08,5.25-2.07,16.86-3.34,18.29,4.7,2.99,16.79-14.81,43.44-29.13,49.84,4.28,4.44,12.59,5.41,14.66,12.55,2.75,9.45-9.76,27.02-18.16,30.34l-2.45-5.58c-1.14-27.6-5.65-55.87-15.4-80.86-.95-3.18-1.79-7.1-1.98-9.48,2.14-7.13,5.01-14.04,6.43-21.44,1.2-6.24,3.09-18.01,2.9-23.99Z" fill="#ec7923"/><path d="M325.18,663.17c3.61,13.69,6.28,28.57,21.67,30.22,16.71,1.79,33.41.72,49.8,6.7,4.61,1.68,23.94,10.92,19.69,17.69-9.75,7.04-18.64-4.35-27.31-8.18-13.01-5.76-24.46-4.49-37.53-4.71-3.6-.06-7.25-2.14-11.08-1.36,3.69,4.23,12.67,2.82,17.94,3.93,9.16,1.92,21.27,7.17,29.08,12.71,5.9,4.19,10.27,7.49,8.98,16.17-23.8.14-44.36-16.51-67.42-22.35-12.57-3.18-21.35-1.94-33.53-2.85-3.48-.26-22.53-1.81-21.48-6.91,7.11-12.12,21.34-6.59,32.12-10.73l-4.13-23.98,23.2-6.33Z" fill="#6c4825"/><path d="M388.24,611.37c-42.21,39.6-92.23,55.82-148.13,51.73,3.5-4.45,7.1-8.71,10.28-13.47,2.17-3.24,10.79-20.3,11.88-20.59.07-.02.69,1.35.96,1.1.48-.46.52-2.41,1.34-3.02,1.45-1.09,20.9,2.92,25.06,3.24,27.46,2.1,71.36-6.67,95.05-22.2,2.42-1.59,4.35-7.24,8.81-8.11l.58,3.12-5.84,8.2Z" fill="#e25926"/><path d="M472.22,437.21c0,.42,0,.84,0,1.26-.88,4.47-7.67,9.52-10.5,5.05-1.51-27.45-8.57-56.53-23.24-79.06,2.68-2.6,12.65-22.95,13.91-23.17.1-.02.64,1.07,1.11,1.26l2.38-5.04c-2.01,10.97,3.54,18.54,6.16,28.05,6.21,22.49,9.95,48.19,10.18,71.65Z" fill="#ec7923"/><path d="M472.22,438.47c-.02,6.34.13,20.02-1.16,25.68-.23,1.02-2.43.69-2.38,1.46.11,1.87,2.12,2.74,1.87,4.48-.31,2.25-2.82,2.38-3,3.32-.65,3.53,1.67,7,0,10.47l7.05-.63,3.45,6.95c-5.82,3.6-11.49,9.44-18.66,10.09,1.18-18.94,4.55-37.91,2.33-56.79,4,.13,6.79-3.75,10.5-5.05Z" fill="#34612f"/><path d="M388.25,210.05c2.43,7.2,5.75,13.95,7.59,21.43,3.94,16.04,4.9,34.31,1.16,50.51-2.09,9.03-9.77,27.58-20.51,18.39-2.44-2.09-2.26-5.81-4.56-7.03-3.06,11.53-3.86,28.53-.22,39.96,1.9,5.96,7.31,8.23,8.29,15,2.98,20.51-12.26,36.37-29.34,41.29-46.71,13.45-76.41-40.53-87.53-81.42-2.92-10.71-6.01-22.73-4.37-33.77-2.54,1.53-2.22,6.03-4.12,8.77-.78,1.12-1.96,2.94-3.43,2.57-5.49-5.64-2.18-18.79,4.37-21.76,10.29-4.67,12.86,1.71,22.46-11.04,10.15-13.48,13.25-33.93,22.25-49.12,15.29-25.79,44.12-40.1,69.19-19.57,3.29,2.69,10.52,13.24,11.79,13.82s8.12-.97,11.11-.74c7.62.6,16.5,9.15,17.76,17.4.58,3.82.8,7.97-3.22,4.72-5.57-4.5-11.08-9.8-18.68-9.44Z" fill="#1e2514"/><path d="M278.57,231.46c-3.32,4.02-18.59-9.72-23.64-11.58-9-3.32-19.24-2.33-27.93,1.86-6.39,3.08-12.93,11.91-17.25,14.15-1.53.8-3,.8-4.64.65.7-17.55,17.92-31.29,33.24-32.79,15.81-1.55,38.28,9.09,40.2,27.71Z" fill="#1f2313"/><path d="M196.96,193.64c12.22-36.95,56.74-49.67,76.94-13.24-1.69,2.35-1.33,1.54-3.08.86-6.99-2.69-12.83-9.45-21.32-11.04-22.79-4.25-37.98,5.98-52.54,23.42Z" fill="#1e2112"/><path d="M403.39,179.75c-12.96-13.97-29.19-15.83-45.97-8.95-4.68-2.9,1.39-8.54,4.06-10.53,15.04-11.19,41.38-1.58,41.9,19.48Z" fill="#1f2212"/><path d="M271.6,274.38c2.57-4.23,6.77-6.34,9.93-10.06,18.63-21.93,18.65-56.91,43.35-72.99,47.07-30.62,75.66,56.36,61.26,94.04-.98,2.57-2.31,4.88-4.31,6.67-5.45-10.65-13.45-15.24-24.63-16.22-25.55-2.24-45.95,19-73.1,7.15-4.99-2.18-7.73-6.57-12.49-8.59Z" fill="#453b29"/><path d="M371.9,353.92c-2.27,23.3-30.87,31.51-48.74,25.62-15.58-5.13-30.06-23.73-37.75-38.66-8.43-16.37-16.45-37.77-18.45-56.37,1.96-.15,1.06,2.75,2.27,4.46,4.02,5.7,13.05,11.93,16.21,17.8,2.57,4.78,3.33,12.5,5.44,18.09,14.53,38.46,47.81,50.21,81.03,29.05Z" fill="#453b29"/><path d="M348.58,352.65h-20.41c-.4,0-6.38-2.7-7.47-3.27-13.38-7.03-22.93-25.19-24.6-40.89,28.81-7.13,55.2,10.04,52.49,44.16Z" fill="#c15728"/><path d="M377.76,234.01l-2.94-5.04-1.15,2.52c-1.5-1.38-2.72-2.92-3.88-4.64-3.42-5.07-10.34-19.4-12.73-25.35-.85-2.12-1.67-4.21-1.47-6.6,9.3.44,15.24,9.21,19.6,17.28,2.77,5.12,10.93,19.69,2.58,21.83Z" fill="#69723f"/><path d="M333.14,206.56c5.11,5.52-2.95,22.86-12,14.87-8.18-7.22,5.52-21.88,12-14.87Z" fill="#1e2413"/></svg>