<?xml version="1.0" encoding="UTF-8"?><svg id="looser" xmlns="http://www.w3.org/2000/svg" viewBox="0 0 612 841.89"><path d="M237.11,442.04c1.59-.63,3.78,4.06,5.32,3.44,1.59-.64-.02-5.93.03-16.46.02-4.54.34-6.23-.68-6.88-2.57-1.66-9.63,6-11.21,7.71-5.93,6.42-7.73,10.92-15.28,23.52-7.73,12.92-9.68,14.6-12.12,15.76-5.54,2.65-13.46,2.55-18.88-1.49-5.64-4.2-6.77-11.32-9.17-10.85-1.49.29-1.86,3.18-2.7,6.08-2.99,10.27-10.77,16.89-14.7,19.45-1.18.77-13.19,8.38-20.17,3.5-9.83-6.88-3.31-34.11-8.53-35.26-.41-.09-.37.1-4.32,1.8-4.42,1.9-6.66,2.84-8.3,2.8-2.72-.07-5.53-1.79-7.13-4.03-3.18-4.44-2.38-12.01-1.32-22.14.21-2.04.57-4.92-.85-5.95-1.18-.85-2.75.19-5.07.89-4.3,1.31-10,1.12-13.29-1.3-4.28-3.14-3.58-9.39-5.3-9.41-2.07-.02-3.66,8.95-4.05,11.13-1.71,9.64-3.06,17.25.67,20.7,3.15,2.92,6.4-.41,13.51,1.76,5.63,1.72,9.1,5.49,13.55,10.43,6.53,7.26,9.16,12.92,12.7,18.74,4.41,7.25,11.34,18.63,20.27,24.09,13.63,8.33,30.19,1.78,58.05-9.22,12.17-4.81,21.16-9.9,28.46-18.44,4.3-5.04,8.69-10.17,9.58-17.84.67-5.79-.79-11.83.96-12.51Z" fill="#c45728"/><path d="M104.94,447.11c1.06-3.46,2.38-8.8,2.73-15.45.34-6.44.85-16.06-4.51-24.9-1.19-1.96-6.57-10.84-12.02-9.91-6.3,1.07-8.88,14.61-9.37,21.25-.87,11.78,3.38,21.11,5.95,25.76" fill="#c45728"/><path d="M392.6,663.94c.89,2.4,5.86,2.85,8.03,3.36,20.79,4.88,66,5.38,75.28,30.33,6.59,17.72-5.6,23.16-20.12,22.46-1.49-.07-3.91-1.41-4.08-1.27-.75.6-.85,11.49-9.13,13.47-18.46,4.42-51.12-16.24-69.81-21.85s-34.21-3.37-51.58-6.69c-12.46-2.38-20.52-12.81-13.93-25.73s26.07-8.55,27.42-10.36c1.22-1.64-2.02-3.92-3.48-4.41l-61.86.94c-10.12,5.03-10.29,7.95-6.13,18.43,2.23,5.62,3.07,6.24,8.03,8.99,17.55,9.73,46.9,14.31,55.4,36.35,5.23,13.57.34,26.1-14.69,25.48-3.37-.14-15.4-5.28-16.24-4.65-.5.38-.66,7.48-5.34,11.22-15.25,12.18-39.97-8.77-51.98-18.75-6.54-5.44-14.72-15.97-22.23-18.96-13.75-5.47-41.69,2.72-50.5-11.57-6.48-10.52,2.06-21.39,11.39-25.42,13.99-6.04,27.35-2.93,41.81-2.66,1.26-16.15-20.46-14.35-27.19-26.91-17.11,12.26-38.38,21.15-59.58,18.07-5.02-.73-10.59-6.11-14.11-5.79-3.82.35-14.71,6.48-20.82,7.82-35.09,7.67-36.08-10.79-18.95-36.84-14.7,4.61-34.75,2.91-30.15-18.75.9-4.23,8.56-17.06,8.5-18.07s-2.46-3.02-2.92-5.27c-3.02-14.6,1.08-39.11,3.67-54.24,1.18-6.89,6.57-24.41,6.57-29.09,0-3.23-2.96-9.26-3.39-13.74-4.38-45.41,12.76-112.81,34.06-152.44,12.88-23.97,33.26-42.5,43.33-67.81,13.39-33.65,13.98-71.46,27.96-105.25,23.99-57.96,83.21-103.44,142.42-111.68,18.1-2.52,58.24-3.98,74.14,4.97,9.49,5.34,6.82,9.86,3.07,17.93-.53,1.13-2.03,1.06.03,2.51,3.88,2.73,17.71,6.08,23.6,8.77,42.32,19.36,68.12,59.64,74.34,107.44,1.47,11.27.59,23.67,2.82,34.46,1.94,9.37,8.01,19.05,10.88,28.44,8.12,26.57,7.42,52.91-2.01,78.89-1.19,3.28-5.86,10.36-5.67,12.69.15,1.84,8.4,15.42,10.05,19.47,2.36,5.82,5.54,22.39,7.14,24.91,1.12,1.78,1.5,1.13,2.99.73,6.16-1.66,14.59-9.02,22.41-11.33,17.4-5.15,22.49-.63,24.2,18.16l1.16.88c33.77-6.76,9.66,33.06,10.25,48.42.16,4.19,7.09,10.45,8.02,17.51,1.79,13.73-1.43,26.87-8.37,38.36-1.68,2.79-4.39,4.41-5.95,7.44-5.45,10.59-5.91,22.68-14.62,33.23-3.89,4.72-17.12,11.58-17.66,12.55-1.15,2.06-.26,5.39-.85,7.83-3.84,15.86-7.73,21.94-20.63,30.63-15.32,10.33-32.95,18.15-48.72,28.42-15.47,10.07-29.37,25.61-46.74,29.26l-19.54-1.28Z" fill="#101610"/><path d="M373.68,74.93c1,.05,3.14,2.27,3.42,3.36,1.04,4.16-6.29,7.07-8.88,8.96l-20.53,8.88c53.88-.49,105.7,28.77,120.55,86.12.95,7.72,2.01,15.47,3.19,23.23l-1.15.9c-1.45-3.74-3.31-6.79-5.58-9.15l-2.85.07c-11.55-17.26-33.04-18.65-47.86-4.75-12.48,11.71-14.13,27.06-15.56,43.49-12.5-.69-21.3.06-31.43,8.71-11.34,9.69-31.57,52.43-37.42,67.54-16.27,42.05,35.22,78.69,70.06,58.23,4.04-.89,7.98.82,11.81,5.11,10.31,8.02,20.01-5.39,25.07-14.03,13.67-23.34,14.11-46.68,6.52-72.68,13.34-3.86,20.34-13.9,24.8-27.33l2.78-.73,2.4-12.79c.11-10.33,1.28-13.14,3.51-8.42,2.88,13.93,10.91,27.19,13.63,42.38,5.02,27.97.19,56.28-13.43,80.74-1.05,1.88-8.02,10.83-7.28,11.64l11.1-7.41c2.32.57,12.55,25.27,13.75,29.2,3.64,11.93,5.71,18.21-5.96,24.38-4.04,4.07-6.35,4.41-6.93,1,1.44-5.49-14.23-30.09-18.35-23.97.84,6.22-2.29,8.1-7.04,4.37-15.26,6.84-30.31,13.94-45.14,21.32-8.14.96-16.35.97-24.62.01,4.51.31,10.78,3.04,6,7.51-23.95-9.14-60.78-22.56-85.79-14.52-1.42.46-4.2,3.6-3.69,5.52-.86,2.1-4.55,9.75-5.91,10.6-2.24,1.4-6.4.17-9.52,1.18-7.39,2.38-13.92,24-12.95,31.89-5.11-3.95-17.79-8.55-18.83-15.67-1.55-10.67-.84-21.92-2.98-33.04-4.36-22.6-17.86-46.96-36.08-59.85l17.93,35.34c4.94,12.48,9.78,27.88,10.42,41.41.14,2.97,1.24,15.31-2.91,14.32l-6.53-4.98c-3.09-2.38.12-4.31,3.08-3.1-1.54-1.85-1.88-3.8-.05-5.51,4.37-1.75,2.3-2.66-6.22-2.72-1.11,4.87-4.02,9.35-8.72,13.43-1.51,6.54-4.25,12.23-8.23,17.08.41,7.24-14.22,15.31-20.2,15.86-9.63.9-17.04-7.12-19.36-16.54-5.95,14.58-16.42,29.13-33.25,25.84-4.1-.8-13.35-4.55-9.87-9.41l-2.98-.86c-2.66-7.16-2.98-14.94-2.98-22.54-14.79,13.32-24.8-6.04-23.08-21.21-2.07,3.11-4.55,5.64-7.44,7.59.15,13.16-12.05,6.47-7.65-3.14-2.05-3.19-2.2-7.46-.44-12.81l-3.99-.56c-2.43,2.28-4.6,3.74-4.63-.13,5.27-22.81,12.4-46.66,23.02-67.41,18.22-35.58,44.39-52.79,54.98-94.81,2.4-6.38,4.18-14.39,5.33-24.05l3.33-.16c5.79-15.7,11.18-31.57,16.16-47.63,19.57-42.23,48.91-76.33,87.51-98.18l-.04-3.44c32.45-16.23,69.05-17.25,104.01-13.73Z" fill="#e98a3d"/><path d="M558.06,461.77c-1.22,14.87-20.22,22.14-30.11,31.23-5.73,5.27-14.74,14.99-15.91,23.13-.63,4.37,1.4,9.99.92,12.16-.42,1.88-5.32,5.63-6.88,7.76-6.87,9.42-9.4,22.2,1.92,29.11,9.31,5.69,13.28.43,7.23,16.73-3.25,8.76-6.4,10.84-13.54,15.66-20.61,13.9-45.52,26.03-65.29,40.88-4.25,3.2-6.87,7.67-12,11.04-18.78,12.38-27.26,2.21-44.79-2.42-37.81-9.99-81.53-20.06-117.68-35.48-14.81-6.32-4.35-23.87-1.44-35.95,12.73-3.19,48.69-3.75,44.37-25.59-2.69-13.62-16.92-12.12-24.56-20.87h19.5c3.14,0,14.22-3.56,17.75-4.96,17.39-6.95,26.67-22.9,7.1-35-6.72-4.15-36.92-14.66-38.96-17.51-3.75-5.22-.83-22.91,5.25-26.14,5.06-1.81,9.1.18,12.12,5.96,24.87,8.18,50.41,17.91,75.19,28.96,15.77,4.42,31.18,9.81,46.25,16.15,3.52,15.34,44.08,14.43,49.27,5.3-1.09-3.37-1-4.94,1.55-7.7,1.02-.87,3.25-3.53,4.73-4.99l2.58-.63c1.92,2.36,3.89,2.71,6.27.9,12.79-13.58,26.54-26.76,40.93-38.82,9.14-7.66,17.58-14.54,28.46-18.84,2.03-3.09,6.9-7.52,6.64-2.21-2.66,10.63-4.95,21.35-6.87,32.14Z" fill="#503868"/><path d="M132.57,477.99c2.98,6.04,10.97,7.95,16.82,7.17,14.46-1.93,20.27-15.9,25.74-28.38,3.57,2.81,3.79,8.82,6.53,12.43,3.85,5.08,10.16,7.56,16.15,5.92,2.13-.58,14.09-8.52,14.86-9.94.65-1.21-.14-3.15.55-4.36,1.13-1.95,5.23-2.3,3.27-9.06l2.32,1.26c.68-2.63,1.54-6.63,2.56-8.97,1.49-3.44,6.74-6.99,7.8-8.83.79-1.37,0-4.24,1.4-5.4,1.93-1.59,4.74.77,6.46.46,1.91-.34,2.74-4.19,5.44-3.46-.42,4.52,2.12,9.32-3.53,9.34,1.5,3.2,5.26,5.33,4.72,9.36-1.25,1.45-7.81-6.6-8.27-2.49-1.21,10.89,31.59,31.31,39.93,35.83,8.33,4.51,45.76,18.96,48.57,23.58,4.34,7.12-3.61,10.31-9.01,12.67-25.87,11.29-52.25,1.13-75.95-10.92,7.29,12,16.81,19.57,28,27.2,3.98,2.72,26.09,14.85,26.95,16.46,7.02,13.28-21.89,16.78-29.52,16.2-28.91-2.19-50.46-21.61-72.69-38.66l8.29,13.08c5.17,5.39,9.26,11.78,14.72,16.9,7.77,7.3,17.29,12,25.44,18.67-22.45,6.15-44.04,4.13-64.62-7.26-5.21-2.89-19.83-12.33-23.46-16.43-.83-.94-1.72-1.23-1.57-2.89.25-2.68,6.69-13.33,8.14-17.65,1.72-5.15,3-11.43,3.49-16.89l-15.39,24.29c-4.67,5.6-14.18,14.74-21.17,16.33-31.43,7.14-10.05-39.72-8.35-55.59l-17.69,28.1c-5.64,6.46-14.63,15.67-20.18,3.77-6.46-13.87,1.72-32.26,4.8-46.22.22-.47.67-.69,1.16-.63-.25,1.36,3.32-4.75,3.63-5.47-.39-5.65,1.93-10.66,6.45-5.07.78-8.99,9.85-12.61,7.88-2.09,6.75,1.14,8.2,6.21,4.36,15.22h1.41c.5-11.3,4.96-12.6,14.45-8.09,4.4-2.69,7.43-2.52,9.11.51Z" fill="#c45728"/><path d="M248.39,582.82c1.55,1.88-6.63,25.81-2.44,32.85,1.99,3.34,31.15,10.64,37.05,13.6,5.46,2.74-5.79,12.73-8.58,15.33-19.97,18.65-46.78,25.63-69.13,6.82-11.87-9.99-16.08-21.36-20.72-36.15-2.05-.3-1.11,2.84-1.17,4.35-.14,3.94.11,7.93,0,11.86-17.34-5.3-30.81-28.51-25.35-47.36,4.96-17.11,7.76-8.28,17.84-3.98,23.38,9.97,48.45,9.88,72.51,2.68Z" fill="#e98a3d"/><path d="M544.79,403.4c1.01,1.1,5.29,11.97,4.82,13.79-.92,3.6-13.85,10.12-17.45,12.87-14.3,10.94-30.46,25.04-43.86,37.3-8.01,7.33-15.92,19.64-25.55,24.19-17.23,8.16-25.13-3.41-39.48-10.41-22.94-11.18-52.04-21.21-76.17-30.64-10.82-4.22-26.28-7.79-36.08-13.07-8.34-4.5-1.09-12.42,6.45-13.17,36.61-3.62,93.27,23.99,121.76,47.51,7.69,6.35,10.6,16.1,18.59,2.07,11.21-19.69,21.34-32.12,38.21-47,7.52-6.63,39.52-33.46,48.75-23.46Z" fill="#f9d376"/><path d="M247.81,673.91c.23,0,.86-1.05,1.79-.66,3.01,1.25,4.33,13.5,6.02,17.38,5.72,13.16,36.73,18.25,49.15,26.72,5.21,3.56,22.92,22.58,10.37,25.17-11.84,2.45-23.48-12.86-32.86-18.9s-20.36-9.9-30.33-13.51c-3.03,2.98,18.01,16.18,19.5,17.46,1.63,1.4,12.96,12.42,13.46,13.23,3.17,5.24,1.3,11.83-5.17,11.84-22.54.05-44.37-37.89-68.69-42.41-6.52-1.21-34-.62-36.53-5.1-5.64-9.98,15.92-13.23,21.44-13.58,7.38-.47,34.77,6.03,37.15,4.28,4.12-3.04-4.87-18.32-5.97-22.54.75-1.96,2.72.63,2.95.63,5.9,0,11.84-.19,17.73,0Z" fill="#6c4825"/><path d="M392.59,688.88c-.27,1.81,1.99,1.64,3.25,2.17,10.16,4.25,39.09,11.23,43.87,21.07,1.44,2.97,2.06,6.04.82,9.28-2.54,3.82-15.54-1.06-19.31-2.24-16.96-5.3-32.51-15.29-49.67-19.94-16.34-4.43-30.76-3.48-46.79-5.5-8.36-1.06-15.17-7.38-5.86-13.39,10.03-6.48,24.24.27,34.68-2.7-.55-4.72-9.24-19.68-1.75-21.17,7.25-1.45,14.87-2.73,21.8,1.9,6.47,4.32,8.28,16.05,16.29,18.99,21.11,3.54,54.4,1.79,71.23,17.13,9.69,8.83,9.07,18.62-5.71,14.75-13.3-3.48-23.55-20.35-40.99-20.35h-21.87Z" fill="#6c4825"/><path d="M302.77,421.84c.05-.11-1.38-.83-.66-2.38.87-1.87,3.67-2.87,4.21-5.09l-4.74-.02c-1.89-1.99,4.94-12.34,8.28-12.47,1.46,3.47-2.26,3.72-2.38,4.57-.38,2.62,1.22,5.29.03,7.89,6.5-1.14,12.87-1.52,19.49-1.22,9.87.44,22.16,4.84,30.83,5.08,2.13.06,1.98-4.99,4.05-2.59.46.54-1.49,3.41-1.19,3.73,3.39-.36,12.95,4.92,15.12,3.44.45-.31-.31-2.97,2.01-2.17,1.74.6.65,3.47,1.75,4.31,1.02.78,11.37,4.83,11.85,4.41,3.04-2.64-5.56-3.31-6.29-3.85-4.44-3.27-.51-4.93,3.32-4.91,9.06.05,15.07,3.45,24.26-.59,2.19-.96,3.37-2.98,4.84-3.61,10.34-4.46,19.58-7.77,28.61-12.24,4.68-2.32,10.83-2.75,9.11-8.48,2.98,1.71,1.6,5.7,5.89,6.24l-1.17-6.23,7.09-1.27c-.29-3.18-5.36-2.01-5.85-2.54-.22-.24-1.3-6.77,1.73-6.2,4.37.83,4.73,7.69,6.45,10.35.74,1.15,2.45,1.47,3.39,2.92,4.49,6.86,12.21,16.24,10.84,24.18,1.41-1.34,3.18-1.68,4.72-2.5l-39.64,44.95c-4.4.47-10.67-7.19-14.34-9.8-31.77-22.68-83.86-45.05-122.75-40.17-4.12.52-6.81,2.46-8.84,6.27Z" fill="#e98a3d"/><path d="M134.94,662.66c.91-3.55,5.23-3.28,7.15-5.54,1.05-1.24,1.17-3.67,2.3-5.06,5.37-6.62,12.59-13.79,13-23.08l-33.67,23.72c-9.06,5.77-36.09,20.17-45.22,12.17-3.8-3.33,4.8-18.83,7.43-22.12,2.38-2.98,10.53-10.7,13.56-11.29l-.98-2.27c12.91-7.9,24.88-17.38,37.19-26.23,1.46-1.05,3.67-1.14,5.04-2.16s7.75-8.49,8.36-8.01c1.63,22.8,14.17,37.76,32.02,49.19,6.11,8.57-16.86,18.24-22.79,19.81-7.46,1.98-15.91,3.32-23.39.86Z" fill="#1f3d1c"/><path d="M151.24,561.84c.39.74.97,10.59.35,11.64-1.36,2.29-8.92,9.49-11.37,11.79-12.3,11.6-45.32,37.88-60.23,42.48-48.95,15.12-3.15-33.81,5.79-46.29,3.92-5.46,7.77-12.16,11.39-17.97,1.84-2.96-.29-5.71,4.96-4.1,2.38.73,4.78,4.04,7.12,4.98,14.21,5.69,27.13-8.71,36.35-5.97.53.16,5.47,3.15,5.63,3.45Z" fill="#34612f"/><path d="M79.38,424.33l1.35.82,1.03-7.05c2.27-.42.51,2.65,1.31,3.56.53.61,6.02.34,6.79,1.59,1.7,2.79-1.43,9.32-1.11,11.49.19,1.31,3.59,1.65,3.62,2.69.02.86-7.27,4.53,1.19,9.36-.14-4.94-1.14-7.24,3.55-9.32l10.64-13.14c-3.02,8.93-3.14,23.19,4.11,29.98,8.89,8.32,14.08-7.13,17.17-3.77-.15,8.35-.18,19.88,3.55,27.45-3.12-1.4-7.08,2.04-8.87,2.04-2.06,0-7.38-3.98-11.08-1.89-1.43.94,1.01,11.81-5.43,9.82-4.12-1.27-.2-7.32,0-9.3.95-9.05-5.24-3.67-6.53-5.67-1.13-1.75,2.14-5.8.59-7.47-3.73,2.97-2.93,8.39-5.34,12.46-1.62-.74-2.67-7.95-5.89-4.97-.51.48,1.56,3.91,1.13,5.47-.67,2.47-6.28.67-4.7,5.78-.55-.16-.98-1.25-1.16-1.28l10.05-32.44c-8.07,13.18-15.38,26.73-21.56,40.94-.77,1.77.7,3.4-2.67,2.72-1.29-23.79,2.98-47,8.27-69.87Z" fill="#c45728"/><path d="M269.67,88.65c2.14,1.1,3.49,2.5,1.82,5.04-1.07,1.64-20.24,12.98-23.96,15.88-30.48,23.73-45.5,47.48-63.19,81.78-2.44,6.25-15.11,49.57-18.1,50.78-.51.21-1.19-.04-1.75.02l-1.17-3.75c-.49,7.26-2.73,14.13-4.18,21.19-.26,1.27-.13,5.2-1.74,2.51,4.84-19.19,6.26-40.19,11.51-59.6,13.22-48.89,48.87-92.87,93.68-111.35,2.34-1.31,4.7-2.14,7.09-2.5Z" fill="#f6981f"/><path d="M475.33,494.21c-1.02,7.26,4.43,7.77-4.09,12.52-11.26,6.27-34.64,6.01-44.72-2.46-1.93-1.62-1.13-4.58-4.04-6.05-12.71-6.41-32.39-10.53-46.37-15.92-16.23-6.27-32.09-13.83-48.31-20.12-6.45-2.5-19.87-4.93-25.28-7.93-1.41-.78-4.56-5.75-6.83-6.84l2.35-1.85h-7.09c8.27-4.4,29.15,5.35,38.43,8.7,27.53,9.93,65.85,23.05,91.56,35.61,7.94,3.88,13.89,10.96,22.41,12.53,10.96,2.01,23.26-.79,31.98-8.18Z" fill="#322149"/><path d="M98.28,540.39c.06,20.7-21.11,36.77-34.25,49.91l-2.26-10.47,6.99-46.92c3.46,1.67,3.82,6.75,5.97,9.27,6.6,7.74,16.11,1.06,23.55-1.79Z" fill="#34612f"/><path d="M480.05,489.22c14.6-14.38,29.83-28.81,46.2-41.7,5.55-4.37,33.09-25.62,37.34-26.72.93-.24,1.81-.3,2.74-.21.72,14.24-7.03,27.11-8.27,41.18,1-12.2,3.92-18.34,5.63-29.64.19-1.28,1.09-3.13-.88-2.79-1.8,6.52-9.89,6.98-14.6,10.17-15.35,10.41-32.78,27.49-46.89,40.34-6.61,6.02-13.35,20.13-21.26,9.38Z" fill="#322149"/><path d="M373.68,74.93c-.15,0-1.11,1.36-2.75,1.19-39.75-4.35-63.82-1.86-101.26,12.54-2.32.89-5.18,1.71-7.09,2.5,33.46-18.23,74.16-22.58,111.1-16.22Z" fill="#f1ae1c"/><path d="M476.51,239.65l-2.35-1.24c.71,8.28-1.01,15.01-3.56,22.46l-2.01-3.1c4.42-20.25,2.93-39.18-4.45-56.79l.55-3.75c3.63-1.65,3.19,7.19,5.9,7.48.54-7.18-4.6-15.73-2.35-22.46,4.87,18.79,4.49,39.14,8.27,57.4Z" fill="#eba61f"/><path d="M464.69,197.22c12.06,18.87,8.47,42.39,5.91,63.64-4.2,12.27-11.96,28.4-26,28.71,7.76,20.61,8.01,41.03-.17,61.59-3.86,9.69-15.24,29.87-26.38,29.57-7.4-.2-12.59-8.02-15.41-8.3-2.63-.26-8.24,4.06-11.45,4.88-10.09,2.59-26.03,1.18-35.68-3.05-18.46-8.1-36.31-33.49-31.15-55.03,1.99-8.29,28.65-61.28,34.16-68.76,9.22-12.51,23.62-20.22,38.79-15.82-2.68-28.53,15.89-57.7,45.41-53.55,8.57,1.21,17.28,8.79,21.97,16.12Z" fill="#192113"/><path d="M295.41,176.35c72.63-8.06,71.6,119.83,2.02,125.67-72.18,6.06-74.21-117.66-2.02-125.67Z" fill="#1a2213"/><path d="M484.7,499.14c.62-1.14-1.01-4.04,1.25-3.68.41,5.67-3.44,9.89-5.05,15.24-9.34,31.11-16.77,63.23-28.33,93.63-4.31,11.33-8.97,23.04-16.84,32.11-2.51-1.92-1.61-2.24-.84-4.6,4.07-12.62,10.88-25.84,15.34-38.72,5.2-15,24.24-88.09,31.58-94.05,1.19-.96,2.82.2,2.9.07Z" fill="#322149"/><path d="M394.96,600.28l25.99-96.49c4.73-3.29,3.8,1.81,3.26,5.7-4.05,28.69-18.27,73.31-26.88,102.02-2.97-.94-3.75-4.68-2.36-11.23Z" fill="#322149"/><path d="M467.04,529.15c.54,12.84-12.22,10.1-20.62,11.28-1.75.24-3.05,2.24-4.74,2.36-2.8.18-20.33-7.63-17.16-13.63,4.81.82,10.06,4.01,14.74,4.32,7.54.51,21.38-.24,27.78-4.32Z" fill="#3c215b"/><path d="M394.96,600.28c.19.02.66,1.07,1.16,1.26.75-2.17-.21-8.42,3.56-7.5.31,5.5-5.41,12.23-2.36,17.46-2.5,8.35-6.48,23.97-10.14,31.1-3.05,5.95-7.45,4.02-5.74-1.19.3-.92,2.26-2.19,2.95-4.26,3.94-11.84,6.79-24.01,9.4-36.24.23-.61.6-.7,1.16-.64Z" fill="#3c215b"/><path d="M546.24,411.84c-9.4,2.99-18.88,10.86-27.05,17-18.16,13.65-35.69,28.95-49.72,47.34l-3.59-1.31c3.94-3.29,6.52-8.89,10.03-13.11,10.91-13.16,51.69-49.69,67.07-51.6,1.77-.22,2.59-.95,3.27,1.69Z" fill="#c99941"/><path d="M430.41,475.48c-23.47-7.71-44.92-21.57-68.6-29.26l-40.13-13.14c17.02,1.58,35.7,7.3,51.95,13.14,10.84,3.9,23.11,9.33,33.39,14.66,7.78,4.04,16.38,9.22,23.39,14.6Z" fill="#c4923c"/><path d="M406.78,253.37l-1.53,2.17c-2.96-1.01-13.58-4.41-9.76,1.08,17.89,9.74,31.11,29.39,36.66,49.65.14.04,2.49-1.01,2.59-1.12,1.62-1.83-5.32-19.48-6.79-22.7l1.29-2.88c3.38,0,5.78,6.94,6.81,9.66,9.21,24.45,6.7,47.68-6.58,69.82-17.08,28.47-20.4-3.66-32.92-13.14-12.43-9.41-21.44-8.35-35.16-10.3-9.13-1.3-18.72-12.69-18.43-22.36-3.75-1.46-2.63,8.53-2.3,10.55,1.5,9.15,10.34,15.51,18.2,18.22,9.87,3.41,27.78,2.87,33.57,13.23,5.65,10.1.64,14.12-9.23,14.84-27.13,1.97-52.69-19.44-48.22-49.67,1.41-9.53,7.24-16.99,10.56-25.04,6.8-16.47,11.75-35.84,26.59-46.8,14.05-10.37,22.76-4.54,34.66,4.77Z" fill="#453b29"/><path d="M464.37,241.26c3.81,4.65-5.82,36.98-15.04,38.31.29-6.93,3.99-10.75,3.62-18.12-.68-13.71-15.87-19.89-26.92-14.58-1.97.95-3.62,4.01-5.46,3.83-.98-.1-12.34-6.82-12.63-9.18,10.55-7.26,48.5-9.95,56.43-.27Z" fill="#f8e4c7"/><path d="M406.78,253.37c9.32,7.29,17.07,15.31,22.46,26.21,2.54,5.14,8.91,21.77,8.19,26.79-.25,1.74-2.72,1.06-2.93,1.23-1.75,1.36-1.85,5.02-3.48,1.94-2.72-5.16-4-13.32-7.49-19.55-5.21-9.29-14.86-21.74-23.26-27.85-6.81-4.95-7.38-.49-7.66-12.49l14.18,3.73Z" fill="#8d6f41"/><path d="M465.86,228.41c-20.07-5.89-41.58-3.3-61.44,2.49-1.64-51.05,59.63-56.56,61.44-2.49Z" fill="#ee7823"/><path d="M549.78,531.66c-2.18,15.12-22.01,33.43-36.27,25.19-5.7-3.29-4.4-6.76-1.34-11.89,8.24-13.85,14.16-7.98,26.29-9.68,3.93-.55,7.37-3.2,11.32-3.63Z" fill="#c45728"/><path d="M328.77,646.47c2.2,2.26-5.57,4.72-6.57,4.91-12.62,2.37-26.71.84-39.52,1.31-.46-2.02.38-2.89,1.15-4.39.95-1.86,9.18-15.07,10.05-15.17l34.9,13.34Z" fill="#e98a3d"/><path d="M341.76,233.4c-30.78-8.82-63.88-1.4-92.18,12.48-6.12-64.37,90.58-84.04,92.18-12.48Z" fill="#f07b22"/><path d="M564.56,476.77c1.27-.03,1.7,3.02,1.83,4.28,2.72,26.05-14.1,47.47-39.67,44.38-18.41-2.22,6.69-24.33,11.88-28.69,6.63-5.58,13.86-9.42,20.55-14.5,1.32-1,5.05-5.47,5.42-5.48Z" fill="#c45728"/><path d="M325.23,279.57c2.77-22.21-6.17-38.56-29.01-28.74-12.45,5.35-18.01,24.43-10.53,36.17,1.92,3.02,4.74,3.76,6.43,6.29-14.61,1.35-28.43-7.66-34.91-21.15-1.56-3.24-4.86-12.16-4.15-15.39.3-1.33,11.76-7.17,13.93-8.07,17.66-7.36,44.42-11.34,63.02-7.23,14.65,3.24,10.09,15.11,5.3,25.71-.65,1.43-7.96,15.01-10.09,12.42Z" fill="#f8e4c7"/><path d="M105.79,422.62c-.76-5.14-1.63-10.43-2.63-15.86-1.17-6.33-2.43-12.41-3.76-18.24" fill="#e98a3d"/><path d="M100.15,407.95c-2.5-7.67-5.01-15.33-7.51-23" fill="#e98a3d"/><path d="M236.01,441.93c1.85.73,3.11,3.64,5.12,3.14,2.95-.74,3.68-7.9,3.71-11.36,0-1.21.09-10.59-3.62-11.78-1.34-.43-3.18.21-7.47,4.66-7.05,7.31-10.82,14.64-11.49,15.96-9.87,19.5-8.4,21.09-12.9,25.44-4.58,4.43-13.19,9.63-19.9,6.89,0,0-3.33-1.36-12.68-17.19h0s-4.09,8.69-9.53,15.51c-3.25,4.07-5.56,6.97-9.52,9.12-5.72,3.1-15.56,5.02-21.99-.46-6.48-5.53-6.51-16.08-6.47-18.12.15-7.29,3.34-13.44.63-15.84-.13-.11-1.21-1.05-2.27-.75-1.6.45-1.47,3.18-2.93,5.2-1.87,2.59-5.84,3.27-8.3,2.8-6.71-1.27-12.48-13.01-10.47-21.61.88-3.77,3.31-7.18,1.81-9.19-.75-1.01-2.01-1.03-3.47-1.22,0,0-6.59-.88-11.9-5.08-5.48-4.34-4.13-11.7-6.28-11.86-3.6-.28-7.44,20.42-8.45,25.88-2.03,10.93-3.32,18.27-.74,19.75,3.91,2.24,11.87-11.72,18.38-9.34,3.77,1.38,3.94,7.09,6.81,14.73,0,0,3.78,10.05,16.68,23.71,12.42,13.15,42.52,29.64,66.04,19.76,29.06-12.2,42.34-62.23,51.19-58.74Z" fill="#c45728"/><rect x="87.46" y="438.84" width="10.72" height="10.28" fill="#c45728"/></svg>