<?xml version="1.0" encoding="UTF-8"?><svg id="neutral" xmlns="http://www.w3.org/2000/svg" viewBox="0 0 612 841.89"><path d="M213.15,686.68c-.05-4.55.49-12.66-2.35-16.41-2.39-3.16-13.69-4.98-16.4-10.18-17.43,16.98-48.21,38.49-73.72,34.96-4.3-.6-11.54-5.6-12.21-5.6-.61,0-8.14,4.77-10.87,5.73-10.38,3.67-34.44,8.25-43.86,2.66-13.12-7.79,6.68-25.39,12.96-31.15,10.41-9.56,23.25-16.91,31.48-29.04-8.41-.34-16.91,4.78-25.11,6.36-16.6,3.19-40.72,3.58-29.13-20.66,2.45-5.13,15.05-17.36,15.28-18.54.3-1.55-2.02-5.49-2.19-8.3-1.12-18.31,1.54-35.12,5.22-52.89,1.46-7.04,8.03-25.37,7.56-30.69-.21-2.45-3.97-5.49-5.27-8.67-12.7-31.08,11.71-106.91,28.17-135.97,18.66-32.97,39.85-43.52,47.45-84.49,8.53-46,7.68-88.26,31.64-130.57,34.07-60.19,112.86-101.93,182.2-92.26,6.57.92,30.06,6.13,32.65,12.28,1.74,4.15-1.99,8.35-1.13,9.41,1.17,1.45,18.02,6.9,21.71,8.6,38.21,17.65,54.24,42.25,61.92,83.33,3.35,17.89.6,35.62,3.07,51.4,1.18,7.54,9.57,21.84,11.87,31.71,1.84,7.88,2.95,17.19,3.78,25.28.77,7.48-.27,23.94,1.48,29.99.84,2.92,10.64,14.39,13.09,18.38,38.4,62.53,45.65,147.34.47,208.76-7.65,10.39-13.32,18.43-20.57,29.06-22.54,33.07-51.69,60.61-90.07,73.96,3.57,14.05,7.42,20.55,22.52,22.85,23.64,3.61,70.26-.61,78.81,30.15,5.92,21.29-18.43,14.1-20.25,15.98-1.32,1.37,3.78,11.59-9.39,15.42-25.06,7.29-74.53-18.21-103.71-20.31-13.86-1-36.72,3.65-46.66-9.01-4.77-6.07-3.44-16.58,3.25-21.01,8.13-5.4,24.97-8.05,34.29-6.26-3.79-5.6-8.1-11.46-15.28-12.92-20.33,3.77-41.38,4.84-61.62.09-2.1,3.75-15.31,8.96-16.09,11.21-1.22,3.55-.49,15.16,1.67,18.52,3.9,6.08,23.72,9.3,31.44,12.13,14.38,5.28,40.9,20.07,42.96,36.91,3.07,25.05-22.29,17.8-36.32,10.32,1.16,10.79-6.64,18.69-17.5,18.2-26.19-1.2-50.39-42.51-69.03-42.52-13.31,0-22.17,5-36.68.47-15.73-4.91-14.73-20.3-2.3-28.44,2.97-1.94,18.02-8.24,20.81-8.24h19.97Z" fill="#10150f"/><path d="M369.26,74.12c16.38,3.97-3.65,10.14-8.12,13.02-1.18.77-2.16-.13-1.56,2.71,39,2.12,78.15,23.16,93.18,60.53-18.59-5.94-27.02,15.26-26.63,30.27-20.73-21.24-50.2-19.73-69.59,2.41-11.66,13.31-29,49.15-31.51,66.54-4.98,34.37,7.32,69.57,46.07,72.68,13.48,1.08,22.21-2.53,33.81-8.51,2.96,9.3,8.93,6.72,15.21,1.9,12.82-9.85,22.47-35.56,25.06-51.2.66-3.96.95-18.92,2.13-20.87,1.1-1.83,14.24-6.58,16.34-10.88,8.39,18.08,12.85,37.65,14.53,57.51.76,8.96-1.66,20.08,1.82,28.44,1.99,4.78,8.28,10.61,11.27,15.36,8.23,13.05,16.23,26.67,20.8,41.54.07,7.68-5.4-.23-5.92-5.05-1.74-.81-11.23,1.8-10.89,5.59l-2.55.67-3.01-.43c-3.52-5.17-12.39-19.93-12.69-25.57,2.57-6.17,3.04-17.54-5.42-10.48-3.82,5.83-7.39,10.55-13.81,13.84-2.11,14.04-20.15,12.52-28.5,4.45-1.51,1.92-2.33,4.69-2.46,8.31-23.96,26.92-77.26,28.3-104.64,6.21-1.34,3.61-3.33,6.71-5.97,9.29-14.09,1.93-26.96.12-37.65-8.92-3,9.47-6.73,15.94-14.55,21.94-1.34,3.85-3.31,7.45-7.8,5.33-1.87-5.02-4.12-9.78-6.75-14.29-8.58-13.21-18.99-27.2-35.1-31.48-.83,6.03-10.05-1.66-11.29-5.51-5.79.62-10.21.35-13.14-5.14-11.78-3.7-51.98.52-14.46-.03,46.25,5.78,67.13,60.66,76.4,100.26.11,13.21-3.39,30.91-7.26,43.58-2.59,1.5-3.55.04-3.67-2.68,5.5-17.12,4.45-18.63-3.15-4.54-2.14,1.61-3.53,2.59-5.28-.04-5.82-1.81-7.2-12.48-6.18-17.53l-7.93,12.74c-1.02,5.27-3.91,5.9-8.17,2.78-4.96,7.14-16.12,10.56-22.88,4.68-6.56,1.84-14.38-8.4-9.61-14.62l-1.76-3.68c-3.44,5.85-7.9,9.55-13.38,11.09-9.07,10.38-30.84-5.78-27.6-18.23l3.31-11.82c-10.68,8.38-18.95,11.48-25.97-3.29-2.52-5.3-2.83-15.69,1-20.46.08-8.3,1.18-16.77,3.31-25.38-.07-4.04-25.37,27.02-26.52,29.13l-3.52,2.16c-.09,4.12-1.65,6.26-4.69,6.42-.66,4-2.63,13.51-5.5,7.29,9.52-46.41,26.5-78.34,57.38-113.9,3.73-2.34,11.4-25.47,12.81-25.32,1.93-4.55,3.45-12.02,4.57-22.4,2.55-23.24,5.98-46.06,10.3-68.45l3.63-.57c16.48-58.33,47.43-90.56,100.54-116.56,21.86-10.7,50.39-22.35,74.5-20.52,1.46-4.43,7.3-2.88,10.9-1.52l18.24,1.22Z" fill="#ef7423"/><path d="M492.7,376.77c3.71,0,4.63,1.87,2.42,4.84,5.17,17.47,8.72,33.64,8.47,52.06,2.3,3.66-.03,15.5-3.37,9.01,1.39-24.71-7.48-14.52-6.85.91,3.65,4.68,5.14,7.7,3.13,13.61,3.88,13.9-.8,25.77-15.09,30.84-2.86,2-6.36,12.15-6.61,15.57,5.96,7.71-7.29,16.97-12.99,10.87.39,4.24-.37,7.34-5.35,7.11-4.77,4.09-10.04,6.27-14.02,0l-2.12,4.48c-6.1.4-5.84,7.26-4.6,12.02-3.02,4.17-7.86,7.24-14.52,9.2-6.39,7.19-20.16,4.78-28.84,2.31-2.98-2.88-4.1-7.22-3.37-13.01-3.96,9.07-9.25,13.57-15.88,13.5.72,2.3-.02,3.85-2.26,4.81l-15.71,2.32c-2.8,3.12-5.57,4.57-9.27,1.76-5.47,2.79-23.26.4-22.69-7.46-10.34,2.07-12.65-8.6-13.23-16.88-4.41,3.02-10.01,3.35-16.79.97-7.73,2.16-13.39-2.65-18.46-7.91-11.31-2.25-7.39-14-2.25-20.7-9.42,1.25-8.64-5.81-.71-8.63l.96-3.45c-3.55-.95-4.06-4.28-3.85-7.63-3.49,5.07-7.85,8.2-13.06,9.38l-9.27,21.12-3.12.6c18.38-41.5,25.06-89.37,6.05-131.95.33.5,1.76,1.18,2.68,2.71,2.05,3.41,2.69,12.59,8.04,9.2.44-.28.85-3.23,2.05-4.57,2.72-3.03,7.46-6.28,9.53-9.85,2.52-4.33,2.49-11.05,7.35-14.42,6.17,6.11,10.8,9.7,19.75,10.64,2.48.26,15.08.53,16.4.07,3.15-1.11,3.06-9.65,6.17-9.6,5.79.09,7.91,5.67,12.76,8,20.61,9.9,49.84,8.77,71.04.82,5.58-2.09,18.24-9.38,20.12-15.12,1.09-3.33-2.17-6.61,4.03-8.06.6-.14,9.12,5.78,10.73,6.01.73.1,11.92-1.14,12.46-1.46.8-.47,2.09-6.56,3.31-8.18,1.59-2.1,5.27-3,7.16-4.94,2.52-2.59,4.63-6.73,7.06-9.29,1.1-1.15,5.45-.28,4.45-5.25,3.93.83,5.88,5.53,6.55,9.18.74,4.09-1.45,5.66-1.71,8.49-.36,3.95,10.49,20.62,13.3,25.92Z" fill="#ef7423"/><path d="M243.4,518.41c3.4-5.46,9.26-21.82,10.77-23.44,1.18-1.26,3.65-.63,5.62-1.9.71-.46,7.08-6.87,7.29-7.34.74-1.67-2.99-3.13-2.53-6.14.54-3.47,3.49-1.58,4.31-3.11,1.21-2.28.47-8.82,3.57-10.11,2.83,5.38-2.94,21.71-.58,25.44.91,1.44,4.11.08,3,5.33-1.3,6.16-6.74,3.08-7.24,7.96,14.58-2.71,3.7,5.98,2.76,10.63-1.06,5.23-1.02,8.24,4.48,9.95l1.81-6.04c3.68,2.59-2.31,3.56.54,7.63.3.43,7.96,5.82,8.54,6.13,1.94,1.01,5.28-.34,7.59-.16,1.86.15,10.58,1.94,11.79,1.71,2.64-.49,3.79-4.21,7.25-3.22.78,7.36-.15,17.42,9.69,18.15l.58-4.81c5.6.76,1.76,7.91,3.17,9.55.58.68,16.46,3.85,17.36,3.79.73-.05.7-2.5,1.3-2.53,2-.1,3.98,2.72,5.86,2.32,1.29-.27,2.29-2.66,4.06-3.22,4.08-1.29,12.65-1.7,17.3-2.67l-4.84-6.04c3.92-.32,7.67,3.15,11.29,1.11,3.02-1.7,8.25-13,9.85-13.13,6.09-.51,3.02,7.89,3.28,9.94.96,7.69,18.38,4.01,24.37,5.57,1.9-6.1,15.71-8.03,17.65-10.94.41-.62-.98-3.36-.85-4.97s1.42-6.19.86-6.83c-.73-.83-8.31-2.99-9.57-1.31-.69.92,1.16,4.18,1.15,5.55-.04,4.61-8.73,3.19-4.8-3.15l-6.03-.02c.69-2.18,3.93-.75,6.72-2.34,3.5-1.99,7.38-12.6,10.21-9.76.47.47.26,10.54,7.82,8.54,3.58-12.27,4.23-4.26,7.92-1.82,2.93,1.94,6.35-2.03,8.86-3.33,1.09-.57,3.35.29,3.9-.92.37-.8-2.02-7.89,4.61-6.06.96.26.7,2.45,1.41,2.44s5.97-2.68,6.67-3.37c4.5-4.4.02-5.78.17-7.98.05-.76,4.29-13.85,4.74-14.53,3.06-4.66,9.66-5.2,12.56-8.12.33-.34,4.78-7.34,5.06-8.02,1.87-4.49-.32-10.86-.61-15.61-.13-2.17,1.21-4.19,1.06-5.97-.21-2.41-4.51-5.08-4.83-9.85-.22-3.37,1.24-4.5,1.83-7.11.2-.89-.9-2.49-.71-3.39.26-1.23,2.28-1.14,2.92-2.03.54-.75-.33-2.43.7-3.04,1.53-.91,4.32-.7,6.11-1.84,1.6,6.36,1.27,12.86,1.24,19.37,2.3-1.25,1.17-7.24,1.2-9.68,2.01,1.26,1.21,4.59,1.23,6.64.63,51.03-9.64,104.55-46.01,142.26-2.26-1.6-1.45-3.35-.38-5.51-2.62,1.81-6.1,2.61-10.46,2.39l-1.9,4.75c-5.97,6.87-32.07,23.81-39.78,13.18l-12.9,10.16c-3.81,2.58-10.45,5.15-12.97.12-7.5.48-9.1-3.21-11.11-9.57-20.92,16.94-43.01,31.41-68.6,12.25,1.02,3-5.51,24.4-6.72,25.09-3.23,1.88-4.98,1.34-3.39-2,4.51-13.72,6.22-27.97,7.25-42.36l-7.87,22.98-3.01,4.86-2.17-1.15c-4.63,2.65-8.83,1.09-12.59-4.69-11.84,12.37-30.09,19.08-39.73,1.24-11.22,17.09-55.08,12.45-47.17-12.35-4.32-1.79-.46-5.82,2.28-8.25,10.69-7.98,21.32-20.35,28.39-31.67.07-.11-.69-.65-1.63-1.24,10.38-13.31,20.11-28.05,29.04-42.37Z" fill="#ef7423"/><path d="M411.63,310.18c-2.69-10.73-16.37-45.72-27.49-48.17-9.57-2.11-20.47-.02-30.25-4.85-5.54-2.73-16.2-14.4-17.1-20.51-.96-6.44,19.64-44.55,25.23-50.54,22.78-24.47,54.89-11.76,68.42,15.07,11.69,23.18,10.39,53.73,2.9,78.07-3.63,11.82-9.86,25.55-21.7,30.93Z" fill="#453b29"/><path d="M208.31,549.89c-25.17,32.53-58.2,66.15-101.65,69.6l47.19-47.22c.19-.91-1.18-.78-1.79-.58-8.16,2.64-35.43,31.18-44.83,38.69-16.21,12.95-34.48,25.27-56.24,24.24-1.84-1.65,12.48-21.3,14.56-23.56,6.53-7.09,15.45-11.52,22.36-18.79,5.29-5.56,12.74-15.09,17.31-21.43,1.49-2.07,5.56-10.33,6.21-10.71.82-.48,4.51.94,6.65.69,11.85-1.4,20.19-6.98,27.91-15.76,8.06,20.42,25.82,18.6,41.68,7.77,2.14-1.46,8.52-8.8,10.37-8.79,1.37,0,5.92,8.08,10.27,5.85Z" fill="#34612f"/><path d="M290.6,633.41c.08-.01.4,1.93,1.2,1.21s6.51-19.76,6.67-21.18c.3-2.69-1.42-7.1-.6-10.29,3.61-.67,2.83,3.35,4.48,4.9,3.79,3.54,18.65,9.72,23.89,9.66,7.21-.09,13.16-3.42,19.45-6.2,6.13-2.71,2.34-1.23,7.19-4.78,4.85-3.55,9.07-4.96,13.99-10.22.68-.72,1.19-2.02,1.19-3.05,3.8.95,5.25,9.54,6.31,10.62.96.97,5.43.96,7.27,1.59.96.33.84,2.08,1.7,2.25,8.58,1.65,15.66-10.31,22.99-13.13.9-.35,4.81,4.11,7.36,4.45.41.05,7.21-1.88,8.03-2.21,2.42-.98,20-11.33,21.33-12.66,1.92-1.94,1.44-5.57,3.24-6.74,2.95-1.93,8.4-.34,9.92-1.28.68-.42.9-4.39,2.52-5.29.87-.48,2.78.73,4.04.39.49-.13,7.77-6.47,5.71-1.6-1.01,2.39-5.6,4.31-6.84,5.87-1.25,1.59-1.78,5.35-2.83,6.85-.35.5-.88.81-1.21,1.21-5.41,7.39-12.1,13.81-19.36,19.37-2.26,2.08-3.55,3.09-6.05,4.84-4.78,4.25-9.95,8.1-15.73,10.9-1.2.81-2.46,1.61-3.63,2.42-5.47,2.29-10.32,5.11-14.52,8.47-36.08,17.37-76.38,23.76-116.18,19.36,1.64-2.06,7.52-15.57,8.47-15.72Z" fill="#e15826"/><path d="M406.78,684.26c-.48,2.75.12,1.93,1.54,2.71,15.59,8.49,36.33,5.5,49.9,21.49,1.58,1.87,7.2,8.51,4.26,10.34-10.27,6.39-69.24-15.62-84.5-18.45-16-2.96-32.38-.68-46.55-3.07-4.8-.81-12.77-4.95-10-10.61,3.01-6.16,38.53-9.35,45.4-6.05-.02-3.7-1.7-7.31-3.4-10.51-3.23-6.08-8.71-9.12-11.11-14.91,2.07.12,4.08-.07,6.1-.55,3.49-.83,17.23-5.51,18.73-5.49,5.07.09,9.92,13.52,13.22,16.99,17.39,18.29,74.84,2.85,92.11,28.91,7.52,11.34-9.87,9.82-16.84,5.95-11.74-6.52-20.2-16.77-36.48-16.77h-22.39Z" fill="#6c4825"/><path d="M222.83,672.15c8.07,1.22,16.21.97,24.19-1.21,1.26,5.88.52,12.87,1.51,18.48,2.26,12.9,28.67,15.3,39.09,19,13.39,4.76,39.19,19.76,36.87,36.37-8.13.96-16.17-2.22-22.68-6.9-2.74-1.98-4.59-5.74-6.97-7.62-13.22-10.44-28.46-19.3-45.39-21.78,8.77,9.77,37.44,24.38,38.78,38.11.31,3.15.35,7.79-3.33,8.87-18.96,5.58-47.55-37.07-66.89-41.56-7.62-1.77-42.82,5.78-44.7-2.54-1.27-5.6,13.97-13.04,18.78-13.69,5.51-.74,30.75,1.2,30.75-6.76v-18.76Z" fill="#7a502a"/><path d="M76.4,442.14l1.25.66c.72-2.34,1.34-7.8,2.33-9.56.78-1.37,2.88-.41,3.43-.96.66-.68,0-3.5,1.36-5.36.75-1.04,2.84-1.4,3.68-2.38,7.15-8.38,14.27-18.6,22.41-27.22,1.46-1.54,4.28-1.66,5.16-2.71.93-1.11.26-4.2,2.73-4.51,1.63,8.73-2.07,18.41-3.52,27.45-.29,1.82.77,3.74.47,5.38-.42,2.27-2.83,4.12-3.07,7.74-.05.76,1.62,10.51,1.93,11.4.6,1.71,6.95,9.2,8.41,9.35,5.37.57,13.16-8.22,18.77-9.27.68.83-5.62,17.15-4.84,20.96.2.97,1.84.74,2.13,1.43.27.64-.59,2.09.88,4.16,3.36,4.74,13.47,10.12,19.14,8.59,1.18-.32,1.16-2.43,2.12-2.95,1.71-.94,3.8-.73,5.44-1.88,2.67-1.87,10.05-13.82,12.66-12.14-2.3,2.78,1.17,7.61.95,8.83-.51,2.82-3.86,3.66.24,8.75,7.16,8.86,24.95,8.55,29.09-3.05,2.97-.83,2.59,1.93,3.47,2.85,2.86,3.02,2.34-1.16,3.27-2.7,2.94-4.88,6.26-9.4,8.42-14.73,8.51,2.42,3.67,3.95,3.55,7.38-.17,4.74,3.45,8.76,4.26,13.24,4.25,1.18,1.11,5.36-2.58,6.07.36,4.92-1.06,13.14-7.18,9.67-3.29,2.26-7.77,2.39-13.44.39l-4.28.17c-6.27,7.19-10.47,7.82-12.6,1.91-2.41.74-4.86,1.19-7.34,1.36-1.39,8.96-5.17,11.67-11.34,8.12-.19,5.21-6.37,10.54-5.37,3.77l2.41-10.89c-2.29,1.07-3.46,4.01-4.83,6.05-2.89,3.76-7.97-.05-5.81-4.51-2.2-1.05-2.99-2.68-2.68-5.01-5.84,3.49-9.84.13-5.18-5.43l-.41-1.66c-5.63,8.1-9.3,4.09-11.34-4.24-.8,3.19-1.98,5.91-5.41,6.92.26,5.12-3.3,5.34-7.59,5.37-1.86,2.87-7.31,5.15-6.36.08,2.26-6.22,7.38-18,8.48-23.6,1.21-6.1-4.49,4.79-4.85,5.44-3.17.48-5.36-1.96-6.58-7.31-5.69,12.55-10.19,5.26-13.86-4.11-4.93-1.02-5.09-5.07-.47-12.14-3.64-1.94-3.99-5.07-1.03-9.39-2.09.08-4.06-.24-5.89-.95l-1.21-3.02-19.95,53.85c-1.37-1.42-3.28-2.51-3.96-4.51-4.49-13.08,1.76-37.55,4.55-51.16Z" fill="#e35b25"/><path d="M185.31,601.94c0,.19,1.06.98,1.11,1.93.16,2.7-.17,5.41.41,8.08,1.63,7.45,20.09,11.06,26.69,10.09,10.84-1.58,12.1-4.99,19.59-11.6,2.43,1.43,1.87,5.51,3.3,6.98.75.77,2.63.73,3.65,1.48.8.58.94,1.94,1.84,2.33,13.16,5.74,21.92-4.64,31.14-12.01,1.06,0,6.76,16.7,14.26.8.96-2.03-.82-4.2,1.49-5.65,2.92-.57,1.88,2.29,1.52,3.94-.6,2.73-2.35,7.72-3.35,10.58-10.18,29.09-32.96,48.03-65.41,43.04-19.13-2.94-29.13-14.66-35.03-32.14-.28-5.73-1.86-11.5-3.63-16.95-2.34.08-3.19,11.47-3.38,13.92-.12,1.49,1.19,3.47.96,4.8-.73,4.11-8.28-2.25-9.68-2.98-.21-1.77.7-2.83,2.72-3.17-6.17-7.73.06-27.82,11.8-23.46Z" fill="#e45b25"/><path d="M232.51,480.88c.64-.53,2.58-.44,4.28-2.34,1.88-2.1,9.23-16.84,11.44-14.6-.58,6.23-2.85,12.2-4.25,18.17-.53,2.27-1.37,4.07.63,6.03-4.93,16.14-16.21,37.87-28.39,49.68-2.22,2.15-11.36,8.72-11.52,1.86-.07-3.11,7.62-18.09,9.06-23.68.62-2.4,1.41-5.63,1.66-8.03.14-1.33,1.09-4.36-1.05-4.07-4.41,17.51-30.26,48-49.09,48.46-8.82.22-9.87-6.31-8.72-13.68.47-3.03,10.38-26.09,11.81-26.32.08-.01.38,1.92,1.2,1.21.92-.8,2.14-8.15,2.45-8.47s6.07,3.88,8.45,2.42l2.43-8.47c-.7-.64-5.39,2.3-3.6-5.2.23-.95,2.09-1.13,2.78-2.33,2-3.44,4.78-12.48,8.08-3.38-7.63-.34-1.02,5.99-8.47,6.66,4.41,6.95,7.43.89,11.24,1.96,2.98.84,2.76,5.86,5.07,4.69,3.91-10.8,13.66-6.13,22.4-4.84,1.1-5.48-7.86-1.02-8.46-4.25-.83-3.77,8.31-3.18,9.63-2.41,3.29,1.92.89,6.13,4.87,5.45-.33-2.05,1.56-4.81,1.32-6.49-.1-.69-10.03-5.61-3.75-8.04.17,3.29,2.33,4.21,5.48,3.7,3.47-.56,2.61-3.36,3.02-3.7Z" fill="#e25926"/><path d="M136.55,623.05c9.2-.9,17.37,7.13,23.33,13.39-17.83,17.65-39.4,39.06-63.3,48.03-5.45,2.04-26.83,7.8-31.6,7.07-2.5-.38-4.61-2.17-3.85-4.89,1.83-6.54,27.65-25.34,34.06-31.41,12.15-11.52,23.12-30.4,41.36-32.19Z" fill="#1f3d1c"/><path d="M331.76,249.66c6.33,4.62,12.6,12.8,19.73,15.96,9.26,4.1,25.51,2.67,31.69,7.04,5.07,3.58,17.24,24.97,16.16,30.58-1.48,7.63-16.43,13.25-23.44,13.08-13.37-.31-29.64-6.03-36.54-17.99-7.72-13.37-10.15-33.59-7.6-48.68Z" fill="#3d3422"/><path d="M369.26,74.12l-18.77.61c-8.46-5.71-7.87,1.78-8.53,1.89-5.86.99-13.2-.85-18.01-.03-7.15,1.22-18.67,5.67-26.1,7.93-26.05,7.93-68.41,29.89-88.37,50.69-18.09,18.85-27.85,38.73-36.88,62.38-2.56,6.69-5.31,13.5-6.66,20.57l-3.61-6.04,1.19,4.85-2.41-.61c-5.59,29.09-6.78,58.91-13.34,87.78-.52-.19-.98-1.2-1.19-1.23,9.9-52.39,7.88-109.14,40.16-154.13,38.92-54.24,115.79-90.86,182.52-74.67Z" fill="#ef7423"/><path d="M121.17,499.04c.32,2.27,4.1-.84,4.32-1.2,1.07-1.77-2.31-5.28,1.13-7.27-.5,8.31,10.6,7.46,4.23,0,7.96,2.87,6.76-5.37,7.34-5.97.27-.28,5.75-.29,7.17-2.51.53,2.34-1.9,2.69-1.84,4.9.03,1.31,1.12,5.67,2.48,5.98,3.69.86,1.46-6.69,5.98-4.78,4.11,1.73,3.47,6.59-.55,8.41,4.45,2.13,6.26-3.76,6.65-3.61,2.69.99,1.48,6.89,1.83,7.27,2.08,2.22,4.9-4.45,7.25-2.42l-6.04,7.87,4.83,1.81c-9.27,13.9-25.54,37.88-41.53,43.81-5.22,1.93-13.75,4.46-16.03-2.57-3.98-12.28,8.39-37.61,12.78-49.71Z" fill="#e25926"/><path d="M96.97,446.98c2.41-3.16,6.34-.89,9.68-1.2.56.39-3.63,6.55-3.67,7.83-.04,1.1,2.48.83,3.15,1.8,1.31,1.91-2.23,8.65-4.29,10.34,1.06,2.07,2.56.38,3.64,1.38,3.31,3.07,3.1,8.63,6.62,11.31,2.74-1.29,3.85-9.14,7.24-8.44,1.8,3.86,2.53,7.54,5.46,10.89-6.44,11.4-24.62,47.95-37.19,50.63-13.69,2.92-7.33-21.66-6-29.06,1.78-9.86,4.51-20.64,7.22-30.3,1.41-5.02,5.73-22.01,8.13-25.16Z" fill="#e35a26"/><path d="M492.7,376.77c1.04-8.65,8.34-6.82,13.88-9.7,1.93.34,3.52,9.04,4.28,9.69.82.7,1.11-1.21,1.2-1.21,2.76.01,8.99,32.9,9.51,37.1,3.96,31.95,1.59,64.2-11.94,93.64-2.07.31-1.29-2.88-1.18-4.2.6-7.24,3.18-15.39,3.66-22.98,2.23-35.28-1.27-66.03-16.99-97.5-.79-1.59-1.6-3.29-2.42-4.84Z" fill="#e66225"/><path d="M101.8,532.94c-1.27,6.52-2.26,12.06.32,18.44.86,2.13,4.19,5.38,4.37,6.59.2,1.32-13.89,18.47-16.17,20.98-2.6,2.87-20.52,21.31-23.61,18.14-1.35-20.89,2.58-41.3,6.05-61.74,3.09-.11,5.25,2.77,8.14,3.36,8.35,1.72,13.51-3.72,20.89-5.78Z" fill="#34612f"/><path d="M251.87,444.56c-3.87.44-1.5-.67-1.93-2.53-5.67-24.59-23.77-63.4-42.18-81.04-7.3-7-21.7-12.82-31.91-14.21-7.65-1.04-16.63,2.96-21.98-3.3-.05-.58,10.04-3.28,11.07-3.42,2.93-.38,25.06,1.43,26.41,2.13,1.7.88,1.61,3.39,3.39,4.26,3.09,1.53,9.64.25,10.02.57,1.05.87.84,5.26,4.17,5.55.31.03,1.03-4.78,3-2.43.49.59-1.74,4.27-1.2,4.82,1.13.19,2.65-.25,3.63,0,17.09,16.78,30.44,37.48,34.74,61.49,1.5,8.38,2.71,19.62,2.78,28.09Z" fill="#ef7423"/><path d="M186.52,651.59c.68.81-.09,1.64-.74,2.39-2.6,3.03-7.55,6.99-10.78,9.66-15.22,12.51-33.27,22.91-53.82,20.61-3.31-3.25,14.4-13.01,16.95-15.11,10.37-8.51,19.58-18.6,28.53-28.51,1.17-.03,11.45,5.23,13.04,6.26,1.01.66,6.55,4.38,6.82,4.7Z" fill="#1f3d1c"/><path d="M446.72,236.33c1.04-3.48-1.2-8.59-.88-11.36.29-2.58,7.6-10.56,8.81-16.41,2.06-9.96.23-21.31-3.39-30.65-3.27-8.45-6.02-15.5-16.66-12.41,7.01-15.17,19.59-11.21,24.56,3.3,5.86,17.11,11.61,62.15-12.44,67.52Z" fill="#f6d085"/><path d="M214.36,560.78l6.04-3.63c.97,1.16-2.93,6.27-3.84,7.65-5.37,8.06-12.85,17.69-19.56,24.62-3.37,3.48-11.77,7.13-11.68,12.53-2.36,1.49-8.35,3.25-9.75,5.69-.7,1.21-2.41,12.91-2.17,14.05.65,3.19,7.11,1.8,4.65,4.45-.46.49-5.89,2.67-7.25,2.44-6.1-3.19-12.54-5.62-15.73-12.67,22.52-15.17,42.59-33.7,59.3-55.12Z" fill="#e45b25"/><path d="M440.32,177.19c6.9-1.92,9.16,8.87,2.86,10.18-5.22,1.08-9.22-8.4-2.86-10.18Z" fill="#f0d58e"/><path d="M438.24,603.15c4.87-4.49,15.49-14.63,19.36-19.37-4.19,7.2-12.18,15.16-19.36,19.37Z" fill="#ed7123"/><path d="M432.19,607.99c-3.97,4.54-9.89,9.22-15.73,10.9,5.09-3.45,10.68-7.36,15.73-10.9Z" fill="#ed7123"/><path d="M186.52,629.78c-1.83-5.41-3.63-11.13-3.63-16.95,1.91-.07,5.79,14.64,3.63,16.95Z" fill="#ed7123"/><path d="M412.83,621.3c-5.3,3.68-8.52,5.58-14.52,8.47-2.68-.92,1.79-2.76,2.38-3.06,3.89-2.01,7.88-4.27,12.14-5.41Z" fill="#ed7123"/><path d="M269.74,141.01c70.45-9.6,70.15,114.24-1.51,108.62-60.65-4.76-51.2-101.43,1.51-108.62Z" fill="#11120d"/><path d="M458.81,522.04c1.74,2.19-4.01,5.53-4.83,1.79-.69-3.17,4.02-2.81,4.83-1.79Z" fill="#f6921f"/><path d="M428.55,258.13c-2.49-.43-1.87-2.68-2.41-4.23-6.85-19.31-8.17-40.58-24.15-55.74-4.27-4.05-16.05-7.09-14.4-13.02,1.83-6.57,13.14-1.86,17.18.54,23.32,13.83,23.01,48.57,23.78,72.44Z" fill="#836239"/><path d="M170.8,500.24c3.61-4.63-4.61-5.11-4.83-7.87s4.53-.46,4.72-.61c1.18-.96.92-10.49,7.86-8.4,4.75,1.44-.48,4.68-1.08,6.05-.52,1.18.38,2.83-.1,3.59-.69,1.1-5.36,4.67-6.56,7.23Z" fill="#e25926"/><path d="M128.44,480.88c6.02-.61,10.05,3.74,3.17,5.96l-3.17-5.96Z" fill="#e25926"/><path d="M268.53,148.28c67.14-9.36,61.11,104.88-1.23,95.03-50.15-7.92-43.1-88.85,1.23-95.03Z" fill="#f8d187"/><path d="M272.17,160.38c22.53-2.83,34.01,23.52,31.43,42.36-5.58,40.74-56.18,37.45-58.96-3.33-1.17-17.1,9.14-36.72,27.53-39.02Z" fill="#101610"/><path d="M286.66,191.24c-6.16,6.5-16.47-.11-13.95-10.94,3.7-15.94,22.4,2.03,13.95,10.94Z" fill="#f6d48c"/><path d="M250.88,435.79c2.01,15.71-1.69,31.63-9.12,39.75-10.11,11.04-23.01,3.19-29.14-8.92-1.11-2.19-5.27-10.41-4.76-22.06.77-17.58,11.44-26.1,11.9-26.44" fill="#ef7423"/><path d="M485.47,534.54c6.14,6.61-15.71,41.28-44.49,66.06-35.13,30.24-95.41,57.9-126.07,35.94-11.99-8.59-21.51-25.09-17.04-33.38,4.8-8.89,24.58-6.34,34.04-5.72,77.03,5.06,143.7-73.52,153.56-62.9Z" fill="#ef7423"/><path d="M295.42,598.14c-1.84-3.73-14.38.53-36.04,2.7-22.69,2.27-35.53,3.55-41.37-3.4-9.05-10.79,4.89-34.13.88-36.07-3.01-1.46-10.19,12.01-25.92,27.93-13.92,14.1-29.71,25.25-29.36,25.71.32.42,11.53-11.08,19.27-7.93,4.36,1.77,4.82,7.06,7,11.66,7.54,15.89,35.75,23.65,57.6,18.94,14.73-3.17,23.09-11.33,39.83-27.65,7.7-7.5,8.88-10.32,8.11-11.88Z" fill="#ef7423"/><path d="M138.94,462.66c-17.66,1.04-32.01-14.07-35.13-17.57-18.85-21.09-12.48-48.16-11.9-50.43.85-3.33,6.3-23.44,26.07-34.57,22.94-12.91,54.37-7.65,66.86,9.07,21.26,28.46-11.36,91.45-45.9,93.5Z" fill="#ef7423"/><path d="M79.47,428.68c2.41-7.39,4.63-14.13,6.62-20.12,5.41-16.3,7.86-23.3,11.2-23.31,1.23,0,2.33.95,3.57,2.67,7.31,10.16,1.29,21.91,3.32,43.22.89,9.36,3.08,17.9,2.21,18.12-1.19.3-4.69-15.93-9.63-15.87-2.37.03-2.83,3.76-8.36,10.2-3.85,4.49-10.06,10.17-12.04,8.92-.54-.34-1.04-1.38-.28-4.82" fill="#e25926"/><path d="M238.29,504.45c3.12-1.66,5.3-10.62,9.54-28.47.16-.68,3.82-16.15,2.98-16.39-.49-.13-1.49,5.11-5.45,10.89-2.16,3.15-7.49,10.95-12.85,10.39-7.19-.75-9.86-16.03-14.31-15.28-1.33.22-1.48,1.65-3.64,4.38-3.78,4.79-8.6,7.12-10.53,7.9-6.82,2.74-17.29,2.03-20.21-3.02-.97-1.68-1.21-5.78-1.7-13.98-.14-2.29-.17-3.76-1.07-4.18-.72-.34-2.08-.04-8.94,6.82-4.94,4.94-4.66,5.21-6.42,6.42-1.48,1.02-6.81,4.69-12.47,3.21-7.31-1.92-10.23-11.18-10.39-11.71-1.18-3.95-.69-7.4-2.08-7.74-1.2-.3-2.03,2.19-4.7,3.8-2.95,1.78-6.16,1.28-9.66.73-3.79-.59-10.11-1.57-15.3-6.8-5.53-5.56-6.6-12.73-6.75-13.82-.77-5.63.79-10.11-1.37-11.3-1.29-.71-2.26.66-4.72.57-5.19-.19-8.75-6.59-9.07-7.18-3.23-5.97-1.29-11.71-2.27-11.9-1.43-.29-5.11,12.27-6.73,18.05-2.92,10.41-4.39,15.76-5.11,22.41-.71,6.58-1.53,21.04,1.26,21.68,1.67.38,5.2-4.05,13.6-27.2,1.76-2.63,4.06-5.27,6.23-4.91,3.35.56,2.61,7.66,7.74,15.49.52.8,6.07,9.03,16.05,12.66,7.73,2.81,9.62-.24,15.87,2.64,7.78,3.59,7.13,9.37,14.35,14.92,3.99,3.06,7.33,3.71,25.12,6.04,28.76,3.77,26.77,2.95,30.79,3.97,20.23,5.14,25.51,14.45,32.17,10.9Z" fill="#e25926"/><path d="M115.59,459.03c3.8.42,9.24.43,14.73-2.12,5.71-2.65,8.59-6.73,10.86-5.59,1.77.88.79,3.74,3.09,10.55,1.03,3.04,1.66,4.9,3.19,6.66,2.4,2.77,6.95,5.25,11.4,4.62,6.73-.95,13.03-8.98,17.5-14.68,1.16-1.48,2.74-3.62,3.97-3.26,1.29.38,1.18,3.24,1.95,8.24.96,6.27,1.44,9.41,3.29,11.74,2.97,3.74,8.87,4.63,12.94,4.07,7.58-1.04,16.18-8.13,19.21-14.42.39-.8,1.34-2.95,2.69-2.97.99-.02,1.91,1.11,3.4,4.11,2.68,5.38,2.66,7.66,4.17,10.45.73,1.35,3.72,6.83,7.16,6.69,3.8-.16,5.63-7.09,7.08-6.66,1.25.37,2.15,6.18-.28,10.34-4.47,7.64-18.62,7.03-38.69,6.18-9.42-.4-17.37-.79-27.94-3.39-12.96-3.2-20.49-5.05-28.43-11.14-6.67-5.12-9.08-9.75-16.86-11.76-4.96-1.28-7.2-.24-12.3-1.63-7.02-1.92-11.9-6.4-14.9-9.84" fill="#e25926"/></svg>