<?xml version="1.0" encoding="UTF-8"?><svg id="winner" xmlns="http://www.w3.org/2000/svg" viewBox="0 0 612 841.89"><path d="M205.76,689.52c3.45-1.14-.88-26.2-2.09-27.65-.85-1.01-20.71-5.98-23.26-10.67-1.89-.48-16.03,8.61-20.01,10.14-8.04,3.09-25.31,6.85-33.66,6.81-4.72-.02-11.26-2.84-15.81-2.29-12.07,1.44-23.03,11.96-39.22,10.45-20.85-1.94-.21-24.75-1.83-26.62-8.03,6.51-26.9,10.83-33.08-.1-7.34-13,7.25-32.7,14.3-43.07-15.7-.49-13.12-25.22-12.57-37.23,1.14-24.83,9.99-46.81,12.48-69.12,1.08-9.64-1.83-25.68-1.21-37.12,3.08-57.34,26.25-91.64,53.17-137.5,24.56-41.85,18.92-92.9,31.71-139.02,26.97-97.23,118.47-151.77,211.4-146.46,12.56.72,58.88,4.25,42.43,27.92-1.11,1.6-4.08.48-3.05,4.01,63.14,11.02,99.86,71.48,103.93,136.14.7,11.1-1.45,25.37.09,35.76.76,5.15,6.52,14.09,8.34,20.37,7.06,24.47,4.15,47.25-3.21,71.06,44.9,57.75,55.38,156.16,6.72,214.77-5.13,6.18-12.9,11.74-17.48,17.32-4.28,5.22-8.62,15.64-12.94,22.13-15.74,23.61-36.81,42.71-60.79,56.38-8.18,4.67-22.66,5.84-15.72,20.17,1.04,2.14,5.1,6.07,7.3,6.87,8.33,3.04,22.8,2.89,32.62,5.25,17.83,4.28,48.99,15.55,43.55,40.89-2.78,12.96-22.58,9.2-23.52,10.24-.32.35-.14,6.54-1.54,9.66-3.72,8.26-12.53,8.57-20.08,7.29-15.81-2.68-40-20.57-57.86-26.29-13.68-4.38-26.28-4.1-39.53-7.21-12.66-2.97-20.54-9.2-11.77-23.2,7.38-11.78,18.59-11.13,30.6-10.73l-3.77-11.95c-4.97.9-10.68,2.2-15.65,2.65-13.18,1.2-29.28,1.53-42.41-.15-9.46-1.21-32.34-9.32-38.62-8.82-5.47.43-5.13,1.7-4.72,6.95.84,10.68,2.76,21.84,12.51,26.6,17.71,8.64,51.84,15.42,54.98,41.29,3.06,25.24-19.11,19.41-33.69,13.84,1.34,24.97-17.84,21.97-33.42,13.52-20.19-10.94-28.89-31.73-55.02-34.61-10.74-1.18-24.31,2.77-33.09-6.08-8.58-8.65-1.55-20.71,6.7-26.21,2.97-1.98,13.51-6.38,16.52-6.38,4.54,0,18.28.99,21.29,0Z" fill="#101610"/><path d="M461.85,241.98c2.55-2.6,4.79-5.76,6.73-9.46,7.59,3.02,6.46-10.14,2.35-13.67-.22-9.62-1.16-19.27-2.82-28.96.2-.45,7.88-3.27,8.3-1.76,3.24,20.88,3.72,41.76,1.44,62.64-4.32,2.02-2.7,7.67,1.57,8.3.93,3.53,2.13,4.25,3.61,2.16l2.63,2c11.67,30.82,3.76,69.3-14.01,96.04-2.2,3.31-15.69,18.29-13.54,20.82.94,1.1,7.66-5.86,6.24-.68-.95,3.47-7.82,13.45-10.23,17.05-10.36,15.49-23.19,30.81-37.97,41.62-25.05-14.11-54.42-13.41-79.62-.14-45.77-31.14-89.63-65.59-136.38-95.01l16.92,25.21c21.13,41.39,15.6,94.78-5.44,135.04-3.33,6.37-17.91,31.21-26.57,25.07-6.77-4.81,3.3-36.29,1.94-44.54-8.34,20.61-20.76,44.43-39.06,56.85-4.49,3.05-10.49,8.04-15.52,3.67-14.38-12.52,5.79-54.45,6.35-71.15l-12.76,24.31c-13.5,25.05-47.97,49.01-43.43-.91,1.55-17.05,9.46-35.03,9.86-52.61l-10.18,25.7c-1.52,5.25-15.67,27.1-21.17,22.83-1.84-1.43-1.51-25.02-1.25-29.34,1.8-30.02,15.11-66.77,28.64-93.13,14.98-29.2,32.96-45.33,40.29-80.11.53-.53,1.63-3.56,3.31-9.08,3.34,1.97,5.24-6.91,4.76-7.02-5.89,3.8-3.59-11.62-2.31-12.32,7.71,2.28,7.9,1.77.57-1.54,3.2-11.72,15.16-5.85,17.54,3.86,5.74-7.94,8.16,1.24,9.51,7.15,3.36-1.35,6.22-.37,8.02,3.01,4.11-3.41,8.87-3.42,14.27-.04l3.55-3.19c-5.09,1.03-7.59-2.69-6.28-7.74-13.37,1.75-11.14-11.76,1-10.31-1.81-5.62,2.22-7.79,6.41-4.27,11.04-5.45,14.07,10.12,2.47,7.49,6.03,3.27,8.68,7.75,7.95,13.46,4.72.04,6.31-.67,4.79-2.13,3.85-8.96,9.28-8.93,14.79-1.55.8-6.99,2.82-9.53,6.08-7.63h4.22c16.98,13.09,37.43,12.93,56.78,6.26,2.42-.18,3.31.92,2.63,3.34-42.46,77.89,93.46,166.59,124.13,69.88,29.39-13.34,28.02-51.99,24.77-80.58,9.05-2.69,15.29-7.62,21.19-15.41l2.96.57Z" fill="#e98a3d"/><path d="M128.75,289.79c13.16-62.48,6.8-110.48,48.19-164.69,41.33-54.13,131.04-87.33,195.03-70,2.06.56,9.08,2.39,8.43,5.52-1.35,6.51-26.06,11.87-30,18.01,41.45-.21,83.43,19.03,106.73,56.15,12.58,20.05,21.91,51.97,23.5,76.01.8,12.2-2.77,27.94-1.17,38.43.45,2.97,4.62,9.86,6.2,14.01-4.17.23-4.78,5.62-7.08,6.45-4.93,1.78-7.64-1.19-6.68-6.45l4.38,2.63c5.39-6.63-.18-4.44-1.57-5.52-1.17-.92-.92-4.76-2.22-6.38-1.62-2.04-7.15-2.34-8.08-7.34,4.01-5.8,5.62,3.22,7.04,3.44,7.12,1.09,4.43-4.15,4.77-6.1.4-2.25,1.78-3.83,1.97-6.59,1.11-16.18-.44-32.57-2.56-48.5-2.08-.53-.47,2.15-2.13,2.68-.98.31-2.21-.12-3.21-.02-2.46.26-1.46,6.87,4.08,2.64,1.4,6.1-2.74,3.08-3.6,4.06-2.38,2.71,1.74,9.66,1.99,11.42.26,1.85-1.3,3.9-.72,6.14.4,1.56,2.61,2.57,3.31,4.58.36,1.03,1.52,9.27,1.34,10.06-.61,2.66-7.74,9.6-7.94,3.58-2.19,2-2.64,5.18-4.42,7.46-1.62,2.08-2.39.41-2.48.51l-.96-3.34c18.61-35.43-9.04-113.18-54.33-96.83-19.61,7.08-26.72,27.21-28.61,47.3-34.68-2.43-48.29,25.89-58.17,55.53.15,7.98-17.67,20.62-22.29,17.94-1.03-.6-2.9-1.74-3.09-2.43s.03-1.53.36-2.4c45.79-33.45,18.84-133.08-40.82-117.46-40.72,10.66-54.35,61.54-41.99,99.82,4.97,3.92,9.47,8.79,13.51,14.61l-.28,3.2c-3.89,1.88-2.29,7.08-3.77,10.63-5.57-.41-5.89-1.89-8.14-6.64-.37-.11-6.49,3.79-6.7,4.14s.86,2.02.79,3.12c-.09,1.45-1.21,3.92-.85,4.5.29.46,4.89,2.09,5.52,4.15l5.63-6.61c2.31,5.25-9.08,12.01-12.43,12.66-2.27.44-4.87-2.95-6.21-1.93-.76.58-1.47,6.97-6.91,2.63-3.62-2.89,1.67-4.53,2.4-5.37,1-1.15,1.72-3.48,2.13-3.73s10.78-.92,7.24-4.26c-.67-.63-6.07,2.96-7.13-2.2-.35-1.7,1.3-3.8-.43-6.32-1.44-2.1-6.71-2.63-7.29-6.96-.7-5.23,6.72-1.1,7.35-1.79.18-10.53-6.24,1.61-10.64-5.28-5.07,2.63,4.7,4.1.65,5.97s-13.54-1.84-10.66,5.97c13.81-1.91,7.33.89,8.18,5.9.61,3.6,5.78.34,6.21.72.15.13.97,3.48.71,4.04-.16.35-4.88,5.31-5.24,5.35-4.11.43-12.07-8.18-14.26,2.57-1.11.84-3.55-5.29-4.99-6.06-1.95-1.04-5.18,1.5-6.24.74-.72-.51-2.93-21.28-6.33-4.66-1.58,7.76-3.46-4.75-4.06-6.25-2.67-6.69-8.41-9.62-13.43-3.7,13.42-.93,6.15,10.62-2.49,4,.19,1.6-.34,7.72,0,7.96,1.06.75,4.9-1.74,5.6,2.67,8.67-6.15,6.2-1.3,8.11,3.03.47,1.06,4.22,1.21,2.56,6.25-5.31,1.24-2.71-2.45-5.74-5.17-.79-.71-6.13-3.39-6.77-2.78,1.73,5.5-.56,8.7-6.27,7.97-1.39,6.13,3.11,2.44,5.02,6.62l-6.25-1.33-.02,2.06-1.24-.71Z" fill="#e98a3d"/><path d="M225.17,502.27c4.56-15.8,10.91-31.06,13.41-47.53,2.11-13.87,1.92-27.73,2.24-41.44,12.53,12.79,26.36,24.45,40.11,35.81,7.91,6.53,16.79,14.26,25.64,18.65-16.62,31.5-14.95,67.69,0,99.58-5.64-3.23-9.47-9.25-11.51-18.05,4.44,31.19,29.52,57.81,59.16,61.62,11.51,11.52-18.89,15.02-24.76,15.6-13.56,1.36-31.22,2.43-40.3-10.19l-3.91,14.78c-2.43,2.64-5.63,1.82-3.74-1.35.78-6.07,3.21-11.8,3.74-17.95.13-1.52,1.04-7.28-1.22-7.27-13.89,50.1-56.36,61.04-97.69,37.17-1.04-2.4-.39-3.92,2.05-3.65,11.33,6.4,40.96,16.19,12.87-.22-17.5-19.2-21.27-45.95-7.17-68.74,7.01-12.12,13.62-24.61,19.85-37,4.6-9.14,9.87-20.12,13.46-29.7.04-.11-1.07-.23-2.25-.14Z" fill="#e98a3d"/><path d="M306.57,567.34c7.94,11.95,17.41,22.35,30.44,28.14,42.18,18.76,88.94,3.93,111.07-38.77,3.27-5.77,7.46-5.46,12.59.92l4.09,1.43c8.62-13.27,15.86-8.27,8.36,5.62-42.05,78.88-126.38,107.41-207.87,88.97.39-4.43,5.17-5.79,8.04-9.39,2.06-2.59,7.05-14.31,8.24-14.51.11-.02.68,1.13,1.18,1.33,1.68-6.51,4.41-12.93,3.84-19.92,1.23-1.57,8.13,8.17,8.79,8.54,1.71.97,12.11,4.41,14.35,4.74,6.65.98,30.51-1.19,36.99-3.25.42-.13,7.22-4.37,7.47-4.75.55-.85-.22-2.67-1.22-3.32-1.81-1.17-13.48-2.78-17.19-4.34-15.67-6.59-29.28-23.38-37.48-38.61-5.16-9.59-8.1-34.55-7.85-45.86l2.38-10.09c-.6,18.64,3.81,38.09,13.79,53.11Z" fill="#e98a3d"/><path d="M373.94,437.6c92.56-5.75,100.26,145.94,12.15,154.96-104.53,10.71-108.01-149.01-12.15-154.96Z" fill="#f39820"/><path d="M448.08,556.71c12.93-29.01,12.49-64.03-4.72-90.98,20.59-19.73,35.55-41.92,43.51-70.41.54-1.91-.77-2.34,2.52-1.96,5.54,31,10.65,59.14,7.51,90.96-2.78,28.22-10.68,55.77-23.78,80.35l2.5-10.62c-10.03-.71-5.06,12.28-16.19,5.87-3.03-1.74-3.8-6.11-9.3-4.58-1.2.33-.63,4.02-2.06,1.36Z" fill="#e98a3d"/><path d="M238.94,664.28c1.54,14.9,2.51,28.62,15.42,37.45s52.44,17.01,53.44,37.73c.29,6.06-5.98,4.97-10.33,4.18-13.51-2.45-29.9-19.16-42.09-27.07-2.15-1.39-14.91-9.8-15.82-9.76-.68.03-2.95,2.82-1.24,3.99l26.95,25.83c4.42,3.94,13.18,21.65,3.11,22.06-15.11.61-37.04-27.64-52.37-34.9-15.39-7.28-26.7-4.12-41.27-6.7-20.76-3.68,3.61-17.68,14.68-18.32,5.77-.33,11.48,1.76,16.17,1.32,18.09-1.7,10.24-23.46,8.3-35.8,8.66-1,16.59,3.39,25.03-.01Z" fill="#6c4825"/><path d="M395.49,696.16c-.55,2.92,1.33,3.01,3.07,4.04,12.01,7.13,41.74,12.77,46.71,30.16,3.66,12.81-16.59,3.35-22.19.94-25.51-10.96-38.67-22.81-68.45-27.01-6.08-.86-32.27,2.02-23.01-10.14,7.28-9.55,26.81-3.06,31.34-7.92,4.39-4.72-3.98-20.38-2.54-21.94l21.28-5.32c3.29,27.89,27.51,24.29,47.37,28.79,11.41,2.59,42.5,9.95,39.81,27.71-.81,5.35-14.98,5.47-18.67,4.31-2.43-.76-7.57-8.06-10.3-10.32-11.65-9.67-30.06-11.93-44.42-13.3Z" fill="#6c4825"/><path d="M146.28,554.07c-11.27,13.66-21.71,29.14-33.17,42.5s-43.66,46.41-60.23,49c-5.96.93-10.3.96-9.08-6.84,2.77-17.7,27.29-41.28,37.14-56.34,12.1-18.49,18.23-41.18,34.66-56.21,2.03,12.65,5.53,31.88,21.08,31.41,3.92-.12,6.13-2.86,9.59-3.52Z" fill="#34612f"/><path d="M495.68,539.45c14.16-41.92,14.47-88.2,5.64-131.49-4.36-21.35-13.85-41.9-13.15-63.73,40.49,53.29,50.71,140.66,7.51,195.22Z" fill="#e98a3d"/><path d="M225.17,502.27c2.62-5.85,6.84-11.4,7.53-18.58,2.2-.3,1.39,4.66,1.16,5.88-1.85,9.85-15.17,38.55-20.12,48.93-6.32,13.26-15.38,26.55-21.36,39.89-9.55,21.33-3.2,41.97,11.47,58.6,6.57-.82,11.15,8.72,15.05,14.01-10.11-.94-18.39-4.42-27.56-8.6-1.3-.59-4.19-3.43-4.99-.68-3.91-2.26-8.43-5.04-11.87-8-4.36-3.75-23.03-23.23-21.79-28.27,8.88-8.62,17.6-17.9,25.54-27.46,21.12-25.41,33.26-45.15,46.94-75.72Z" fill="#c45728"/><path d="M98.69,535.48c-12.97,22.04-24.3,50.79-47.57,62.4-3.73-11.44-3.5-24.45-2.51-36.51.82-9.9,7.14-48,12.65-54.31,2.78-3.17,9.29-4.91,12.37-8.78-5.16,19.66,2.12,43.99,25.06,37.2Z" fill="#34612f"/><path d="M192.61,539.46c1.27,1.14-6.55,10.76-7.58,12.54-11.18,19.43-24.87,35.24-41.38,50.41-12.04,11.07-27.06,23.6-43.71,23.36l72.65-98.26c3.97,1.93,2.74,7.32,6.29,9.9s9.51,2.02,13.72,2.05Z" fill="#34612f"/><path d="M231.44,377.45l95.15,68.38c-3.3,1.21-13.06,14.19-14.28,13.88l-72.67-59.77-8.2-22.49Z" fill="#9a4633"/><path d="M145.01,615.15l3.75,7.31c-14.6,14.13-26.01,27.72-44.73,36.2-4.05,1.84-28.28,10.42-30.38,8.28.1-6.33,5.37-10.61,7.76-16.32,1.1-2.64,1.77-9.82,3.45-10.95,1.85-1.26,5.49-.25,7.9-.92,5.93-1.64,14.67-3.56,19.96-5.39,11.51-3.98,21.23-13.21,32.28-18.2Z" fill="#1f3d1c"/><path d="M480.64,380.75c-.77,6.93-6.81,25.43-9.8,32.11-7.3,16.29-20.92,32.28-33.41,44.23l-13.13-12.6c19.68-17.79,36.36-39.46,49.29-63.24l7.04-19.76c-.49,6.16.67,13.24,0,19.26Z" fill="#9a4633"/><path d="M168.82,645.67c-14.79,8.94-31.02,9.88-47.58,11.96,10.54-10.08,25.11-16.04,30.07-31.86,4.83,6.2,11.03,11.23,16.18,16.68,1.03,1.1,1.79,1.18,1.33,3.22Z" fill="#1f3d1c"/><path d="M225.17,257.91c-6.06-5.01-7.33-9.64-11.21-13.73-1.16-1.23-2.86-.5-3.89-1.74-.77-.92-4.67-20.96-4.93-23.72-2.93-30.88,12.29-67.65,40.97-78.7,66.89-25.77,100.98,82.38,49.18,120.54,3.97-1.56,9.62-2.2,13.24-3.88,7.96-3.69,15.87-33.79,21.58-43.51,10.38-17.68,26.37-28.57,46.58-25.63-1.1-27.9,19.17-53.45,46.83-50.32,36.77,4.16,58.02,74.17,38.32,104.76-6.57,7.07-11.85,15.43-22.54,15.94,5.74,22.75,3.33,62.86-16.86,77.06-2.19,1.54-6.22,1.93-7.52,3.98-1.59,2.5-3.15,11.34-5.92,16.3-16.84,30.19-57.55,33.31-84.49,17.09-32.68-19.67-63.56-69.18-36.73-106.45-22.04,8.8-43.71,7.64-62.61-7.98Z" fill="#101610"/><path d="M155.05,256.58c-2.23-2.3,3.88-5.69,3.72-7.3-9.63-4.18-5.61-9.86,3.81-6.66l-.62,9.9c-.77,1.86-5.49,5.53-6.91,4.06Z" fill="#e67c25"/><path d="M142.47,245.88c-.2.29-2.34.23-3.08,1.37-1.48,2.31,1.06,6.29-3.12,5.34l3.76-29.21c5.95,3.43-.2,10.61-.11,15.33.05,2.75,3.33,6.06,2.54,7.17Z" fill="#e67c25"/><path d="M367.66,453.5c86.95-11.08,86.92,122.97,10.87,125.81-75.62,2.82-78.02-117.26-10.87-125.81Z" fill="#a94e25"/><path d="M310.15,284.68c-1.44-.95-5.4-.25-6.84.99-4.39,3.8-2.21,14.78-.87,19.79,11.11,41.56,57.19,64.92,91.69,36.67,1.69-1.39,11.25-12.84,12.62-11.17-.73,36.17-42.95,47.3-69.72,36.09-27.6-11.56-62.02-55.01-46.96-87.46,7.54-16.24,18.51-8.91,27.06-17.78,18.21-18.88,15.47-67.39,55.24-63.71,44.19,4.1,72.44,75.54,54.65,116.5-10.35,23.81-13.39,1.69-21.65-6.74-21.8-22.25-45.76-1.4-70.51-4.9-4.08-.58-16.34-5.85-19.47-8.57-3.05-2.65-4.79-9.41-5.23-9.7Z" fill="#453b29"/><path d="M258.05,144.05c66.27-9.7,74.69,120.5,3.38,120.61-67.24.1-61.41-112.11-3.38-120.61Z" fill="#f8e4c7"/><path d="M436.83,251.28l-7.5-18.52c14.23-9.3,12.89-31.5,6.47-46.15-11.87-27.07-45.75-28.71-47.84,4.9-6.68-.93-3.29-13.27-1.89-18.62,8.26-31.69,41.61-37.58,60.54-11.03,17.73,24.86,26.21,77.81-9.78,89.42Z" fill="#f8e4c7"/><path d="M381.7,341.56c-.53.76-14.96,4.93-17.04,5.19-14.56,1.79-27.04-5.43-36.85-16.41-5.21-5.82-1.49-7.08,4.72-8.37,14.85-3.1,27.44,1.88,39.8,10.29,1.82,1.24,11.08,6.85,9.36,9.31Z" fill="#b74f26"/><path d="M412.65,178.5c12.11-3.82,15.22,16.91,3.18,18.07-9.21.89-11.69-15.39-3.18-18.07Z" fill="#f8e4c7"/><path d="M373.27,461.66c60.04-6.18,75.7,86.41,17.57,106.6-68.57,23.82-88.73-99.28-17.57-106.6Z" fill="#efb132"/><path d="M244.4,178.91c13.83-13.68,39.31-11.01,48.66,5.82,20.72,37.29-29.48,74.6-53.91,38.92-8.3-12.13-5.27-34.33,5.25-44.74Z" fill="#101610"/><path d="M272.42,185.15c10.86-2.57,15.81,11.92,7.56,16-11.86,5.88-18.64-13.39-7.56-16Z" fill="#f8e4c7"/></svg>