<?xml version="1.0" encoding="UTF-8"?><svg id="Layer_6" xmlns="http://www.w3.org/2000/svg" viewBox="0 0 612 777.94"><polygon points="-6.86 876.81 -7.47 876.81 -7.47 -63.6 619.47 -63.6 619.47 -62.98 -6.86 -62.99 -6.86 876.81" fill="#fefefe"/><path d="M179.7,729.97c-8.59,7.23-33.8,20.05-36.64.86-3.21-21.73,25.54-34.83,42.09-40.69l-3.29-24.43-15.93-7.37c-11.43,13.03-27.68,27.43-46.31,25.59-2-.2-5.21-2.25-6.17-2.15-.78.08-10.94,6.41-13.89,7.5-11,4.06-35.35,8.14-38.53-7.64-9.12,3.3-27.77,7.88-35.12-.65-12.7-14.73,21.37-36.46,30.24-44.92,15.82-15.09,30.87-31.22,42.72-49.68-64.97-50.75-55.87-153.9-15.08-216.97,5.26-8.14,9.95-11.61,14.06-21.42,12.35-29.5,5.83-53.7,7.24-83.92.81-17.26,4.46-34.28,7.93-51.1-8.9,3.67-9.05,19.91-19.86,19-9.57-.8-4.66-13.87-2.47-19.02,3.71-8.74,11.13-17.38,19.09-22.51,2.4-1.55,10.4-4.33,11.47-5.66s5.1-13.8,6.75-17.11c22.95-45.86,66.14-77.16,112.03-97.79,17.51-7.87,70.44-27.68,86.92-16.76,13.52,8.95-1.98,24.36-10.86,29.51,46.56,5.3,89.19,37.34,103.46,82.51,9.48,1.49,30.97,2.98,38.65,8.15,5.38,3.62,7.56,26.57-2.69,27.2.06,24.14-2.02,48.61-17.03,68.44,10.15,28.18,3.77,57.24-12.03,81.71,14.47,11.02,27.23,24.56,36.45,40.36,22.67-16.04,47.42-27.68,74.94-32.74,3.11.18,2.83,10.7,3.34,13.17,4.43-2.2,10.8,3.85,13.14,4.04,2.72.21,9.06-3.45,12.57-1.92,4.22,1.81,6.35,6.13,7.09,10.51l-22.99,63.59c2.66,1.96,5.41,2.18,7.96,4.82,8.76,9.07,4.71,26.93-.54,36.84-1.11,2.1-5.11,6.04-5.46,7.38-1.91,7.23.37,13.35-3.7,22.6-3.21,7.3-9.6,10.71-11.98,14.94-8.84,15.7-6.74,29.18-30.3,34.55-7.2,1.64-7.25-2.08-11.68,6.68-19.82,15.38-60.67,29.36-77.61,45.96-3.71,3.63-4.95,9.42-7.74,13.67-8.67,13.18-19.5,24.2-34.49,30.08l1.81,12.8c19.01,3.28,43.51,1.15,60.96,9.69,25.42,12.43,25.79,46.1-8.35,32.53.98,6.78-2.53,13.57-9.45,15.33-10.58,2.69-43.28-14.11-56.48-17.6-10.98-2.9-40.56-4.08-46.57-8.48-17.21-12.59,9.63-30.78,23.2-27.79l-2.2-14.02c-2.81-.44-9.31-4.74-11.46-4.79-5.47-.12-21.16,4.69-28.87,5.33-12.97,1.08-25.48.46-38.33-1.39-4.02-.58-15.32-4.35-17.87-4.09-3.59.36-12.81,7.89-18.09,6.73l1.48,15.94c5.66,3.58,12.54,4.17,19.1,7.81,10.73,5.96,26.62,24.2,17.33,36.5-10.54,13.96-33.03-6.65-42.81-12.53-.21,13.47-6.01,35.81-22.94,36.13-6.44.12-16.21-6.43-16.21-13.19v-10.1Z" fill="#0e2b22"/><path d="M253.09,402.02c.61-1.27,1.41-2.42,2.38-3.45l140.48,54.65.26,1.41.99.93-55.57,172.92,1.08.27c19.22-56.71,38.22-113.62,57-170.72l1.4-.33c2.17-.17,4.41.43,6.74,1.79,13.36,3.09,27,2.38,40.9-2.12,1.23-.26,1.66.46,1.29,2.17-13.96,55.19-41.67,113.04-57.87,168.18-9.88,15.03-33.49,20.31-48.51,9.51-1.71-1.23-2.8-4.31-3.87-4.75-2.08-.86-7.59-.91-10.86-1.93-43.57-13.65-87.05-32.82-129.67-49.26-.38-1.53-.15-.84.72-1.08,3.45-.92,9.98-.64,14.09-1.52,16.16-3.45,36.28-12.16,46.97-25.21,4.83-5.89,9.73-13.97,6.97-21.77,15.27-3.83,39.73-19.1,31.85-37.9-7.01-16.73-52.13-20.81-67.54-26.66l20.75-65.12Z" fill="#aa2716"/><path d="M358.91,354.29c19.91-16.48,28.26-43.87,27.52-69.13,15.26.27,31.62-1.31,44.03-11.02,11.15,30.69-1.81,63.07-22.02,86.57-.13,2.3,9.22-.74,9.8-2.45l1.5.35c3.79,11.09,18.26,48.2,15.29,58.07-1.19,3.96-10.53,11.7-11.29,17.16-42.45-34.21-97.08-46.89-149.51-57.51l-7.07,11.63c-9.89-6.16-14.42-2.04-19.78,6.82l-23.07,70.25c-34.25-7.39-32.64-36.82-40.02-63.6-9.59-34.81-34.91-75.24-76.76-54.46,3.25-8.81,5.82-19.08,6.71-28.46,1.67-17.51-1.4-35.45-.62-53.23.87-19.81,5.06-39.6,10.36-58.62.63-.75,10.22-2.47,12.06-2.77,6.54-1.07,24.67-3.62,30.5-3.17.96.07,5.01,1.65,5.23,2.3,0,18.53.44,40.7,8.08,57.86,11.83,26.58,46.03,29.71,71.41,27.38-17,20.63-3.71,41.89,12.85,56.9-.42.25-.66.55-.42.82,15.01,17.26,35.53,27.79,58.82,29.2l2.25.84c2.97.09,12.06-1.44,15.24-2.19,5.3-1.26,8.67-3.11,12.57-6.85.37.11.81.24,1.05.03,1.38-1.2,7.71-10.62,6.89-11.93l-1.59-.75Z" fill="#1e8b40"/><path d="M278.78,92.42c53.74-9.86,111.51,19.35,131.25,70.95l-.65,1.23c-19.21-.45-48.67-3.58-64.21,9.84-4.4,3.8-5.95,7.74-9.19,12.22l-28.5,1.5c-2.47-4.05-2.32-8.12-5.74-11.93-17.02-19-95.24-13.55-119.1-8.36-8.2,1.78-14.48,2.62-18.66,10.7l-33.21,5.02c17.35-48.78,61.68-81.88,107.02-103.11,19.97-9.35,51.02-21.64,73.08-21.73,24.21-.09,6.15,13.57-3.15,19.48-9.05,5.75-19.25,9.69-28.93,14.19Z" fill="#1e8b41"/><path d="M215.17,471.16c.21,4.82-5.08,10.18-8.71,13.36-14.69,12.88-39.75,12.66-54.9.71-1.71-1.65-3.6-3.12-5.2-4.89-1.51-.04,6.86,13.04,7.65,14.07,3.56,7.34,2.27,18.62-1.89,25.6-11.55,19.38-43.48,4.81-51.97-8.85l-.58.39c-3.94-7.02-7.72-13.91-10.71-21.41,1.35,15.09,7.85,29.75,16.21,42.21,1.29,2.64-3.03,2.21-5.01,1.58-2.03-.3-8.9-3.08-8.44-5.25-1.07.54-1.79.51-2.15-.1-16.51-17.19-26.1-40.78-28.43-63.53,2.44-35.01,28.49-135.93,81.16-112.08,48.18,21.81,19.58,97.32,72.97,118.2Z" fill="#1f8c41"/><path d="M564.42,389.17c-5.17,21.39-17.19,44.11-23.59,65.43-17.8,7.17-56.05,25.13-41.86,49.59-17.85,8.78-25.46,37.18.61,40.4-4.95,13.37-4.26,19.96-16.57,28.39-25.87,17.73-56.81,30.98-82.22,49.92l52.92-155.7,3.66-19.9c.57-.16,1.02-.05,1.01.41-.15,5.67-.18,3.35-.16-.8,30.73-20.15,65.69-41.23,100.48-56.59.86-.38,1.81-.58,2.77-.77s1.94-.3,2.93-.38Z" fill="#a92816"/><path d="M252.47,313.91c-1.68.19-.97-.05-1.19-.92-4.98-19.05,21.9-31.87,32.1-43.73,16.05-18.68,22.61-57.82,60.04-42.94,45.74,18.18,46.2,101.8,4.79,125.52-4.91-10.17-9.55-20.12-19.56-26.31-13.35-8.25-28.62-5.8-42.84-11.6-12.49-5.1-23.04-21.97-33.33-.02Z" fill="#e9a010"/><path d="M99.57,511.54c-.18-1.94.41-1.21,1.25-.31,22.7,24.25,59.76,25.6,53.19-16.82,15.88,20.65,51.63,37.76,77.39,39.75,9.13.71,18.43-.96,27.52,0,8.48,6.63-17.27,24.86-22.12,27.46-54.32,29.11-109.63-.92-137.23-50.08Z" fill="#11684d"/><path d="M123.27,596.74c4.75,15.71,12.77,29.97,22.71,42.89-14.29,19.47-43.37,48.64-69.89,44.99-2.14-.3-6.55-1.21-6.56-3.9-.15-6.08,16.75-16.08,21.48-20.19,12.46-10.85,24.18-25.25,31.5-40.08-19.24,18.12-49.63,53.68-77.23,56.74-37.05,4.1,13.67-32.62,20.04-38.69,15.33-14.58,30.25-30.3,40.99-48.64l16.96,6.88Z" fill="#126148"/><path d="M151.56,485.23c22.41,12.69,51.15,10.73,63.61-14.07,15.79,6.18,65.51,12.79,74.34,23.22,16.9,19.96-30.7,31.13-42.25,31.83-40.26,2.44-68.12-14.35-95.71-40.98Z" fill="#11674c"/><path d="M233.4,180.72c40.49-1.54,65.43-2.15,57.44,47.05-7,43.06-44.37,60.75-83.6,42.99-21.6-9.77-24.46-54.24-19.29-74.34,4.07-15.82,31.9-15.19,45.46-15.71Z" fill="#1f8b41"/><path d="M535.67,378.77c3.24-.59,7.53-.98,10.39,1.21-25.15,13.39-50.48,26.7-74.56,41.97-11.6,7.36-18.98,10.87-27.55,21.39-4.23,5.19-26.78,5.71-32.63,3.22-2.78-1.18-4.11-5.08-7.79-5.67l-129.56-49.37,3.33-7.87c52.43,11.45,108.13,24.39,148.56,61.8,18.78-40.47,63.99-68.67,106.74-77.71l1.23,9.18c-.4.76-1.3.91-1.68.23-.62-1.11-19.53,6.91-23.34,8.55-24.22,10.47-48.18,25.48-65.31,45.27,25.43-24.46,57.9-41.73,90.16-53.01l2.01.8Z" fill="#e9c26e"/><path d="M193.15,679.8c-.63-2.59.22-5.14,1.83-1.74-.12,4.08-.03,8.1.28,12.06l20.96-1.1.78,1.18c2.11,5.05,15.06,6.17,20.78,8.88,6.06,2.87,23.1,17.45,17.15,25.09-6.68,8.58-29.5-17.84-37.5-15.48-8.29,2.45-6.12,39.79-24.47,35.22-11.98-2.99,1.21-30.23,4.15-36.57-7.72,5.19-34.91,28.68-43.59,24.63-1.03-.48-1.56-1.37-1.84-2.43-4.21-16.15,29.27-29.06,40.26-34.1,2.01-2.59,1.01-11.96,1.19-15.63Z" fill="#e89f13"/><path d="M91.62,528.67c2.14,1.42,11.56,6.48,13.46,3.67,5.15,7.68,12.07,14.98,18.96,21.11,8.51,7.58,26.25,16.89,32.2,23.78,11.53,13.35-11.54,13.77-19.63,13.22-25.5-1.75-48.42-21.98-60.26-43.42.15-8.23,2.79-14.61,11.73-16.23.74-2.64,1.92-3.35,3.56-2.12Z" fill="#12684e"/><path d="M351.57,204.09c3.15-30.75,44.15-22.1,65.35-20.4,4.18,19.4,4.11,39.31,6.22,58.93.52,4.79,4.43,17.47,2.77,20.55-4.84,8.99-30.08,11.52-39.18,10.36l-2.14-6.73c23.43.02,35.35-26.3,33.65-46.83-1.12-13.56-5.61-14.08-18.04-14.99-14.48-1.06-43.11-2.55-46.82,15.93h-1.82c.4-5.4-.54-11.51,0-16.82Z" fill="#1f8a41"/><path d="M171.74,650.43c-18.15-12.11-33.45-31.21-40.37-52,13.64,1.9,44.37-.27,34.86-21.41l22.19,3.66c2.4,4.21,4.98,6.61,9.01,9.18,2.18,1.2,4.42,2.01,6.73,2.45,1.45.64,2.83,1.14,4.28,1.84,2.19,1.33,4.43,2.14,6.73,2.45,3.11,1.32,6.03,3.03,9.17,4.28l1.46,1.51c.56,1.67.09,9.55-1.46,10.73,1.49.72,1.48,1.03,0,1.84-1.5.54-2.12-2.57-1.23-2.82-13.43-1.49-26.48-6.09-39.05-11.02-.71-.23-3.31,2.3-3.88,2.98-5.54,7.74-11.24,12.8-20.31,16.43,5.17,7.08,11.45,13.41,18.87,18.12l.94,2c.23,3.17-4.04,4.76-6.97,5.25.54,2.27.21,3.78-.98,4.53Z" fill="#1f8c41"/><path d="M224.29,601.48c32.47,13.13,65.63,24.96,98.4,37.33,3.45,1.3,8.4,1.62,11.1,2.79s4.82,5.23,8.47,5.17c-28.21,15.45-64.43,16.8-95.1,8.55,1.37-3.17,4.04-2.14,3.61-6.72-6.47-3.69-.41-5.98,3.48-2.1,16.68,2.71,34.46,2.01,50.87-1.65-26.9-8.39-53.28-18.27-79.14-29.65l-1.7-1.47c-.27-4.15.82-8.29,0-12.24Z" fill="#ebaf18"/><path d="M335.05,704.88c.2-1.9,2.05-2.53,5.55-1.89,7.37,1.94,10.59,1.38,15.37-4.92,3.63-4.55,7.54-8.74,11.72-12.58.01-2.2.55-3.7,1.61-4.48.23.98-.36,2.57.3,3.67,19.26,6.37,43.79,1.79,62.69,10.11,6.55,2.88,18.18,10.93,14.45,19.32-15.46,2.92-27.25-11.34-40.12-15.67-4.6-1.55-19.98-4.68-24.07-3.27l-1,.82c14.26,5.56,39.8,9.45,38.82,29.67-1.41,1.16-2.99,1.84-4.85,1.86-7.01.07-37.74-14.59-48.06-17.46-11.86-3.29-20.59-3.66-32.41-5.2Z" fill="#e89f13"/><path d="M253.09,402.02l4.92-8.89,144.9,54.5c8.55,12.52,38.33,9.3,48.95.28.75,4.41-.82,7.63-1.83,11.62-.77-1.26-.38-1.13-1.69-.85-15.73,3.39-32.1,7.87-47.24-.99l-1.09-.83c.05-1.82-1.22-2.57-3.8-2.23l-141.58-55.08-1.54,2.46Z" fill="#c73f27"/><path d="M504.66,499.12c-8.98-9.7,17.11-27.34,23.88-31.13,5.58-3.12,13.86-5.2,18.39-7.91,1.18-.71,1.32-2.37,2.17-3.34,12.31,5.43,6.54,25.9-1.19,33.69-7.5,7.56-35.5,17.06-43.25,8.69Z" fill="#11664c"/><path d="M224.35,613.1c28.65,9.91,55.99,23.67,85.63,30.6-.65.78-3.84,2.04-4.7,2.22-13.94,2.81-36.67,3.98-50.69,1.16-1.21-.24-2.5-3.13-5.77-1.54.49,1.54,2.23.19,2.44,2.44l-3.06-1.22c-1.38.82-5-1.39-5.1-2.74l-1.63-.93-1.76-.14c-7.91-6.76-15.84-15.37-16.41-26.32l1.05-1.69c-.06-.6.04-1.23,0-1.84Z" fill="#ebaf18"/><path d="M544.84,502.98c.26,22.36-27.68,40.28-47.93,32.95-13.04-4.71-2.92-18.66,4.2-23.78,7.88-5.66,7.64-1.97,14.68-2.4,10.36-.63,19.66-2.23,29.04-6.78Z" fill="#12674d"/><path d="M334.44,350.62c-.31-.86-.17-1.91.41-3.17-.94-1.44-1.42-2.72-1.43-3.83-22.78,5.24-47.12-3.7-65.07-17.48-2.83-2.57-7.65-2-10.36.02l-5.22-9.19c12.62-11.46,13.89-4.81,24.38.73,21.19,11.19,50.58,3.11,60.26,30.71-.22,1.14-2.13,1.67-2.96,2.22Z" fill="#e89f12"/><path d="M264.1,345.12c27.18,16.86,40.77,24.96,73.4,12.85,2.5-1.34,4.95-.93,7.34,1.22.8.23.96,1.24,2.59,1.08,3.06-.29,8.67-4.65,11.48-5.98.57-.27,2.84-1.46,3.06-1.22-.35,6.93-4.73,10.63-8.26,15.9l-.91-1.21c-6.86,9.26-19.84,7.34-29.36,9.77-.06,0,.13-1.12-.27-1.14-3.82-.18-7.3-.16-11.1-1-11.58-2.54-28.41-9.61-38.32-17.44-1.82-1.43-13.19-12.7-12.1-14.07.67.62,1.73.79,2.44,1.22Z" fill="#1e8b40"/><path d="M564.42,389.17c-28.64,12.23-56.72,28.63-83.37,44.79-3.68,2.23-20.19,11.43-21.82,13.66-1,1.37-.63,2.44-.63,3.96-.7-.73-.94-3.06-1.22-4.28-.54-2.45-.49-4.86-1.83-7.33,22.49-12.44,44.02-26.68,66.66-38.88,5.85-3.15,37.6-20.53,41.77-19.16,3.53,1.16.89,5.43.45,7.24Z" fill="#c73f27"/><path d="M408.9,214.95c6.99,17.88-3.62,47.27-25.53,46.65l-.61-1.52c28.91-14.22,6.85-60.19-18.05-28.78-10.64-8.02.79-15.54,9.85-17.05,4.68-.78,31.72-1.46,34.33.7Z" fill="#eeda89"/><path d="M257.99,326.15c-.15-.45-.78-2.31-.61-2.44,2.47.67,5.98-.99,8.1-.51,2.39.54,15.21,10.18,19.18,12.06,13.72,6.52,34.24,11.19,49.16,7.41,1.33,3.64,4,4.46.62,7.95-19.48,12.95-69.49-3.14-76.46-24.47Z" fill="#d68610"/><path d="M335.05,704.88c-5.36-.7-21.63-1.92-10.6-10.3,12.85-9.77,30.31,4.5,23.45-25.79l18.93-.6c1.03,4.22,1.48,8.61,2.47,12.84.19,7.22-1.2,4.7-3.5,7.51-2.48,3.04-12.88,15.67-16.04,16.61s-10.95-2.54-14.71-.26Z" fill="#d27f10"/><path d="M61.04,465.04l1.22.61c1.68,8.53,3.17,18.44,6.08,26.6,3.12,8.77,15.63,31.35,23.29,36.42-2.16-.11-1.83,2.41-2.87,3.1-2.19,1.47-6.03,1.24-8.39,4.3-2.36,3.06-1.69,8.09-4.04,10.95-7.31-13.24-10.93-24.86-13.46-39.77l-1.22-7.95c-.01-.12-.51-.8-.61-1.84-.53-9.13-.7-18.38-.61-27.53.08-1.87.52-3.52.61-4.89Z" fill="#1b713b"/><path d="M183.37,641.86c-.15.56.47.97,1.83,1.22,1.63-1.14,3.54-.12,3.67,1.84,1.16,2.46,2.54,3.08,4.15,1.85l5.89,1.78-.86-.57c1.59-1.09,7.1-.64,7.95,1.22,1.68.79,3.75,1.18,6.2,1.18.02,1.43.88,2.32,2.56,2.66.56,1.55,1.62,1.79,3.18.73,1.96,1.38,3.63,1.02,5.54-.59-.79-1.99-.83-3.39,1.48-3.97.42-1.77,1.64-1.58,2.45,0,.68-.03,1.31-.1,1.83-.61.05-1.94,5.04-2.7,6.12-1.22,1.27-.43,5.6,4.06,5.71,4.42l-.81,1.08c-13.24,7.92-24.14,12.86-40.37,9.18-2.22-.66-4.47-1.07-6.73-1.22-.5-.15-.9-.51-1.22-.61-.9-.94-1.73-1.32-3.06-1.22-1.22-.45-2.29-.64-3.67-1.22-.92-1.14-1.58-1.64-3.06-1.84-.92-.44-1.56-.76-2.45-1.22-.37-.33-.77-.88-.54-1.16,2.16-2.68,1.42-2.23-.17-.37-.32.37-.72.65-1.13.92-2.12-1.18-4.1-2.32-6.12-3.67l-.32-5.5c4.59-1.02,4.97-1.02,8.27-4.29.84-1.58,3.88-.61,3.67,1.22Z" fill="#1f8b41"/><path d="M434.13,252.11l-9.16-66.07c9.58.78,13.53,2.28,15.21,12.01,2.97,17.28-.1,37.76-6.04,54.06Z" fill="#fff"/><path d="M535.67,378.77c-5.94,1.08-18.82,7.01-24.88,9.68-27.64,12.19-53.87,29.03-74.2,51.5,5.03-11.38,16.07-20.83,25.75-28.38,20.52-16,45.16-28.26,70.05-35.79l1.44,1.15,1.83,1.84Z" fill="#b58731"/><path d="M339.33,657.78c5.15.47,11.92-6.92,15.76-7.8s9.99-.12,14.94-.96c15.58-2.63,23.28-11.85,34.74-21.23-12.47,21.87-39.67,41.28-65.44,29.99Z" fill="#1c6d39"/><path d="M193.15,679.8l-1.83-10.4,23.23,1.83c.88,5.27.48,14.23,2.45,18.96l-23.24,1.22v-14.07c-1.09-.12-.58,1.72-.62,2.44Z" fill="#d17e10"/><path d="M299.57,184.81c-5.4-3.01-9.52-6.5-15.58-8.58-22.81-7.81-64-5.52-87.9-1.62-7.65,1.25-17.2,2.15-22.57,6.88l-2.39,14.95.76-20.04c30.95-7.31,67.44-11.17,99.06-6.1,10.13,1.62,23.86,4.3,28.61,14.51Z" fill="#40554c"/><polygon points="431.68 365.31 456.74 396.24 443 408.74 431.68 365.31" fill="#1c7139"/><path d="M158.52,653.71c-7.54,11.06-23.59,23.26-37.55,22.4,10.74-9.83,22.08-19.32,29.98-31.81l9.15,8.26c0,.36-1.3.72-1.58,1.14Z" fill="#125a42"/><path d="M453.71,178.09c-34.51-2.17-80.78-17.89-109.47,8.56,3.05-12.26,21.81-15.94,32.73-17.11,25.05-2.7,52.78,1.43,76.74,8.56Z" fill="#43584e"/><path d="M338.11,216.02c-12.39-2.26-23.14,1.85-33.64,7.94,1.57-3.03.59-8.37,2.78-10.98,3.39-4.03,34.52-9.13,30.86,3.04Z" fill="#1c6e39"/><path d="M526.49,540.91c-2.67,10.71-13.31,20.18-24.46,20.79l5.54-16.48,18.92-4.32Z" fill="#125840"/><path d="M248.2,646.76c.24.26,1.33,1.71,1.22,1.83-1.72-.62-5.46,1.87-7.34,3.06-.39.45-1.98-.14-2.18-.3-.88-.7-2.87-3.53-3.32-4.59-.13-2.59,3.89-3.77,6.01-2.19.1.07-2.27-.53-1.12-1.48,2.19.68,5.16,2,6.73,3.67Z" fill="#1f8b41"/><path d="M61.04,497.47c-.87-9-1-18.5-.61-27.53l.61,27.53Z" fill="#1f8c41"/><path d="M236.58,646.76l5.5,4.89c-.6.38-1.03.74-1.83,1.22.35-2.78-1.85.94-3.05,0-1.33-1.04,1.92-1.99,1.22-3.05l-3.06-2.46c-.31-1.66.1-1.83,1.22-.61Z" fill="#1f8b41"/><path d="M179.7,654.71c-.33-.17-1.03-.16-1.83-.61-.67-4.11,2.59-.8,1.53-4.89l3.35,2.75-3.04,2.75Z" fill="#1f8b41"/><path d="M344.84,359.19c-3.06-.88-3.28-2.1-7.34-1.22,1.08-.4,2.96-1.88,3.89-1.73l3.45,2.95Z" fill="#1e8b40"/><path d="M188.87,658.99l2.44-1.83.62,3.06c-1.44-.45-2.04-.84-3.06-1.22Z" fill="#1f8b41"/><path d="M204.16,592.3c-2.21.99-5.04-1.37-6.73-2.45,2.32.33,4.6,1.51,6.73,2.45Z" fill="#1f8b41"/><path d="M215.17,596.58c-1.84,1.58-5.23-1.73-6.73-2.45,2.3.57,4.56,1.53,6.73,2.45Z" fill="#1f8b41"/><path d="M62.87,507.25l-1.22-7.95c.23,2.05.85,5.78,1.22,7.95Z" fill="#1f8c41"/><path d="M182.14,655.93l3.67-.6-.61,2.44c-1.66-.71-2.35-1.5-3.06-1.84Z" fill="#1f8b41"/><path d="M199.88,662.05c-2.31.07-4.56-.59-6.73-1.22,1.94-1.3,4.98.83,6.73,1.22Z" fill="#1f8b41"/><path d="M401.11,457.7l-57.29,172.59-3.87-.96,56.27-174.69c2.34-2.68,5.75-.4,4.89,3.06Z" fill="#182921"/><path d="M332.14,238.79c2.01-4.05,11.94,1.81,14.37,3.39,8.31,5.45,17.11,16.7,13.38,27.12l-3.16-.02c-3.1-3.61-6.1-8.02-9.42-11.38s-17.66-14.07-15.16-19.12Z" fill="#f3cd66"/><path d="M235.23,204.58c9.34-.47,37.49-.55,44.73,4.45,6.12,4.23,6.66,15.33,6.18,22-3.91,54.44-88.73,56.99-81.29-9.12,1.95-17.32,15.89-16.6,30.38-17.33Z" fill="#0f2c23"/><path d="M405.39,436.89l-102.75-40.37c35.6,7.83,72.37,19.89,102.75,40.37Z" fill="#b78831"/><path d="M179.7,640.64c-8.27-4.83-16.11-12.49-21.45-20.45,3.56-2.79,8.17-3.83,11.8-6.49,4.21-3.09,10.44-14.09,14.24-13.77,12.69,5.02,25.88,9.27,39.44,11.34l.62,3.68c1.55,16.37,8.16,17.94,17.13,28.14.75.85,2.46,1.29,1.23,2.16-3.31-1.15-4.16.89-6.12,1.51-.51.16-.95.53-1.22.61-1.56.45-4.38.91-6.12,1.22.05,1.76-.65,1.89-1.83.61-.79.11-1.65-.07-2.45,0-5.68,3-13.07,1.64-18.96,0-2.75-.24-4.92-.15-7.95-1.22l-4.33-1.04c-1.28.89-4.88-.05-4.84-2.02-1.3-.56-2.43-1.23-3.67-1.84-1.61-.1-2.22-.5-1.83-1.22-.93-.48-2.82-.73-3.67-1.22Z" fill="#1f8b41"/><path d="M224.96,649.2l-.96,2.46,4.02,2.43c-3.79,0-6.84-.13-7.64,4.27-.73-3.1-3.08-5.25-4.28-1.22-2.24-2.33-1.31-4.72-5.19-3.05l.61-3.05c-7.28-1.32-3.7.45-4.29,1.22-.37.48-2.91-1.36-1.22-3.06,6.45.55,12.5.56,18.96,0Z" fill="#1f8b41"/><path d="M198.04,647.98c.39.23.7.66,1.22.62l-6.1-1.23.3,4.89c-.4-5.82-5.74-1.87-4.59-7.34,2.93,1.27,6.67,1.56,9.17,3.06Z" fill="#1f8b41"/><path d="M185.2,643.08c-2.92-.69-5.17,4.55-5.5-.61l3.67-.62c.75.38,1.38,1,1.83,1.22Z" fill="#1f8b41"/><path d="M229.24,648.59l.31,3.66-2.14-3.04c.23-.03,1.05-.47,1.83-.61Z" fill="#1f8b41"/><path d="M269.61,253.95c10.22-21.85-11.76-49.85-30.57-25.37-11.14,14.5-4.94,36.45,15.26,34.85-29.68,12.09-50.92-19.9-40.05-46.79,4.08-4.1,55.16-4.28,60.82-.29,8.1,5.7,1.8,31.65-5.47,37.6Z" fill="#efda89"/><path d="M223.12,651.66l-3.66,3.05c.03-1.73,1.96-3.3,3.66-3.05Z" fill="#1f8b41"/></svg>