<?xml version="1.0" encoding="UTF-8"?><svg id="Layer_5" xmlns="http://www.w3.org/2000/svg" viewBox="0 0 612 777.94"><path d="M332.21,57.2c42.42-.12,79.94,21.98,102.33,57.48,29.33,46.49,24.61,96.08,29.98,147.97,2.96,28.62,10.69,26.43,26.19,46.4,53.68,69.17,48.34,162.22.01,232.73-12.05,17.57-34.82,36.74-44.31,51.69-10.54,16.61-10.19,28.13-26.96,44.46-10.03,9.77-18.14,7.62-12.4,27.56,23.39-.06,92.04,6.99,85.46,43.17-2.81,15.43-23.49,7.81-24.5,8.84-.32.33.58,5.31-2.32,8.82-9.9,11.97-48.23-6.4-60.67-9.63-16.12-4.18-43.38-6.45-57.07-12.01-8.62-3.5-11.46-9.98-9.62-19.1,2.69-13.26,22.07-11.53,23.14-12.56.61-.59.32-14.63-1.2-16.96-.36-.56-9.51-8.45-10.16-8.59-2.6-.58-9.27,2.02-12.68,2.1-20.71.48-40.73-1.2-59.69-10.15-1.99,4.61-19.04,14.27-19.89,16.03-2.84,5.9-3.32,23.99,2.98,28.64,12.09,8.93,31.54,7.13,37.12,28.44,9.21,35.19-30.34,22.88-46.51,10.83-6.36,30.19-42.85,36.65-45.68,1.18-8.93,5.33-36.17,19.48-39.5,1.48-2.52-13.64,5.99-24.73,16.65-31.95,6.01-4.07,29.32-12.2,30.8-17.2.55-1.85.61-19.21.08-20.06-.49-.8-15.21-4.9-16.81-8.34-13.41,19.54-68.27,48.7-89.25,33.63-1.31-.94-.82-4.21-2.1-4.42-1.16-.19-17.34,6.2-22.53,6.73-13.82,1.41-33.07-1.38-29.25-19.89,2.12-10.25,35.86-32.43,45.39-41.23,7.52-6.94,14.16-14.73,21.05-22.27.26-.96-7.73-5.48-8.16-5.25-.17.09-.22,2.29-1.75,3.52-23.05,18.57-55.8,36.7-43.6-13.13,2-8.17,14.61-33.23,14.73-36.86.04-1.1-5.81-5.61-7.43-9.74-13.04-33.27,9.94-137.49,24.95-171.68,17.14-39.05,44.62-47.47,50.5-93.49,7.76-60.64-.86-116.67,43.32-167.41,19.96-22.92,97.76-76.19,127.09-77.79,21.88-1.2,27.1,13.24,12.26,28.06Z" fill="#062320"/><path d="M204.6,500.91c21.59-48.59,35.65-103.33,8.39-152.97-13.25-24.13-31.82-39.73-61.07-37.86,10.93-29.89,7.41-61.99,10.55-93.04,9.11-90.04,51.41-129.04,128.73-167.46,11.89-5.91,24.73-14.39,38.65-9.91,3.55,5.44-28.24,24.89-32.77,28.07,53.52-9.63,111.07,12.32,134.61,63.23-19.52-17.55-52.72-13.65-53.85,16.39-31.65-29.16-63.12-3.51-79.58,26.93,5.19-53.97-60.99-81.88-86.86-30.06-26.79,53.67,21.35,117.38,73.95,69.87-4.18,11.4-21.32,17.52-23.99,29.26-2.34,10.31.92,13.59,4.1,22.25,18.05,28.41,49.96,53.75,85.42,45.64,7.09-1.62,17.81-5.57,19.94-12.86,23.26-12.3,36.82-43.42,37.46-69.08,18.52,2.6,35.7-8.42,39.83-26.92l1.76,1.15c4.56,30.41,2.24,61.4,9.35,91.33,8.48,35.69,25.38,70.63,23.98,108.87-7.16-20.55-14.47-43.12-30.41-58.53,9.33,26.1.84,62.78-25.77,74.92v-26.34c0-2.86-4.5-9.51-3.53-13.46-.26-.31-1.6.68-1.78,1.16-1.33,3.67.87,19.3-2.31,24.59-27.15,82.24-85.82,17.74-112.39-24.58-.54,7.02,17.4,36.61,13.46,40.96-25.06-5.36-45.05-25.24-59.12-45.64-.2,4.45,3.04,10.32,5.27,14.04,10.05,26.31,5.45,57.07.69,84.3l-13.12,50.33c-5.04,20.39-7.74,41.94-1.7,62.42l-1.09,4.31c.96,4.32-1.72,4.55-5.27,3.45-23.72-10.97-56.73-27.55-62-55.43,8.31-13.22,15.84-26.9,22.59-41.03.26-5.9,1.56,2.24-2.16,1.69Z" fill="#12914a"/><path d="M457.47,558.28c-1.71-1.54-1.69-3.74.06-6.59-45.5,59.05-131.98,68.01-199.64,47.79l-1.78,2.11c-4.11,2.2-8.09-7.34-4.68-9.37-14.19-41.43,7.31-82.56,14.67-122.89,4.95-27.14,5.42-51.25.55-78.47,8.51,14.19,35.74,39.35,53.27,38.74,7.39-.26,6.84-2.94,9.93-8.29,16.01,22.69,48.91,46.52,75.5,25.71,5.76-4.51,13.66-19.24,14.79-19.76.51-.23,6.21,1.69,11.28.16,18.48-5.6,30.71-39.17,31.9-56.46,24.05,59.58,25.02,130.08-5.84,187.3Z" fill="#efbf1d"/><path d="M208.11,462.28c-4.45,13.41-26.94,24.34-28.1,4.68,1.94-9.69,3.6-27.37.01-36.29.76,7.49-.81,13.92-2.36,21.07-11.54,41.93-56.18,28.13-46.83-12.88-.15-3.32,1.16-9.28-1.16-11.7-.29,5.09-2.98,11.13-5.87,15.21-4.75,16.87-36.07,21.28-33.95-1.17,6.97-35.32,34.4-152.29,91.47-114.3,43.23,28.78,39.97,91.71,26.77,135.37Z" fill="#13924a"/><path d="M270.16,242.17c4.58-8.6,12.7-11.85,18.05-19.98,15.53-23.6,29.21-105.76,79.97-71.59,37.66,25.35,39.83,104.7,5.58,134.88-13.45-35.54-33.76-28.8-64.01-34.3-13.42-2.44-26.06-7.25-39.6-9Z" fill="#f4ab10"/><path d="M204.6,500.91c.88-1.42,2.5-2.53,2.36-4.67,2.41,3.3-2.49,12.32-4.28,16.21-2.2,4.77-16.3,27.18-16.45,28.83-.05.53,3.23,9.12,3.76,10.06,8.35,15.09,34.84,32.71,52.23,40.15,2.16.92,8.48,4.41,9.22.73,1.15,3.34,2.01,6.81,4.68,9.37l2.57.49c3.63,8.93,10.23,16.64,17.67,22.66l-.34,2.6c-27.51,33.8-65.2,26.69-93.08-2.33-9.24-9.62-30.02-39.71-26.08-53.03.58-1.96,21.41-26.88,25.07-32.29,8.59-12.7,14.84-26.23,22.67-38.79Z" fill="#09753e"/><path d="M177.67,451.74c-9.33,43.11-51.07,130.73-90.72,152.2-19.14,10.36-13.86-.49-9.98-14.66,8.54-31.16,26.71-65.45,37.5-97.13,5.99-17.59,10.39-35.71,16.37-53.29.53,11.64-.06,24.36,10.51,32.22,17.24,12.84,28.63-6.61,36.32-19.35Z" fill="#036855"/><path d="M457.47,558.28c-10.03,23.73-32.09,49.53-55,61.49-32.86,17.14-93.55,28.84-126.46,7.59-6.85-4.42-17.99-17.72-19.9-25.76-.36-1.5-2.08-4.76.5-4.61,9.37.54,25.58,6.33,36.59,7.91,52.02,7.5,100.19-2.36,142.58-33.77,9.73-7.21,13.32-11.66,19.44-20.25,2.23-3.14,5.57-5.55,7.52-8.97-.68,4.91-3.33,11.78-5.27,16.38Z" fill="#d6a60c"/><path d="M252.39,125.41c40.88-1.26,54.75,82.57,8.66,95.38-62.85,17.46-63.86-93.68-8.66-95.38Z" fill="#fae7aa"/><path d="M163.61,619.15c-4.62-2.78-7.16,5.48-10.5,8.81-16.64,16.61-38.16,37.88-61.19,44.17-6.2,1.69-31.66,7.11-28.72-5.25,1.05-4.4,36.95-30.78,43.67-37.16,15.07-14.32,27.26-31.31,40.95-46.85,2.12,13.57,9.44,24.55,15.79,36.28Z" fill="#03594a"/><path d="M249.09,687.06c4.08,8.28,22.24,10.6,30.47,16.95,4.65,3.59,13.2,14.67,8.82,20.59-5.18,7-42.17-14.17-45.13-22.32,7.98,46.87-45.26,48.9-22.27-1.17-5.88,4.33-36.32,26.34-41.83,23.75-7.71-3.62.83-16.37,4.99-20.21,11.06-10.22,29.11-9.44,38.02-22.27,1.76,1.49,3.7,1.69,5.83.61l13.53,2.33c3.42-.5,5.94.08,7.57,1.75Z" fill="#f4ac13"/><path d="M407.14,200.04c.39-.79,9.26,2.44,13.43-9.38,7.64-21.62-17.1-58.47-26.31-22.23-.6-6.01-8.59-11.76-9.44-16.9-2.1-12.8,6.18-24.05,19.39-24.15,36.48-.29,55.84,75.9,20.84,92.36-3.77,1.77-13.6,4.87-16.18.23-.74-1.34-2.33-18.7-1.73-19.92Z" fill="#fae7a9"/><path d="M518.35,428.33c-1.46,6.21-4.16,12.53-9.4,16.51-3.53,2.68-11.25,6.85-14.01,2.23,1.96-49.37-7.29-97.61-23.4-144,33.14,34.36,48.09,77.57,46.81,125.26Z" fill="#0f8947"/><path d="M397.76,675.35c9.73-2.02,56.04,4.34,65.88,8.46,5.32,2.22,26.44,19.38,18.24,24.15-8.97,5.22-56.55-32.42-72.4-20.92,11.46.08,42.5,16.52,46.85,26.32,4.76,10.72-6.71,5.94-13.86,4.5-22.99-4.62-48.4-13.64-72.8-19.1-.62-5.47,7.08-3.55,11.05-2.3-.94-3.82-1.92-9.33.14-12.82,1.19-2.01,14.49-11.35,16.91-8.29Z" fill="#f4aa12"/><path d="M208.11,462.28c-14.37,47.54-43.84,97.8-86.06,125.26,3.25-10.52,12.58-20.4,18.64-30.53,13.65-22.83,34.19-64.38,39.32-90.04,4.48-.74.83,4.2,3.49,6.46,7.57,6.45,20.16-5.41,24.61-11.14Z" fill="#036854"/><path d="M268.99,250.39l72.84,13.2c9.43,2.74,14.26,10.33,19.62,17.82-31.63,19.2-80.06,3.64-92.45-31.02Z" fill="#f2a911"/><path d="M123.82,442.38c-6.6,24.08-15.03,48.36-25.56,71.03-1.29,2.78-11.54,25.65-14.23,23.8-8.19-31.21-.29-64.96,5.84-95.99,3.72,20.43,25.09,13.72,33.95,1.17Z" fill="#036855"/><path d="M115.63,675.33l50-51.32c5.34-1.19,17.96,15.8,22.55,19.14-17.56,18.54-46.32,36.06-72.55,32.18Z" fill="#035749"/><path d="M518.35,428.33c-1.14,42.72-14.59,82.67-41.57,115.89,9.53-31.7,16.83-63.79,18.15-97.16,14.13-.2,16.4-8.98,23.41-18.73Z" fill="#036452"/><path d="M265.47,265.6c24.88,29.71,50.89,39.12,88.99,29.87,3.41-.83,9.32-4.94,12.1-4.21.53.14,3.2,5.71,4.27,7.12.93,1.23,3.69.84,3.51,1.75-10.72,12.75-26.77,15.63-42.78,14.7-25.67-1.49-57.47-25.74-66.09-49.23Z" fill="#08713c"/><path d="M369.67,698.76c-5.1-1.14-22.88-2.28-22.16-8.8.87-7.88,20.19-8.05,25.68-7.58l-2.34-24.58c8.55.85,16.65-1.98,24.57-4.69l2.35,22.24c-.87.18-14.57,8.79-15.02,9.56-1.45,2.49-.86,13.55,3.3,15.01-5.22.03-11.47-4.64-16.38-1.16Z" fill="#e68e0f"/><path d="M222.16,682.37c-.06-6.32,2.47-15.26,1.16-22.25l24.58-1.16c-1.11,8.39-2.68,20.26,1.18,28.09-7.08,2.18-14.04-1.13-21-1.76-2.01-.18-5.86,4.93-5.93-2.92Z" fill="#e68f0f"/><path d="M422.34,619.16c-6.62,14.35-30.97,28.8-46.21,29.31-3.3.11-18.46-2.25-11.73-4.71,4.41-1.62,10.84-2.33,15.83-4.09,15.36-5.42,28.46-11.7,42.11-20.51Z" fill="#0a7a40"/><path d="M374.34,184.82c-7.22,1.08-8.14-7.23-12.28-11.71-2.93-3.16-14.9-10.81-12.18-15.09,5.99-9.42,28.53,18.37,24.46,26.8Z" fill="#fad966"/><path d="M254.65,151.12c27.69-4.87,29.76,66.96-2.53,54.66-20.8-7.92-14.9-51.59,2.53-54.66Z" fill="#052421"/></svg>