<?xml version="1.0" encoding="UTF-8"?><svg id="Layer_1_copy_5" xmlns="http://www.w3.org/2000/svg" viewBox="0 0 612 777.94"><path d="M334.74,60c32.52,7.81,78.51,30.14,90.67,64.84,4.54,12.94,2.37,24.96,5.01,35.19.76,2.94,7.63,9.1,9.66,12.58,21.78,37.35,23.87,87.28,1.57,124.8,40.52-26.24,64.4-81.1,62.06-129.97-.55-11.45-9.56-39.06,4.92-44.84,15.18-6.06,32.92,20.14,38.63,31.92,11.88,24.51,13.85,53.18,9.37,79.97,24.98-33.34,40.43-17.57,37.96,19.64-1.61,24.27-11.45,49.84-24.2,69.99.35,2.49,33.9-16.82,21.03,27.65-7.39,25.52-29.37,48.43-50.91,62.01,19.15,10.91,3.92,30.2-7.45,40.38-17.15,15.35-41.18,23.25-63.84,22.52-.44,45.16-20.04,87.75-51.72,118.15-4.71,4.52-17.13,12-20.11,16.04-4.28,5.81-5.32,18.84-12.09,24.32,24.52,3.35,54.68,2.14,74.17,20.75,17.45,16.65,7.94,39.51-15.53,29.71.26,35.19-55.61,3.5-73.58-1.8-11.28-3.32-43.55-7.63-50.56-11.91-10.43-6.36-6.28-20.77,3.34-26.14,7.19-4.01,16.68-1.91,19.61-11.2-22.35,5.38-44.25,5.71-66.91,2-4.32-.71-16.63-5.68-18.8-5.5-1.05.08-10.41,7.02-13.54,8.45-11.36,5.19-14.2-1.23-15.72,16.4,10.39-1.1,21.74,3.49,20.61,15.9-1.45,15.92-25.2,19.23-35.94,27.06-7.25,5.28-13.12,14.8-21.08,19.78-15.58,9.74-36.41,8.46-31.43-15.23-9,4.31-33.8,17.41-40.09,4-6.91-14.74,11.45-32.82,23.21-38.65,7.65-3.8,35.94-9.6,38.42-11.97s5.71-18.04,5-21.68c-.3-1.57-19.15-16.48-23.06-21.38-7.06-8.86-11.65-18.94-16.71-29.02-5.22,5.22-25.71,13.03-31.63,10.08-1.61-.81-3.1-5.33-4.02-5.33-1.03,0-6.12,10.12-17.21,10.72-32.46,1.73-15.33-44.58-9.82-61.21.82-2.48,4.61-8.97,4.57-9.5-.05-.65-6.14-3.5-7.49-10.01-10.48-50.59,16.17-159.14,56.97-193,3.42-2.84,16.98-9.9,17.29-10.9,1.21-3.85-4.18-25.53-6.91-27.19-2.25-1.36-11.27,7.89-22.4-1.72-16.31-14.07,6.93-45.68,5.13-47.45-33.56,11.19-47.03-11.99-20.69-37.41,6.41-6.18,29.79-18.92,32.25-22.5,3.48-5.07,9.97-30.7,15.45-41.03,24.88-46.84,110.72-106.93,162.16-110.36,29.55-1.97,39.99,13.71,14.35,32.04Z" fill="#062220"/><path d="M151.92,219.07c.13-2.59,2.28-8.09.02-9.49-4.96,22.54-70.08,33.68-35.04.04,6.55-6.29,32.92-21.3,35.08-24.32,2.01-2.8,7.2-24.22,9.74-30.31,21.29-51.28,110.52-118.31,164.39-117.67,14.35.17,15.21,4.3,4.4,12.97-9.25,7.42-22.24,9.2-31.42,16.81,33.37,1.53,68.76,9.46,94.81,32.11,11.55,10.04,24.73,24.95,24.75,41.51-29.18-34.76-78.65-40.25-103.68,2.74-9.99,17.16-10.55,33.96-17.63,50.66-10.21,24.06-20.41,11.67-37.35,19.61-15.81,7.41-23.61,32.54-12.08,46.93,3.51,4.38,9.32,5.56,9.66,6.05.58.85,2.45,15.96,3.87,20.35,3.97,12.32,10.01,23.45,16.96,34.13-.44.56-.77,1.04-.65,1.21,20.01,30.65,51.73,60.16,90.17,49.31,15.15-4.27,19.02-11.87,24.81-25.19.27-.63,1.44-2.79,1.57-2.89.64-.44-.06,3.65-2.08,1.3,12.52-23.08,6.93-52.99,10.29-78.76,28.13-12.79,37.04-50.08,33.41-79.14,23.22,44.83,8.01,96.71-17.26,136.51,3.44,1.41,9.19-5.65,11.53-4.22,1.46.9,17.01,25.87,18.78,29.32,4.82,9.4,17.43,40.85,10.5,49.71-1.5,1.91-1.61.67-2.85-.62-1.49-1.54-18.62-30.17-20.7-27.88,6.3,18.49,10.46,43.81.42,61.59-13.7,24.27-19.1-10.64-24.57-20.03,1.91,51.96-22.23,73.15-62.11,33.84-11.19-11.03-18.14-24.59-27.02-37.4,1.23,15.18,23.45,43.79-8.25,31.07-20.97-8.41-39.56-31.46-48.09-52.44.33,10.37,4.96,23.8,10.93,32.05l3.27,6.68c5.57,45.72-13.11,86.48-32.23,125.52-6.6,16.07-11.86,35.66-.67,50.8-.55,1.12-.66,2.25-.27,3.4.99.22.94.62,0,1.19,2.89,7.14-13.11,5.3-18.29,4.63-30.77-4-42.88-31.2-35.32-60.33,4.54-11.4,10.17-22.5,15.74-33.42.05-.1.07,1.91-1.22.08,22.4-39.78,34.84-86.98,25.87-132.98-6.78-34.81-30.57-70.07-68.42-70.03-2.11-16.13-8.68-29.82-11.49-46.31l-2.93-3.76c-2.14-14.99-3.59-30.17.64-44.91Z" fill="#12914a"/><path d="M440.5,547.94c-1.95-1.97-1.74-5.19.61-9.66-43.89,56-122.1,83.4-188.81,65.47-1.75-.19-3.4.2-4.96,1.17-24.37-28.79,9.92-72.34,20.4-103,9.26-27.09,14.36-54.71,9.49-83.39,5.84,8.07,26.03,24.93,35.22,28.34,8.12,3.01,22.22,6.48,23.98-5.77,20.79,30.33,68.48,56.67,79.92,3.56,23,13.01,32.06-18.29,35.62-35.61,10.05,47.64,11.94,95.13-11.48,138.9Z" fill="#f0c01d"/><path d="M526.73,291.49c2.71,2.52,11.52-9.86,13.11-11.97,6.6-8.82,29.34-52.99,38.27-53.11,13.6-.18,4.15,44.73,1.81,52.94-10.46,36.69-32.04,60.75-61.25,82.8,25.28-1.94,40.8-28.76,65.55-30.28.61,41.06-43.15,77.58-77.29,90.57-.99.38-23.03,5.73-16.44,6.76,4.42-1.87,8.88.39,13.86.07,6.95-.44,36.59-11.37,35.75-1.2-1.94,23.26-51.31,41.53-70.85,39.14,3.54-11.03-9.49-52.05-7.83-58.65.34-1.35,5.46-3.56,7.25-7.83,5.61-13.4-3.98-41.05-9.9-53.87-6.15-13.31-15.5-22.28-21.71-35.15,45.86-21.8,75.86-82.74,77.08-133.52.29-11.93-4.12-30.2-2.41-40.49,2.69-16.16,21.87,12.99,24.39,17.67,23.12,42.88,11.61,94.95-9.38,136.13Z" fill="#036854"/><path d="M217.45,470.77c-15.09,32.53-39.13,16.87-31.04-14.25.06-5.28,1.45-10.15,1.14-15.43-2.42,3.86-4.13,8.74-5.73,13.05-19.4,46.07-59.65,18.89-45.99-22.56,1.1-3.87,1.88-8.99,2.29-13.05-2.28,2.59-4.37,7.41-5.73,10.68-14.1,29.03-39.07,15.04-29.89-13.06,4.77-48.3,56.7-131.66,104.43-70.44,26.77,34.34,22.19,85.65,10.55,125.05Z" fill="#12914a"/><path d="M402.58,255.87c-4.8-14-16.87-34.41-32.8-35.63-24.4-1.88-41.42,24.2-71.16,20.09-5.5-.76-12.22-5.17-17.69-5.57-12.08-.89-21.42,10.59-22.09,22.3-13.69-7.32-8.48-27.54,2.84-34.47,12.27-7.51,26.72-1.66,37.4-14.81,9.01-11.09,11.9-35.69,18.21-50.06,28.77-65.5,103.78-32.86,109.39,27.54,2.17,23.41-2.02,58.47-24.1,70.61Z" fill="#f5ab10"/><path d="M181.81,454.15c-15.63,42.02-28.71,74.8-57.53,109.78-6.04,7.33-38.92,46.17-40.24,15.44-.96-22.22,43.04-116.98,51.78-147.77-6.28,42.41,21.71,62.91,45.99,22.56Z" fill="#036854"/><path d="M277.23,241.62c6.31,36.34,42.07,91.22,81.24,92.51,4.85.16,20.35-3.64,22.01-9.04,1.71-5.57.49-27.98,1.4-36.55,1.14-10.78,3.13-25.11,5.9-35.47.24-.88.49-5.34,2.14-3.75,2.37,3.74,4.35,7.21,4.67,11.85.77,11.25-1.63,51.64-3.53,62.96-3.65,21.74-24.16,31.65-44.12,30.11-33.92-2.61-71.63-43.99-79.71-76.76-2.84-11.53-5.58-33.92,10-35.87Z" fill="#f5ad10"/><path d="M440.5,547.94c-30.49,56.98-95.07,89.25-157.8,79.24-6.86-1.09-20.7-4.99-26.16-9.2-3.14,2.83-11.92-8.66-9.2-11.87-.07-.32-.03-.85,0-1.19.22-2.23.4-3.26,2.87-3.59,4.37-.57,25.38,5.09,32.49,5.64,44.3,3.48,102.2-16.83,135.41-47.14,10.59-9.67,19.11-21.49,28.72-32.08l-6.33,20.18Z" fill="#d6a60c"/><path d="M286.44,244.01c9.94,1.8,21.4,3.65,31.5,2.26,18.92-2.6,32.55-21.39,54.07-17.62,8.08,1.41,6.75,10.35,6.37,17.12-.52,9.21-9.24,73.26-13.73,76.05s-4.95-12.6-5.85-15.4c-6.19-19.1-19.32-33.81-39.7-36.17-4.71-.55-20.3,2.2-21.24,1.68-2.53-1.4-12.63-26.67-11.42-27.91Z" fill="#4b1e19"/><path d="M208.26,517.07c2.29-1.8,3.03-1.45,2.06,1.53-6.89,21.15-19.86,30.27-15.78,55.98s24.36,36.06,48.9,34c2.25-.19,2.88-.21,3.92-2.46.32,1.49,7.81,10.81,9.2,11.87-31.23,33.75-81.1,7.67-96.41-29.26-7.18-17.32.31-13.15,11.34-23.56,14.19-13.41,27.1-30.9,36.78-48.09Z" fill="#08743e"/><path d="M217.45,470.77c-14.2,48.04-48.97,99.8-97.73,113.96,29.71-39.1,53.56-79.87,66.68-128.21-.39,31.58,9.86,41.83,31.04,14.25Z" fill="#036653"/><path d="M370.37,640.54c-2.3,4.41.23,4.09,4.17,4.6,20.69,2.67,42.63,1.09,62.49,9.08,9.08,3.65,22.36,11.46,20.73,23.13-24.31-.6-42.3-23.29-67.83-21.36,8.41,3.63,49.05,20.88,44.75,33.67-.46,1.51-1.53,1.61-2.8,1.92-11.01,2.66-48.26-15.43-61.75-19.32-10.53-3.04-21.27-4.57-31.94-6.79-.55-4.22,3.14-3.78,6.47-3.28l11.24,2.43c1.59-7.22,6.62-12.39,15.08-15.51-8.62-1.66-4.95-15.84-.6-8.58Z" fill="#f4ab12"/><path d="M192.16,658.35c3.15-1.3,3.98.9,2.48,6.59,6.12.33,10.96,1.88,15.64,6.15,4.36-.45,6.32,2.32,5.89,8.31,5.21-1.94,9.08-1.83,11.62.32-4.57,2.37-11.21,3.57-16.03,6.6-6.88,4.33-33.07,37.16-41.57,26.17-7.93-10.26,19.38-30.52,25.41-36.32-10.34,3.59-59.04,30.15-66.55,25.96-1.81-13.91,15.36-23.87,26.57-27.49,12.07-3.91,31.22-2.41,36.53-16.29Z" fill="#f4ab13"/><path d="M132.37,429.21c-11.54,27.65-20.86,56.9-34.7,83.48-.99,1.89-3,7.19-5.53,6.75-5.68-33.46.97-71.11,10.33-103.29-.77,7.8-1.39,23.04,7.72,25.86,12.37,3.82,14.27-7.01,22.18-12.8Z" fill="#036754"/><path d="M278.39,321.17c2.65.8,25.94,25.97,35.74,31.37,32.12,17.68,51.23,15.04,78.09-7.62.94-.79,2.12-1.31,2.88-2.37-.28,18.02-15.97,29.94-32.52,32.9-37.18,6.63-70.68-23.35-87.62-54.88.88-1.86,2.59.35,3.44.6Z" fill="#09703b"/><path d="M354.26,323.54c-23.73-5.69-41.75-24.76-52.88-46.28,28.34-7.59,55.27,16.56,52.88,46.28Z" fill="#e93d31"/><path d="M370.37,640.54c-.07.1-2-1.53-2.28.61-1.03,7.93,5.72,4.26,10.32,5.91-.13,1.17-16.32,9.2-18.1,11.56-1.32,1.75-2,7.38-2.75,7.86-3.84,2.48-15.03-4.95-19.38-1.01-4.44-.92-10.8-.22-13.67-4.36-2.68-8.39,14.4-8.37,18.87-11.05,6.07-3.64,9.35-16.34,12.85-19.1,4.52-3.57,21.02-7.52,26.78-11.79.87.87-11.25,19.36-12.63,21.37Z" fill="#e68e0e"/><path d="M192.16,658.35c2.37-6.18,3.06-12.44,3.45-19l25.28,3.58-5.74,26.1c13.61-3.85,38.2-2.54,12.64,10.69l-12.46,2.25c-3.41-2.62-1.01-7.87-1.33-8.17-.23-.23-3.33.17-4.65-.55-2.62-1.41-4.13-3.51-7.03-4.62-2-.76-10.93-1.51-11.32-1.98-1.1-1.35,4.4-6.29,1.15-8.3Z" fill="#e68f10"/><path d="M154.22,267.75c-3.19-2.36-1.73-.62-2.96,1.05-3.82,5.2-20.26,21.75-21.28,6.67-.79-11.72,18.64-43.44,21.94-56.4-.88,17.57-.68,31.19,2.3,48.68Z" fill="#0a773e"/><path d="M285.27,195.32c-16.22-13.67-26.61-19.6-47.14-8.92-4.49,2.34-18.98,15.83-20.25,15.93-4.6.37-2.57-12.59-1.95-15.11,2.9-11.82,21.9-23.94,33.1-25.19,17.97-2.01,47.2,10.73,36.24,33.28Z" fill="#062421"/><path d="M291.04,138.33c-26.12-22.97-59.09-16.46-80.47,9.5,5.94-43.66,63.35-51.96,80.47-9.5Z" fill="#052320"/><path d="M369.53,142.77c-3.31-3.7.66-8.65,4.97-9.15,10.04-1.17,24.14,11.23,29,19.78,2.5,4.4,7.83,13.53,1.95,16.65-3.47.38-14.93-14.76-19.09-17.96-3.86-2.97-15.33-7.64-16.83-9.33Z" fill="#fadf7e"/><path d="M349.66,165.65c-10.67,2.8-11.93-16.02-3.77-12.22,4.44,2.07,3.93,8.05,3.77,12.22Z" fill="#091c22"/></svg>