<?xml version="1.0" encoding="UTF-8"?><svg id="Layer_1_copy_3" xmlns="http://www.w3.org/2000/svg" viewBox="0 0 612 777.94"><path d="M494.78,50.11c6.57-2.39,9.33,1.4,8.85,8.08-.42,5.79-11.96,48.69-14.52,53.96-4.56,9.37-12.72,4.33-11.22-7.23,1.01-7.8,10.51-43.17,13.62-50.2.86-1.94.92-3.76,3.27-4.61Z" fill="#f7d885"/><path d="M560.52,86.91c6.94-.39,6.37,7.84,3.55,12.65-1.56,2.66-30.64,32.18-33.08,33.64-7.11,4.25-13.04-1.75-9.6-8.99,1.18-2.49,29.43-30.84,33.07-33.66,1.49-1.15,4.35-3.54,6.07-3.64Z" fill="#f7d985"/><path d="M418.18,55.85c4.73-1.82,7.44.36,9.91,4.14,2.11,3.21,20.46,44.6,20.86,47.26.56,3.68.04,5.93-3.36,7.49-6.27,2.87-8.69-3.58-11.22-8.32-2.54-4.78-18.47-39.47-18.91-42.42-.39-2.65-.1-7.06,2.72-8.14Z" fill="#f6d885"/><path d="M287.99,43.37c10.87,11.96-10.65,27.21-9.45,28.41,36.98,6.12,81.56,29.42,90.26,71.46,1.67,8.07.57,15.46,1.68,22.44.75,4.71,4.66,11.81,5.95,17.94,1.54,7.36,1.41,18.98,2.96,24.55.94,3.38,12.71,12.24,11.82,19.26,1.78-13.7,4.52-49.93,17.11-57.46,19.78-11.82,101.43,5.42,124.81,13.35,11.04,3.74,44.58,16.73,46.28,29.75.26,1.99-1.32,4.91-1.19,5.13,1.96,3.33,26.07-1.15,28.47,16.71,5.82,43.41-36.42,104.34-79.86,106.68,19.71,33.34,1.14,94.6-33.91,109.54,14.94,10.9,8.3,20.84,10.97,33.96.67,3.27,3.72,4.05,4.36,9.24.69,5.55-1.56,17.01-7.37,18.79-16.93,5.19-74.52-19.51-94.36-22.81-1.4,20.2-8.64,37.38-17.33,54.96-1.81,3.66-7.71,10.36-8.45,13-4.49,16.06-1.09,22.78-11.61,39.64-5.44,8.72-11.84,7.15-6.26,21.41,22.92-.93,89.48,6.87,87.34,42.07-1.16,19.01-21.86,8.86-22.91,9.93-1.72,1.76,1.07,11.47-10.66,13.55-14.86,2.64-47.77-14.41-63.98-19.62-9.65-3.1-43.09-9.39-48.43-14.67-11.83-11.68,3.21-29.66,16.98-27.7-2.08-22.22-27.68-8.13-41.05-6.94-16.25,1.45-32.8-.62-48.66-3.99-3.05-.65-13.6-4.96-14.78-4.79-.91.13-11.19,10.47-13.96,12.53-4.82,3.58-15.37,7.27-16.16,11.79-3.1,17.69,7.34,16.18,15.93,26,28.83,32.97,3.31,58.9-27.88,29.98-5.32,27.58-45.2,41.06-40.49,2.32-41.15,30.67-47.01-11.87-14.57-35.55,7.47-5.45,24.32-10.54,27.1-18.67,5.96-17.37.1-12.94-7.63-21.87-3.92-4.53-6.96-10.65-10.36-15.66-15.52,9.87-55.97,28.01-72.18,15.03-3.7-2.96-4.02-9.44-4.42-9.78-1.41-1.21-23.04,7.97-35.75,2.54-31.97-13.67,28.83-46.24,38.46-54.45,13.1-11.16,46.58-49.64,48.27-66.79.19-1.9-8.21-28.78-9.22-35.4-3.93-25.71-3.61-53.66,2.31-79.03,4.75-20.34,14.61-33.66,15.04-55.63.44-22.52-8.23-42.95-9.85-64.64-6.65-88.91,42.12-143.63,109.45-186.65,14.93-9.54,62.17-36.38,77.18-19.87Z" fill="#062220"/><path d="M117.75,282.78c-5.37-36.18-11.81-52.77-2.73-91.08,12.94-54.61,70.64-104.87,116.47-129.73,6.72-3.65,45.36-22.46,49.16-11.35,2.63,7.69-27.86,24.3-32.73,29.23,42.91-1.57,103.41,18.89,112.65,69.19-33.06-46.12-87.21-15.28-102.26,29.99-12.8-81.38-103.43-58.3-85.32,23.05,1.01,4.52,7.14,18.93,7.16,20.06.01.64-8.62,6.48-8.79,8.74,17.15-4.14,31.53-5.1,48.12,2.34l-13.6,13.89c-4.82,8.14-4.08,20.43,2.23,27.47,2.61,2.92,9.77,5.37,10.8,7.07,1.23,2.05,3.85,14.61,5.86,19.19,2.38,5.45,5.72,11.61,8.93,16.52,2.71,6.57,6.55,12.52,11.52,17.85-1.77,5.69,3.38,11.27,7.32,15.37,21.49,22.33,64.29,30.98,81.46-.62,4.07-4.58,6.81-2.64,2.56-1.8-.32.06-.72-.32-1.15-.84,8.17-8.75,15.28-17.95,16.14-30.91.59-8.92-3.97-35.11-1.77-40.99.72-1.92,5.24-2.6,7.53-4.74,13.61-12.68,17.6-34.58,20.2-52.48,22.85,35.4,2.41,77.78-12.56,111.83,4.5.62,9.1-10.75,10.9-9.21,11.45,18.3,24.63,34.48,23.65,58.03-.88,21.27-4.5,6.96-9.16-.07-2.54-3.84-5.2-8.06-8.99-10.69,4.38,18.8,4.13,37.6-2.89,55.19-45.18-.97-92.57-10.13-131.55-35.12-29.01-18.6-65.99-64.02-99.64-66.18-1.84-1.43-3.45-3.62-4.83-6.58-4.61-3.26-23.83-30.53-23.55-32.57.16-1.17,3.36.64-1.15-.06Z" fill="#129149"/><path d="M266.5,409.6c20.27,29.21-18.48,37.54-38.28,28.82-8.18-4.57-16.64-8.83-25.16-12.67,7.2,6.37,14.18,13.91,21.88,19.59,10.23,10.58,6.2,25.22-6.61,30.76-11.69,5.06-25.03,3.88-36.05-1.94-7.97-6.49-15.83-12.61-22.43-20.75,1.21,6.52,7.29,12.55,11.49,17.29l1.25,3.41c22.19,19.21-14.24,25.92-26.4,17.35-5.27-4.77-10.11-8.77-15.31-13.84-.74-2.87-1.93-4.93-4.97-6.49-12.16-14.66-18.32-33.46-22.36-52.19l-2.19,1.03c-1.64-54.2,13.42-114.23,75.81-75.87,31.84,19.58,52.73,48.5,89.36,65.49Z" fill="#12914a"/><path d="M452.45,323.13c-14.73-22.2-18.52-52.45-17.54-79.02.23-6.2,4.97-33.4,3.9-36.23-.46-1.21-19.46-16.02-20.26-15.03-2.18,16.32-5.6,32.39-4.43,49.05,1.9,27.1,19.6,43.98,25.21,69.68-36.24-21.57-46.86-82.16-33.11-120.79,3.14-8.83,4.37-12.93,14-14.07,17.81-2.1,13.27,7.58,21.86,19.57l4.93-19.6c4.99.92,10.27,1.76,15.3,2.31l2.28.73c-.97,6.84-2.18,13.66-3.64,20.46,10.76,9.32,17.89-7.85,18.67-17.98l2.38-.9c22.2,3.82,46.15,9.98,66.72,19.6-1.09,2.73-.93,5.83.51,9.29-5.93,47.77-29.41,103.26-75.64,119.11-11.05,3.79-14.9,4.37-20.1-7.57l-1.02,1.39Z" fill="#f3b019"/><path d="M218.37,271.24c-2.36,2.67-15.12-16.12-.35-27.47,4.66-3.59,12.28-5.46,17.12-8.47,24.5-15.23,22.45-39.34,34.47-62.82,44.94-87.84,124.81-8.97,92.26,75.34-1.38,3.57-6.61,17.51-10.54,14.16-3.77-3.21-8.74-14.43-13.8-18.89-24.48-21.57-46.09,9.43-69.49,11.89-21.11,2.22-35.86-17.62-48.81,10.81-.78,1.71-.86,3.61-.84,5.45Z" fill="#f5ab11"/><path d="M325.57,512.22c12.23-6.84,28.06-18.42,18.59-34.58,15.93-.92,47.5-21.19,47.08-39.74-.13-5.66-5.11-10.55-5.19-11.56-.1-1.18,7.43-18.74,7.32-22.49,1.15,9.61,8.79,25.74,7.65,35.04-1.13,9.3-21.75,23.46-20.88,37.01.61,9.42,16.45,10.71,16.55,16.02.25,14.29-11.3,40.39-18.62,52.58-2.46,2.07-3.53-.14-2.78-3.11-27.83,28.05-70.01,44.77-108.74,46.42-7.4.32-32.23,0-36.76-4.4-.6-.59-1.1-1.29-1.57-2.02-.63-.18-1.62.2-2.19,0-2.62,1.82-3.67.51-2.19-2.31-.59-11.19,3.66-16.58,12.14-23.19,32.03-6.36,64.99-15.46,89.17-40.62.93-.97,1.18-1.87.41-3.06Z" fill="#efc01d"/><path d="M226.03,581.39c-18.26,21.93-35.53,47.83-67.03,34.33-30.74-13.17-34.93-64.37-32.5-94.28,9.85,8.42,39.47,31.62,49.47,14.68.93-1.58.42-5.42,1.37-5.45,1.96-.07,29.05,13.36,36.65,14.98l1.43,2.61c-3.22,10.2-.9,21.74,7.94,27.85l.47,2.98c.73.42,1.66,2.12,2.19,2.31Z" fill="#08763f"/><path d="M228.22,438.43c10.97.53,38.72,4.58,41.49-12.18,1.34-8.1-2.75-9.92-3.21-16.65,35.21,16.34,73.28,21.07,111.27,25.11,10.97,9.92-11.33,25.21-19.75,29.28-45.02,21.74-90.67-3.71-129.8-25.56Z" fill="#036754"/><path d="M182.28,474.17c3.7-2.44,7.45,1.91,11.46,2.33,20.86,2.17,43.38-4.73,31.2-31.15,20.46,15.08,50.63,28.66,75.28,33.06,13.62,2.43,59.25.86,25.7,23.22-46.22,30.81-105.12,3.92-143.63-27.46Z" fill="#036854"/><path d="M60.88,604.43c-1.13-2.33,20.17-17.5,22.97-20.15,4.53-4.28,33.59-36.01,31.7-39.78-10.5,5.88-18.17,17.81-27.91,26.48-13.58,12.08-30.92,24.66-49.21,26.53-3.67.37-22.68,1.28-22.28-3.84,11.52-14.46,28.81-21.93,43.05-34.22,20.35-17.55,38.16-39.28,49.25-64.52.97.21,7.83,11.65,8.15,13.32,2.41,12.74-.62,34.23,1.19,49.48,1.2,10.17,4.6,19.79,6.41,29.79-16.57,13.66-42.47,26.62-63.31,16.91Z" fill="#03594b"/><path d="M487.44,424.59c5.78-23.82-36.01-17.42-35.75-33.84.34-21.1,40.93-22.21,53.17-11.61,2.85,2.47,4.15,7.79,7.74,9.7-3.36-22.92-29.5-30.47-48.11-24.21-1.17-30.75,48.17-33.83,58.56-9.28,8.8,20.78-4.66,64.9-20.81,79.63-3.26,2.97-15.35,11.57-19.23,8.69-1.55-1.15-7.53-29.11,4.42-19.09Z" fill="#036854"/><path d="M212.35,137.02c36.33-.51,50.12,63.22,25.19,86.99-12.06,11.5-12.12,3.59-24.65-.6-17.8-5.95-25.69,2.27-32.2-20.24-7.41-25.61.04-65.7,31.66-66.14Z" fill="#f9e6a8"/><path d="M251.59,326.17c-12.74-13.63-36.97-50.62-19.52-67.59l21.52,37.24c16.42,25.07,51.46,47.43,78,25.01l2.75-65.72,6.64,7.4c-1.76,26.97,11.84,61.22-13.29,79.57-24.37,17.8-57.27,4.23-76.09-15.91Z" fill="#f5ac10"/><path d="M312.45,319.66c-2.52-18.52-18.74-33.79-36.63-34.64-4.3-.2-16.21,3.46-16.96,3.02-1.52-.89-19.9-29.43-18.6-30.62,15.24,3.9,28.86,5.04,44.04-.27,7.59-2.66,36.75-23.95,40.14-7.2,1.62,8.02-1.85,57.25-4.99,63.86-.51,1.08-5.9,7.1-7.01,5.86Z" fill="#4b1e1a"/><path d="M378.07,544.5c-33.56,55.85-100.47,73.92-158.6,53.02l8.75-16.13c44.5,12.69,101.07-4.42,136.63-32.96,1.74-1.4,17.4-18.86,14.88-9.7-.3,1.11-4.42,4.2-1.66,5.77Z" fill="#d7a60c"/><path d="M560.74,207.83l2.39,2.11c-1.03,13.78-2.65,27.55-4.87,41.3l-15.09,37.38c-2.66,2.81-4.68,6.01-6.06,9.57-4.57,4.5-6.19,8.98-8.09,14.56-2.39,2.92-16.33,18.88-18.3,19.42-2.79.77-6.95-2.05-10.63-2.17-14.41-.46-28.63,3.69-39.43,13.87-.68-9-5.3-13.42-8.2-20.75-.66-1.66-2.42-5.35-1.65-6.91,4.54.23,8.02,12.42,8.94,12.72,8.86,2.88,31.19-10,38.57-15.7,25.11-19.4,46.7-70.76,48.72-103.02.18-2.82-4.43-7.91,1.67-9.31,5,2.34,7.51,4.03,12.03,6.92Z" fill="#e5900f"/><path d="M176.81,635.58c1.16,24.83,1.44,13.1,16.31,26.04,6.85,5.96,15.98,20.34,10.32,29.15-14.87.05-25.67-13.31-33.18-25.21,2,10.1-12.12,45.37-25.18,37.48-9.09-5.5,2.25-32.46,7.66-38.64-6.05,2.92-39.04,30.45-43.25,26.66-6.1-25.99,27.33-34.31,43.26-45.11,2.95,3.52,8.73,4.3,13.06,1.47l7.71,1.54.12-16.48c3.17-4.25,4.57-1.06,3.17,3.09Z" fill="#f4ab14"/><path d="M146.18,491.46c6.6,1.31,33.11,4.08,31.54-8.39-.63-4.96-9.27-7.26-6.38-12.37,7.03,7.93,18.56,19.01,27.02,25.13,12.25,8.88,38.51,17.89,46.83,25.58,11.89,11.01-6.72,16.18-15.33,16.23-32.63.18-60.79-25.49-83.67-46.2Z" fill="#036855"/><path d="M356.19,629.82c20.22.98,42.31-.73,61.53,7.2,9.74,4.02,23.7,13.64,21.59,26.24-23.45-5.34-42.96-21.16-67.81-23.05,8.12,6.61,45.45,18.53,45.95,30.65.37,9.06-14.83,2.59-19.64.99-20.64-6.83-38.29-15.2-60.21-21.27-1.27-4.47.15-6.45,2.87-9.77,3.11-3.81,11.41-11.14,15.73-10.98Z" fill="#f3ab14"/><path d="M433.84,343.89c-3.54,6.93-9.21,11.59-11.43,19.64-4.63,16.78-1.82,39.97,18,40.31,1.73,2.59-9.74,26.76-13.63,28.93-3.4,1.89-11.96-1.43-16.3-.03-.34-5.92-9.48-28.14-9.04-31.8.14-1.18,3.19-3.56,3.87-5.87,6.8-23.07,1.27-44.04-10.82-63.86,12.12,6.51,25.34,13.02,39.36,12.68Z" fill="#08733e"/><path d="M325.57,512.22l4.37.57c-16.41,22.69-45.06,32.19-70.03,40.33-6.55,2.13-18.2,2.89-22.96,4.82-1.17.47-9.5,9.57-9.9,10.48-1.41,3.16.92,10.77-3.2,10.66-11.57-6.65-14.57-20.95-9.84-33.44,16.58,3.53,49.57,3.49,42.66-23.05,23.49,4.44,47.73,1.44,68.91-10.39Z" fill="#efc01d"/><path d="M520.38,325.88c10.82-14.13,27.2-18.8,39.43-30.86,14.54-14.34,23.43-35.93,24.5-56.74h-13.86c3.61-13.04.25-14.67,14.36-13.45,12.39,1.08,13.93,3.35,13.38,16.3-1.74,40.98-37.86,83.57-77.81,84.75Z" fill="#f3af1c"/><path d="M101.34,419.98c.17-2.98,1.25-9.68,2.17-12.67,4.18,23.93,11.51,51.59,29.52,68.04l-2.16,2.28c-.59-.58-5.62-7.14-5.46-2.9,7.29,10.07,13.84,20.54,21.84,30.02,7.34,8.7,18.38,14.56,21.45,25.94-3.15,6.29-20.28-4.58-23.95-7.16-28.06-19.75-45.35-69.01-43.41-103.55Z" fill="#08723d"/><path d="M395.58,264.34c7.34,20.79,16.05,36.31,31.7,51.31,3.81,3.65,18.5,12.91,19.19,16.72,1.48,8.06-29.15-.97-32.87-2.31-10.57-3.8-21.09-10.82-29.58-18.49l11.56-47.23Z" fill="#fff"/><path d="M497.16,502.84c-4.42,3.38-94.41-23.39-105.95-28.08,1.74-1.53,2.49-6.4,3.8-7.52,4.97-4.22,37.15,5.06,44.77,7.02,7.64,1.97,56.96,16.28,58.49,21.44.32,1.09-.77,6.87-1.12,7.14Z" fill="#7f4e26"/><path d="M233.69,317.37c17.28,26.39,44.93,45.9,76.83,41.2,10.09-1.49,16.59-7.86,24.9-11.23,1.03-.42,3.71-1.94,4.37-.58-3.92,2.37-5.5,7.92-7.84,10.77-.29.36-3.47,3.84-5.25,5.42-24.54,21.86-71.04,4.67-84.09-22.74-.71-1.48,1.08-3.45.66-4.17-3.02-5.13-10.29-12.59-9.57-18.67Z" fill="#129149"/><path d="M445.89,444.19c15.67,3.42,55.3,15.27,49.21,38.04-18.56-5.82-36.94-13.6-55.78-18.44-.78-.31-1.5-.82-1.75-1.7-.29-1,5.55-19.02,8.31-17.9Z" fill="#eea616"/><path d="M356.19,629.82c-4.92,5.47-12.27,9.25-16.51,15.53-1.14,1.68,1.28,4.05-2.08,5.22-4.93-1.37-25.85-4.2-27.19-8.89-2.87-10.08,17.75-9.59,22.82-10.71l-3.29-16.13c19.52-.87,23.55-11.32,26.25,14.98Z" fill="#e79010"/><path d="M473.24,414.22c-1.79,9.97-2.4,19.95-1.11,29.96l-36.06-9.79c5.72-8.68,10.01-18.73,10.92-29.41l26.25,9.24Z" fill="#e89a13"/><path d="M454.54,371.39c-.15.32-4.6,2.07-5.9,3.65-4.76,5.74-6.85,11.78-6.04,19.57-28.1-.44-7.7-51.49,7.1-49.63,3.18.4,5.43,25.16,4.84,26.41Z" fill="#046853"/><path d="M280.18,290.85c10.74,1.74,28.36,16.79,25.14,30-17.64-2.62-34.43-13.48-43.19-30,5.6.64,12.67-.87,18.05,0Z" fill="#ea3e34"/><path d="M530.08,311.21c-2.56-1.23,1.2-3.21,1.11-5.05-.05-.99-2.36-.12-2.17-1.12.34-1.8,5.96-7.38,7.17-9.25,1.96-3,1.68-8.67,4.5-5.95l15.82-38.96c-.22-13.91,6.66-28.38,4.48-41.89,1.56.99,6.21,2.01,7.45,3.95,3.6,5.63-3.54,28.45-5.64,35.59-7.07,23.99-17.19,43.7-32.71,62.68Z" fill="#e5900f"/><path d="M147.28,321.98c-9.8-.63-18.71.6-27.34,5.76,2.45-15,.01-30.12-2.19-44.96,1.37-1.32.59-3.52,2.68-1.1,4.24,4.92,8.95,14.77,13.28,20.6,4.05,5.46,14.19,12.84,13.58,19.7Z" fill="#09753d"/><path d="M152.75,645.96c1.42-6.05,5.55-12.38,4.38-19.61l21.87,2.33-2.19,6.9c-.06-1.27.75-3.76-1.08-3.45l-.03,19.59c-.21.51-9.38-2.18-10.46-2.17-.48,0-.47,2.23-1.13,2.24-3.57.05-7.93-2-12.46-.08,1.29-1.88.7-4.08,1.09-5.75Z" fill="#e58c0f"/><path d="M322.29,605.59l47.02-32.27c-2.58,26.31-24.38,35.37-47.02,32.27Z" fill="#097640"/><path d="M481.98,181.32c-2.03,12.04-5.36,27-20.24,23.05-8-2.12,2.69-19.5.55-25.36,6.56.72,13.18,1.19,19.69,2.31Z" fill="#fbe087"/><path d="M445.89,444.19l-6.56,19.6c-5.65-1.45-11.77-2.25-17.5-3.46-3.96-4.26,2.42-17.18,7.66-18.45,6.46.21,10.24.96,16.41,2.31Z" fill="#f8de82"/><path d="M429.48,441.88c-3.37,5.61-6.99,11.68-7.66,18.45-6.9-1.46-14-2.01-20.78-4.03,10.32-14.1,11.57-14.96,28.43-14.42Z" fill="#f0ac16"/><path d="M427.28,258.56c-7.39-15.13-4.18-33.26-3.26-49.56,9.11,1.79,3.48,17.56,3.23,24.74-.29,8.25.3,16.58.03,24.82Z" fill="#f0f0f0"/><path d="M574.72,249.52c2.5,2.56-13.82,36.09-20.23,38.18l16.56-37.01c.38-1.41,3.32-1.53,3.67-1.17Z" fill="#f0f0f0"/><path d="M462.29,279.31c-1.99.43-2.71-1.06-3.75-2.37-8.06-10.17-6.87-53.98-.67-65.12,3.63-6.52,13.79-4.76,14.23-.02.15,1.62-7.67,25.04-8.55,31.38-1.61,11.61-2,24.61-1.26,36.14Z" fill="#fbe086"/><path d="M320.45,156.75c-.96-1.2-1.64-2.67-.92-4.21,10.16-14.2,37.87,18.89,31.81,27.68-3.8,5.51-12.65-10.3-15.91-13.33-3.6-3.34-13.05-7.73-14.97-10.14Z" fill="#fadf7c"/><path d="M304.52,165.46c2.63,2.81,2.01,11.84-3.13,10.72-7.75-1.69-4.18-18.53,3.13-10.72Z" fill="#0c1c21"/><path d="M210.41,160.82c27.87-6.9,35.69,63.91,1.34,56.88-23.97-4.91-18.58-52.61-1.34-56.88Z" fill="#052421"/><path d="M225.76,174.69c3.22,3.45,2.07,10.35-4.59,8.92-8.78-1.88-1.55-15.5,4.59-8.92Z" fill="#f2e8b6"/></svg>