<?xml version="1.0" encoding="UTF-8"?><svg id="Layer_1_copy_4" xmlns="http://www.w3.org/2000/svg" viewBox="0 0 612 777.94"><path d="M390.17,81.29c69.33,18.41,103.74,90.17,98.12,162.97-.41,5.28-4.64,19.66-4.3,22.22.3,2.3,7.45,13.63,9.03,18.88,5.08,16.85,5.48,31.53-1.42,47.74-1.94,4.56-12.19,17.85-12.3,19-.22,2.3,6.39,18.21,7.51,22.8,16.83,68.79-.07,135.63-41.47,189.83-5.37,7.04-17.27,17.28-21.13,23.74-6.56,10.99-7.09,21.12-17.34,32.51-2.28,2.53-16.71,13.09-16.83,14.22-1.14,10.68,13.85,7.98,20.43,9.23,19.72,3.76,63.92,11.15,64.42,39.41.43,24.25-23.21,12.44-24.53,13.57-1.24,1.06.68,10.86-9.13,13.41-12.64,3.29-46.5-14.51-60.24-19.66-9.76-3.66-45.03-12.71-49.81-18.14-10.96-12.47,4.26-29.65,17.74-27.75-1.82-20.43-13.32-11.09-25.11-10.68-17.62.61-30.95-.43-48.07-4.53-8.36-2-13.92-9.89-19.34,4.07-1.82,4.69-1.3,16.77,1.26,21.08,3.08,5.18,28.9,11.08,38.28,19.73,21.85,20.13,15.1,55.9-16.12,35.51-.23,28.21-21.31,19.88-35.15,7.14-3.64-3.35-14.49-18.05-16.95-18.78-8.48-2.51-19.75,19.58-34.04,12.54-16.18-7.97-1.15-34.4,8.09-42.97,10.86-10.06,18.91-7.6,13.37-29.01l-23.49,24.17c-16.32,12.09-36.19,22.96-56.41,16.35-1.65-.54-3.17-3.35-4.23-3.46-.79-.08-10.43,5.27-13.03,5.96-13.53,3.57-36.83,4.08-32.97-17.28,1.9-10.52,32.49-36.85,41-46.45,5.83-6.57,10.69-14.32,16.69-20.75-5.05,3.08-12.34,1.21-16.69,2.98-2.24.91-9.68,11.06-12.88,13.56-20.86,16.35-24.11-7.91-22.67-25.29.75-9.11,12.26-45.17,11.84-47.59-.16-.94-5.01-3.78-6.41-5.88-20.54-30.89-2.12-132.03,9.53-167.59,12.33-37.64,31.7-66.78,60.45-92.14-8.06-118.18,88.8-220.06,196.99-225.43,21.25-1.05,53.45,3.85,27.29,30.76Z" fill="#062220"/><path d="M209.6,510.21c26.97-52.87,44.49-122.88,18.25-179.94-12.11-26.33-32.31-42.09-60.61-42.21,1.72-1.36,3.7-2.16,5.07-4.1,5.66-8.05,4.65-36.58,6.27-49.02,11.13-85.87,74.48-150.48,152.72-169.41,8.34-2.02,57.17-11.06,58.83-.08.98,6.5-32.01,15.05-36.73,18.22,74.75,3.98,128.14,66.18,124.83,145.75-2.69,2.92-41.83-10.83-46.04-15.32-.59-.63-4.37-11.96-4.96-13.99-.84-2.93,1.36-8.35-2.49-7.42l-3.37,18.96c-28.99-5.94-45.79,18.46-59.05,41.47,8.61-18.38,9.26-44.34.62-62.87-2.17-4.65-5.36-7.96-10.1-9.42-.08,6.56,6.97,19.43,6.14,25.5-.47,3.48-18.65,12.72-22.34,14.18-20.58,8.15-40.45,7.16-61.93,8.84-1.99,50.31,44.66,73.21,78.66,36.8-12.8,20.11-60.46,48.9-50.41,77.89,5.09,14.67,28.7,9.93,40.39,10.97-1.62,2.52-4.6,3.72-8.92,3.61,17.29,17.04,68.23,24.52,85.85,7.92,1.34-3.44,3.19-4.91,5.55-4.42,4.01,5.9,9.73,1.73,14.82-1.43,13.53-8.4,24.31-32.28,27.04-48.27,2.5-14.64-2.81-31.02,10.54-38.6,9.94,18.21,12.24,40.78,2.71,59.79-4.98,9.93-14.67,16-19.44,26.12,2.44,1.55,9.22-2.92,10.01-2.35,1.11.79,6.56,23.76,7.27,27.24,8.52,41.8,4.97,85.88-12.81,124.41,7.28-32.72,7.53-70.23-.75-102.88-.87-3.42-2.2-8.52-4.83-10.86v24.29c0,9.22-19.11,39.02-31.21,36.14-.31-10.09.54-23.56-5.56-31.99,1.21,16.81-6.66,47.44-22.67,54.7-32.03,14.52-59.54-40.52-71.53-64.17l11.14,41.47c-14.35-1.37-27.67-8.49-38.31-18.51-2.86-2.69-16.16-20.22-17.41-20.59-1.18-.34.33,2.93-1.65,2.35l-2.26-5.9c-1.94-.54-.8,2.17-1.1,2.36-1.72,2.33-1.1-.51-1.05-.37,10.24,29.62-14.88,84.79-27.44,112.05-6.29,15.23-11.76,31.62-9.88,48.46l-1.76,3.36c-7.56,1.37-17.36-7.03-23.46-12.37-7.05-6.17-18.94-18.16-19.39-27.54,4.61-9.44,8.87-19.05,12.76-28.81Z" fill="#11904a"/><path d="M279.82,415.43c10.39,21.31,35.81,51.4,60.67,48.49,2.53-.3,5.64-3.48,7.34-2.9,1.31.45,14.33,16.73,19.7,20.54,16.68,11.82,33.39,13.07,47.72-3.32,3.34-3.82,7.71-14.87,8.38-15.41.45-.37,7.51,1.55,11.41.89,14.08-2.37,21.22-19.11,27.56-30.51,4.9,42.47-2.61,81.17-23.39,117.3-.99-1.75-2.31-1.03-3.98,2.16-52.48,49.78-129.24,59.63-193.3,32.2-3.27.72-4.98-3.67-2.23-5.92-6.13-34.6,21.42-71.46,30.88-104.02,5.46-18.81,9.5-41.13,7.03-60.67.18-.33,2.11,1.26,2.22,1.19Z" fill="#efc01d"/><path d="M220.75,456.9c-5.91,19.88-37.89,30.1-32.32,0,.03-6.72,1.88-13.33,1.1-20.13-2.45,5.59-3.72,11.91-5.56,17.77l-2.17,1.45c-2.18,8.01-13.65,19.73-21.77,18.13-21.16-4.17-19.6-24.44-16.19-42.09.23-4.88,1.75-9.4,2.22-14.22-2.06,2.94-5.36,8.66-6.67,11.85-14.39,27.94-40.86,9.63-34.55-17.77,7.78-41.54,41-155.05,98.46-100.51,35.28,33.49,29.84,102.28,17.46,145.53Z" fill="#12924a"/><path d="M414.69,339.6c.3.73,1.4,2.08,1.11,2.35-10.94,1.99-21.68,6.32-32.84,7.16-9.2.7-18.16-1.3-26.73-1.28-9.66.02-34.58,2.92-41.51-.9-15.26-8.38,2.91-33.28,10.24-41.71,9.49-10.91,22.63-19.09,32.34-30.78,15.85-19.08,24.92-51.6,52.39-54.49,40.22-4.23,54.32,55.11,49.43,88.09-1.48,9.97-14.41,47.76-26.95,44.67-1.31-.32-10.72-20.06-14.18-24.33-26.61-32.73-80.34-19.1-100.27,14.75,12.52-4.14,22.22-13.57,34.58-18.33,20.67-7.95,41.86-9.28,57.93,8.86-1.28,1.37-2.78,2.32-4.52,2.82-21.26-.65-41.76,1.36-61.49,6.04-8.48-1.38-15.45,0-20.92,4.17l1.02-1.73c21.58-.77,43.27-.98,65.08-.64l1.33,2.37,1.61-2.52c6.65-1.59,13.19-3.64,19.62-6.14l2.73,1.56Z" fill="#f4ab11"/><path d="M143.84,432.01c-.35,7.26-.69,29.36,4.74,34.07.54.47,11.29,5.81,12.35,5.81,8.57.02,19.02-12.27,20.82-20.92l2.21,3.54c-10.47,33.39-26,70.76-42.17,101.5-4.28,8.14-31.55,56.48-39.66,53.68-6-9.97.36-25.32,1.21-36.5l40.5-141.19Z" fill="#036854"/><path d="M239.7,578.93c.3,1.71,1.66,4.07,2.23,5.92l2.85,1.53c2.82,8.79,8.05,16.14,15.39,21.22l.7,3.32c-7.58,19.43-30.77,22.15-47.7,16.94-13.38-4.12-41.5-34.21-45.36-47.82-1.84-6.51,13.45-22.41,17.51-28.69,8.18-12.66,17.43-27.71,24.28-41.14-.09,11.01-9.11,20.14-10.98,31.23,9.25,16.6,24.46,30.05,41.07,37.49Z" fill="#09753f"/><path d="M241.92,584.85c1.59-2.65.58-2.22,3.04-1.56,5.95,1.59,12.84,5.56,19.02,7.14,62,15.85,112.77,5.6,163.97-33.54,2.47-1.89,12.53-15.2,11.26-6.4-32.69,56.81-121.2,98.6-178.33,60.43-10.11-6.75-15.25-14.05-18.95-26.07Z" fill="#d6a60c"/><path d="M162.78,586.05c5.52,21.16,25.08,38.14,42.33,49.15-13.67,20.72-41.08,40.32-65.72,36.13,9.44-9.73,19.79-19.07,27.86-30.2,1.62-2.23,12.65-19.45,12.91-20.66,3.16-14.52-17.96,15.32-19.03,16.53-13.12,14.86-37.17,38.88-57.68,37.57-2.74-.18-10.64-1.81-10.42-5.69.41-7.19,33.58-37.16,40.24-44.92,8.59-10.01,18.35-28.1,26.2-36.13,1.08-1.1,1.42-2.27,3.32-1.79Z" fill="#03594a"/><path d="M188.42,456.9c-.1,19.16,10.58,20.69,23.57,10.24,4.52-3.64,4.46-8.2,8.75-10.24-8.14,28.43-20.24,54.07-35.88,78.57-13.21,20.69-30.2,45.93-52.72,55.33,22.66-42.65,43.04-86.74,56.27-133.9Z" fill="#036955"/><path d="M371.22,636.99c1.68-.05,9.65-.35,10.02.02.53.53,1.09,14.23,2.37,15.24,1.17.93,24.53,2.05,29.09,2.85,18.24,3.17,52.67,8.56,52.15,34.03l-65.76-24.87c8.9,4.65,39.15,19.83,41.05,30.47,1.12,6.27-3.57,5.3-8.05,4.92-13.04-1.12-44.39-17.15-59.18-22.4-7.41-2.63-26.74-6.22-31.79-9.46l1.39-2.13,18.03,3.47c-1.09-10.07,10.75-15.53,18.56-18.22l-.91-10.28c-5.18.82-7.5-.4-6.97-3.65Z" fill="#f4ab13"/><path d="M225.21,659.5c2.26.14,3.43,1.93,3.53,5.38,6.57-.2,12.82-1.2,18.76-3l2.23,1.17c6.18,9.78,34.13,8.95,45.05,26.17,3.89,6.14,8.07,19.05-2.72,15.92-5.34-1.55-36.96-29.83-38.98-27.86,4.33,5.72,24.94,35.12,15.6,40.91-10.52,6.53-30.87-29.66-39.86-31.22-9.53-1.65-35.15,28.07-32.33,6.6,2.44-18.6,24.91-19.16,28.73-34.07Z" fill="#f4ac14"/><path d="M104.83,411.87c-.29,26.35,15.54,40.87,34.55,17.77-13.2,32.13-18.58,71.27-34,103.05-6.11-8.64-7.72-21.88-8.41-32.5-1.92-29.5,2.47-59.59,7.86-88.33Z" fill="#036855"/><path d="M425.83,362.11c-2.07,2.19-2.56,5.08-5,7.13-17.15,14.39-58.54,8.92-77.11-1-5.67-3.03-10.4-8.19-15.97-11.46,4.52.23,11.74-1.76,15.6-1.77,12.32-.03,25.93,3.93,38.49,3.6,7.09-.19,36.83-7.61,40.1-4.8,1.17,1,2.58,6.38,3.89,8.3Z" fill="#08713b"/><path d="M282.06,235.34c9.1,2.67,18.47,2.57,27.85,2.37-9.82,50.21,48.29,29.83,30.13-7.72l20.02-10.06c2,57.95-68.42,84-78,15.41Z" fill="#f9e7aa"/><path d="M410.23,333.68c1.68,1.9,3.4,3.35,4.46,5.92-5.5,1.79-18.95,7.11-23.96,7.11h-67.43c.37-9.45,13.83-5.51,20.64-6.52,4.96-.73,11.43-3.34,15.86-3.83,16.23-1.8,34.14-.82,50.43-2.69Z" fill="#e7910e"/><path d="M371.22,636.99c1.4,2.58,8.24.46,8.92,1.18.48.51.16,12,2.23,14.21-3.97,1.01-12.19,4.37-15.7,7.62-.27.25-4.25,5.75-4.35,6.12-.94,3.45,3.5,2.42,2.21,6.41l-23.4-4.73c-14.56-9.31,14.23-14.92,20.07-14.22l-3.35-15.39c4.54.02,8.83-1.06,13.38-1.19Z" fill="#e68e0f"/><path d="M225.21,659.5c-.56-6.35.14-13.21-.07-19.58l22.36-2.91c-1.9,5.55-.71,21.39,2.23,26.05-6.15,5.6-16.08.92-23.4,5.92,1.13-3.34-.92-7.19-1.12-9.47Z" fill="#e68f0f"/><path d="M356.73,628.69l50.7-26.08c-4.3,11.72-21.8,26.08-33.42,26.08h-17.28Z" fill="#097940"/><path d="M478.22,238.89c-.73,10.91-2.76,23.39-11.14,30.8-5.62-11.27,2.24-20.66-1.12-31.98l12.26,1.17Z" fill="#f6e6ad"/><path d="M285.4,184.38c20.5-9.06,44.93-10.86,62.42-26.64,3.38-3.05,11.86-15.78,12.82-16,3.43-.8,4.1,8.69,3.92,11.21-1.92,26.84-59.9,35.37-79.16,31.42Z" fill="#062220"/><path d="M468.18,186.74c-21.83,5.27-56.8-11.98-54.6-39.08,12.02,13.15,22.98,22.61,38.6,30.63,1.6.82,17.4,5.97,16,8.45Z" fill="#052220"/><path d="M417.65,233.25c10.73-.84,33.93,33.98,23.8,39.46-1.3.7-2.08.86-3.38.01-.93-.6-8.44-15.58-11.81-19.47-2.31-2.66-11.25-8.73-12.11-10.82-1.49-3.63-.92-8.84,3.5-9.18Z" fill="#fade7a"/></svg>