<?xml version="1.0" encoding="UTF-8"?><svg id="Layer_1" xmlns="http://www.w3.org/2000/svg" viewBox="0 0 284.94 121.02"><path d="M26.31,68.56c-.93-1.91-1.79-4.44-2.58-7.61-.5-2.2-.75-4.62-.77-7.26,0-.72.01-1.48.05-2.26.1-3.18.46-6.66,1.08-10.42.62-3.76,1.63-7.08,3.04-9.96,1.22-2.31,2.52-3.97,3.9-4.97,1.3-.94,2.57-1.42,3.8-1.42.7-.04,1.42-.07,2.14-.07,2.09-.01,4.28.13,6.56.41,3.09.38,5.83,1.22,8.22,2.54,2.17,1.3,3.93,2.88,5.27,4.75,1.22,1.83,1.87,3.69,1.96,5.59v.56c.01,1.7-.22,3.28-.68,4.75-.46,1.58-1.17,2.92-2.12,3.99-1.01,1.08-2.29,1.96-3.85,2.65-1.54.73-3.32,1.26-5.35,1.58-1.52.2-2.99.31-4.39.31-.61,0-1.2-.01-1.79-.05-1.78-.03-3.31-.3-4.6-.8l-.06-.03c.13,1.84.4,3.66.82,5.47.36,1.81.81,3.57,1.34,5.27.43,1.19.86,2.2,1.27,3.04.16.33.29.62.39.88.22.45.34.77.36.96.02.2.03.32.03.38,0,.29-.08.62-.23.97-.42.96-1.19,1.93-2.3,2.91-1.09.9-2.29,1.48-3.6,1.72-.51.08-1,.12-1.46.12-.76,0-1.48-.09-2.14-.28-1.04-.31-1.86-.68-2.47-1.13-.29-.19-.58-.47-.85-.82-.28-.35-.6-.94-.98-1.78ZM40.74,35.18c-.39.88-.82,1.75-1.31,2.61-.31.59-.61,1.17-.9,1.76.98.52,1.79.78,2.44.78.12,0,.23-.01.35-.03,1-.06,1.83-.39,2.52-.98.72-.75,1.08-1.46,1.07-2.14,0-.66-.4-1.16-1.18-1.49-.84-.31-1.79-.48-2.84-.51h-.15Z" fill="#f5841f"/><path d="M73.78,26.88c1.29-.26,2.52-.39,3.69-.4,2.77-.01,5.24.69,7.39,2.1,3.04,2.02,5.41,5.73,7.11,11.13.69,2.26,1.05,4.72,1.06,7.38,0,.6-.01,1.23-.05,1.88-.18,3.36-.84,6.62-1.99,9.78s-2.76,5.82-4.84,7.98c-2.08,2.16-4.6,3.43-7.57,3.82-.7.06-1.4.09-2.08.1-3.36.02-6.21-.7-8.56-2.16-2.84-1.73-5-4.13-6.47-7.22-1.47-3.09-2.25-5.65-2.34-7.69-.09-2.04-.13-3.3-.13-3.76-.02-3.16.45-6.26,1.39-9.29,1.08-3.44,2.74-6.4,5-8.86,2.25-2.46,5.05-4.05,8.39-4.77ZM72.7,46.52c-.25.84-.45,2.04-.6,3.61-.04.45-.05.88-.05,1.29,0,1.05.18,2.12.53,3.21s1.24,1.62,2.69,1.61c1.03-.12,1.88-.9,2.54-2.33.52-1.13.78-2.45.77-3.93,0-.39-.02-.79-.06-1.2-.19-1.95-.49-3.52-.9-4.71-.42-1.19-1.16-1.86-2.24-2.01-.55,0-1.05.44-1.5,1.33-.46.88-.85,1.93-1.17,3.14Z" fill="#f5841f"/><path d="M97.95,68.22c-.93-1.91-1.79-4.44-2.58-7.6-.5-2.2-.75-4.63-.77-7.26,0-.72.01-1.47.05-2.26.1-3.18.46-6.66,1.08-10.42.62-3.76,1.63-7.08,3.04-9.96,1.22-2.31,2.52-3.97,3.9-4.97,1.3-.94,2.57-1.42,3.8-1.42.7-.04,1.42-.07,2.14-.07,2.09,0,4.28.13,6.56.41,3.09.38,5.83,1.22,8.22,2.54,2.17,1.3,3.93,2.88,5.27,4.75,1.22,1.83,1.87,3.69,1.96,5.59v.56c.01,1.7-.22,3.28-.68,4.75-.46,1.58-1.17,2.92-2.12,3.99-1.01,1.08-2.3,1.96-3.85,2.65-1.54.73-3.32,1.26-5.35,1.58-1.52.2-2.99.31-4.39.31-.61,0-1.2-.01-1.79-.05-1.78-.03-3.31-.3-4.6-.8l-.06-.03c.13,1.84.4,3.66.82,5.47.36,1.81.81,3.57,1.34,5.27.43,1.19.86,2.2,1.27,3.04.16.33.29.62.39.88.22.45.34.77.36.97.02.2.03.32.03.38,0,.29-.08.62-.23.97-.42.96-1.19,1.93-2.3,2.91-1.09.9-2.29,1.48-3.6,1.72-.51.08-1,.12-1.46.12-.76,0-1.48-.09-2.14-.28-1.04-.31-1.86-.68-2.47-1.13-.29-.19-.58-.47-.85-.82s-.6-.94-.98-1.78ZM112.38,34.84c-.39.88-.82,1.75-1.31,2.61-.31.59-.61,1.17-.9,1.76.98.52,1.79.78,2.44.78.12,0,.23-.01.35-.03,1-.06,1.83-.39,2.52-.98.72-.75,1.08-1.46,1.07-2.14,0-.66-.4-1.16-1.18-1.49-.84-.31-1.79-.48-2.84-.51h-.15Z" fill="#f5841f"/><path d="M141.03,28.11c1.17.01,2.06.36,2.67,1.04.37.35.7.87.99,1.55.29.68.45,1.65.5,2.9.01,2.15-.17,4.68-.55,7.59-.09.78-.18,1.55-.25,2.32-.24,2.13-.36,4.15-.35,6.07,0,1.09.05,2.16.13,3.19.16,1.5.42,2.9.77,4.19.35,1.29.77,2.24,1.26,2.87.41.47.84.7,1.29.7.08,0,.27-.04.57-.11.3-.07.65-.27,1.04-.61.37-.25.65-.57.83-.94.18-.37.28-.91.3-1.61.02-.23.03-.5.03-.79,0-1.45-.14-3.49-.41-6.12-.04-.62-.09-1.28-.16-1.96-.31-2.87-.54-5.78-.72-8.73-.06-1.11-.1-2.16-.1-3.13-.01-2.21.15-4.03.47-5.48.29-.98.68-1.73,1.16-2.25.49-.52,1.03-.88,1.64-1.08.78-.3,1.58-.45,2.4-.45.45,0,.92.04,1.41.14,1.33.17,2.47.79,3.44,1.86.9,1.03,1.52,2.93,1.84,5.7.22,2.13.37,4.52.44,7.18.04,1.04.09,2.04.13,3.02.06.88.12,1.73.16,2.55.13,1.91.19,3.76.2,5.54v1.32c-.12,3.11-.6,5.89-1.45,8.36-.79,2.31-2.05,4.09-3.78,5.35-1.81,1.26-4.06,2.11-6.75,2.55-1.5.26-3.01.4-4.51.4-1.23,0-2.47-.08-3.72-.25-2.68-.36-4.87-1.28-6.58-2.75-1.57-1.52-2.67-3.78-3.31-6.78-.72-3.22-1.15-6.74-1.28-10.57-.02-.72-.04-1.44-.04-2.17-.01-2.85.16-5.56.52-8.12.45-3.32,1.12-6.04,2.01-8.15.85-1.88,1.97-3.06,3.35-3.53,1.42-.51,2.77-.78,4.04-.78h.38Z" fill="#f5841f"/><path d="M186.24,39c.02-.18.03-.35.03-.53,0-.68-.25-1.5-.73-2.46-.48-.95-1.24-1.58-2.28-1.86-.18-.04-.35-.06-.53-.06-.94,0-1.98.62-3.13,1.86-1.34,1.59-2.25,3.33-2.73,5.23-.4,1.7-.6,3.38-.59,5.04,0,.2.02.81.05,1.86.03,1.04.2,2.31.5,3.79.3,1.5.92,2.94,1.87,4.3.94,1.36,2.06,2.42,3.35,3.18.94.56,1.9.84,2.88.84.35,0,.7-.04,1.05-.12.78-.22,1.39-.56,1.84-1.03.45-.47.78-1,.99-1.59.21-.59.35-1.15.4-1.7.04-.41.05-.76.05-1.06,0-.12-.01-.28-.03-.5l-.03-.35-2.13,1.3c-.49.26-1.04.39-1.67.39-.51,0-1.24-.12-2.2-.37-.96-.25-1.91-.96-2.85-2.13-.69-.88-1.04-1.98-1.04-3.31,0-.47.03-.96.11-1.47.53-2.97,2.13-5.17,4.8-6.58,2.67-1.42,6.58-2.49,11.73-3.22,1.05-.14,2.03-.21,2.93-.22,1.99,0,3.72.41,5.18,1.25,1.46.84,2.44,2.09,2.93,3.75.32,1.07.48,2.12.48,3.13,0,.55-.04,1.09-.14,1.64-.17.86-.48,1.53-.93,2.01-.45.48-.97.83-1.56,1.03-.6.21-1.18.33-1.74.37-.27.02-.53.03-.76.03-.22,0-.47-.02-.76-.06l-.44-.03.33,1.08c.16,1.33.25,2.59.25,3.78.01,2.5-.4,4.84-1.23,7.02-.83,2.18-2.23,3.99-4.19,5.43-1.97,1.44-4.16,2.48-6.58,3.14-1.68.46-3.31.69-4.89.7-1.72,0-3.75-.37-6.08-1.13-2.34-.76-4.7-2.33-7.1-4.71-2.39-2.38-4.3-5.16-5.71-8.32-1.41-3.17-2.19-6.45-2.35-9.85-.02-.33-.03-.66-.03-1-.02-3.53.57-7.05,1.77-10.56,1.19-3.5,3.08-6.55,5.65-9.15,2.58-2.6,5.8-4.28,9.66-5.04,1.35-.22,2.67-.33,3.98-.34,1.68,0,3.66.23,5.94.7,2.28.48,4.42,1.41,6.43,2.8,2.01,1.39,3.18,3,3.52,4.83.02.25.03.5.03.73,0,1.21-.39,2.28-1.2,3.21-.81.93-1.93,1.69-3.37,2.29-1.44.59-2.91,1.04-4.39,1.32-1.48.29-2.74.48-3.78.56l-1.58.12Z" fill="#f5841f"/><path d="M212.91,70.9c-1.19-.29-2.43-.93-3.7-1.93-1.27-1-2.26-2.49-2.95-4.48-.52-1.76-.78-3.78-.79-6.06,0-.43.03-1.48.09-3.14s.29-3.85.69-6.57c.49-4.14,1.29-7.85,2.39-11.11,1.11-3.27,2.97-6.09,5.6-8.46,1.56-1.45,3.23-2.32,5.03-2.6.6-.12,1.21-.18,1.82-.18,1.45,0,2.94.3,4.49.92,2.47,1.18,4.56,3.19,6.28,6.03,1.72,2.84,3.09,5.93,4.12,9.25s1.71,6.29,2.08,8.88c.28,1.72.43,3.55.44,5.51,0,.63-.02,1.77-.07,3.43s-.61,3.56-1.67,5.69c-1.06,2.13-2.87,3.51-5.43,4.13-.66.12-1.3.18-1.9.19-1.05,0-2.01-.18-2.87-.54-1.16-.6-2-1.56-2.53-2.89-.43-1.05-.66-2.12-.66-3.22,0-.27,0-.55.03-.82.13-.92.35-1.94.66-3.08.08-.33.16-.67.26-1.03-.82-.21-1.63-.31-2.43-.31-1.21,0-2.4.26-3.57.75.18.8.38,1.58.6,2.34.54,1.66.82,3.22.84,4.68v.06c0,1.43-.66,2.72-2,3.88-.56.47-1.24.79-2.02.95-.23.06-.5.09-.79.09-.59,0-1.25-.11-1.99-.34ZM225.01,52.62c0-1.45-.22-2.92-.64-4.42-.42-1.5-1.14-2.65-2.16-3.45-.61-.43-1.24-.64-1.91-.64-.06,0-.28,0-.67.02-.39.01-.81.29-1.26.84-.39.53-.62,1.25-.69,2.17-.06.61-.08,1.27-.08,1.99,0,.37.01.75.03,1.14v1.08c0,.64.02,1.32.04,2.02,1.11-.36,2.36-.62,3.75-.78.64-.08,1.25-.12,1.82-.13.64,0,1.23.04,1.76.14Z" fill="#f5841f"/><path d="M108.81,85.23c0,1.98-.99,3.03-2.97,3.04-2.95.01-2.32-2.72-4.76-2.71-.65,0-1.55.4-1.54,1.16.01,2.23,9.94.92,9.98,9.49.02,5.15-4.39,7.47-9,7.49-3.06.01-6.88-.98-8.23-4.03-.36-.83-.66-1.65-.66-2.55-.01-2.16,1.71-3.28,3.73-3.29,2.81-.01,2.5,3.52,5.31,3.5.83,0,1.65-.4,1.65-1.34,0-.29,0-.5-.29-.68-.36-.21-1.01-.36-1.44-.46-4.54-1.27-8.72-2.77-8.75-8.24-.02-4.82,3.92-7.79,8.49-7.82,3.89-.02,8.47,1.9,8.49,6.44ZM93.63,88.22c.65.07.39-1.05.39-1.37-.01-2.48,1.2-4.25,3.39-5.34.5-.25,2.95-.99,2.95-.99.07-.11.11-.22.11-.32,0-.18-.22-.4-.4-.39-.11,0-.29,0-.4.04-3.74.67-6.54,3.06-6.52,7.01,0,.4-.14,1.3.47,1.37ZM93.42,89.34c0,.32.22.54.54.54.32,0,.57-.22.57-.54,0-.29-.22-.54-.47-.57-.36,0-.65.18-.65.58Z" fill="#15a54a" stroke="#006838" stroke-miterlimit="10" stroke-width=".25"/><path d="M116.49,79.97c1.48,1.58,3,3.37,4.09,5.24,1.22-1.81,2.57-3.58,4.01-5.2.72-.8,1.72-1.52,2.84-1.52,1.69,0,3.32,1.32,3.33,3.08,0,1.98-3.06,6.64-4.46,8.41l-1.18,1.37c-.18.25-.36.47-.54.72-.18.22-.21.4-.21.69,0,.18,0,.4,0,.61l.11,1.19c.01,2.74-.21,9.04-4.06,9.05-3.82.02-4.27-5.59-4.29-8.37,0-1.08.17-2.16.16-3.24,0-.29-5.76-7.39-5.77-10.19,0-1.76,1.46-3.25,3.22-3.26,1.08,0,2.06.67,2.74,1.43ZM111.92,81.18c0,1.87,4.54,8.9,5.37,8.9.22,0,.39-.15.39-.36,0-.65-4.89-5.81-4.9-8.83,0-.18-.25-.43-.43-.39-.43.11-.43.25-.43.69ZM118.38,91.84c.29,0,.58-.22.57-.54,0-.29-.25-.61-.54-.61-.32,0-.58.25-.57.58,0,.32.22.58.54.57Z" fill="#15a54a" stroke="#006838" stroke-miterlimit="10" stroke-width=".25"/><path d="M153.68,89.66c.02,3.24-.26,6.44-.42,9.69-.03.94-.21,1.76-.78,2.52-.72.9-1.86,1.56-3.02,1.56-1.22,0-2.67-.53-3.39-1.57l-5.15-7.35v1.94c.02,2.56-.17,7.06-3.7,7.07-4.86.02-4.57-7.72-4.59-11.03-.01-2.95-.39-14.11,4.04-14.13.65,0,1.3.21,1.87.53,1.81,1.04,5.32,5.45,6.55,7.28.06-3.02.43-7.92,4.5-7.94,4.25-.02,4.07,8.62,4.09,11.43ZM134.12,93.46c0,.29.25.57.58.57.29,0,.57-.25.57-.54,0-.29-.25-.57-.58-.57-.29,0-.58.22-.57.54ZM136.47,80.17l-.04.04c-2.12.8-2.19,8.47-2.18,10.16,0,.4-.14,1.4.44,1.4.61,0,.43-.94.43-1.3-.01-2.34.08-6.55,1.07-8.72.18-.36.82-.98.82-1.16,0-.29-.25-.43-.54-.43Z" fill="#15a54a" stroke="#006838" stroke-miterlimit="10" stroke-width=".25"/><path d="M178.06,90.95c.03,6.48-3.61,12.4-10.67,12.43-7.02.03-11.15-5.74-11.18-12.33-.03-6.88,3.5-12.83,10.99-12.87,7.38-.04,10.83,6.07,10.86,12.76ZM157.5,90.58c0,.36.26.65.62.65.36,0,.68-.26.68-.62,0-.32-.29-.68-.65-.68-.36,0-.65.29-.65.65ZM163.93,80.29c-3.45,1.06-5.34,4.81-6.01,8.09-.04.11-.04.22-.03.32,0,.25.18.4.43.39.14,0,.29-.04.36-.18.07-.11.07-.32.11-.47.63-3.1,2.27-6.27,5.44-7.37.22-.07.39-.18.39-.43,0-.22-.18-.47-.43-.43-.07,0-.18.04-.25.07ZM164.71,91.16c0,1.8.66,3.49,2.72,3.48,2.09-.01,2.51-1.7,2.5-3.47,0-1.98-.24-4.1-2.72-4.09-2.05,0-2.51,2.5-2.5,4.08Z" fill="#15a54a" stroke="#006838" stroke-miterlimit="10" stroke-width=".25"/><path d="M201.63,89.43c.02,3.24-.26,6.44-.42,9.68-.03.94-.21,1.76-.78,2.52-.72.9-1.86,1.56-3.02,1.56-1.22,0-2.67-.53-3.39-1.57l-5.15-7.36v1.94c.02,2.56-.17,7.06-3.7,7.07-4.86.02-4.57-7.72-4.59-11.03-.01-2.95-.39-14.11,4.04-14.13.65,0,1.3.21,1.87.53,1.81,1.04,5.32,5.45,6.55,7.28.06-3.02.43-7.92,4.5-7.94,4.25-.02,4.07,8.62,4.09,11.43ZM182.07,93.23c0,.29.25.57.58.57.29,0,.57-.25.57-.54,0-.29-.25-.57-.58-.57-.29,0-.58.22-.57.54ZM184.42,79.94l-.04.04c-2.12.8-2.19,8.47-2.18,10.16,0,.4-.14,1.4.44,1.4.61,0,.43-.94.43-1.3-.01-2.34.08-6.55,1.07-8.72.18-.36.82-.98.82-1.16,0-.29-.25-.43-.54-.43Z" fill="#15a54a" stroke="#006838" stroke-miterlimit="10" stroke-width=".25"/><path d="M209.36,79.53c1.48,1.58,3,3.37,4.09,5.24,1.22-1.81,2.57-3.58,4.01-5.2.72-.8,1.72-1.52,2.84-1.53,1.69,0,3.32,1.32,3.33,3.08,0,1.98-3.06,6.64-4.46,8.41l-1.18,1.37c-.18.25-.36.47-.54.72-.18.22-.21.4-.21.69,0,.18,0,.4,0,.61l.11,1.19c.01,2.74-.21,9.04-4.06,9.05-3.82.02-4.27-5.6-4.29-8.37,0-1.08.17-2.16.16-3.24,0-.29-5.76-7.39-5.77-10.19,0-1.76,1.46-3.25,3.22-3.25,1.08,0,2.06.67,2.74,1.43ZM204.8,80.74c0,1.87,4.54,8.9,5.37,8.9.22,0,.39-.15.39-.36,0-.65-4.89-5.81-4.9-8.83,0-.18-.25-.43-.43-.39-.43.11-.43.25-.43.69ZM211.26,91.4c.29,0,.58-.22.57-.54,0-.29-.25-.61-.54-.61-.32,0-.58.25-.57.58,0,.32.22.58.54.57Z" fill="#15a54a" stroke="#006838" stroke-miterlimit="10" stroke-width=".25"/><path d="M232.91,80.25l4.2,4.77,4.44-5.46c.64-.9,1.72-1.45,2.84-1.45,1.58,0,2.74,1.17,3.36,2.54.62,1.4.6,5.68.61,7.41.02,3.89,0,7.96-.56,11.81-.24,1.69-1.53,3.1-3.3,3.11-3.78.02-3.73-4.84-3.82-7.51-.04-.97-.08-1.91-.09-2.88-.93,1.26-1.72,2.53-3.52,2.54-1.08,0-2.13-.46-2.78-1.32h.04l-1.12-1.29c0,.18,0,.36,0,.54l.04,1.08c0,.18,0,.36,0,.54.01,2.81.44,8.38-3.67,8.4-2.02,0-3.61-1.53-3.83-3.51-.26-2.12-.24-4.32-.25-6.44-.02-3.85.07-7.77.27-11.63.1-1.98,1.71-3.43,3.66-3.44,1.8,0,2.42,1,3.47,2.18ZM227.03,93.16c0,.32.25.54.54.54.29,0,.57-.22.57-.54,0-.29-.22-.58-.54-.57-.32,0-.57.25-.57.58ZM227.15,88.23c0,.68-.1,1.55.01,2.23.07.22.22.36.43.36.65,0,.42-1.73.42-2.13,0-1.51-.07-6.87.72-7.96.11-.07.18-.22.18-.36,0-.22-.18-.43-.43-.43-1.51,0-1.33,7.24-1.33,8.28Z" fill="#15a54a" stroke="#006838" stroke-miterlimit="10" stroke-width=".25"/><path d="M267.74,84.47c0,1.98-.99,3.03-2.97,3.04-2.95.01-2.32-2.72-4.76-2.71-.65,0-1.55.4-1.54,1.16.01,2.23,9.94.92,9.98,9.49.03,5.15-4.39,7.47-9,7.49-3.06.01-6.88-.98-8.23-4.03-.36-.83-.66-1.65-.66-2.55-.01-2.16,1.71-3.28,3.73-3.29,2.81-.01,2.5,3.52,5.31,3.5.83,0,1.65-.4,1.65-1.34,0-.29,0-.5-.29-.68-.36-.21-1.01-.36-1.44-.46-4.54-1.27-8.72-2.77-8.75-8.24-.02-4.82,3.92-7.79,8.49-7.82,3.89-.02,8.47,1.9,8.49,6.44ZM252.57,87.46c.65.07.39-1.05.39-1.37-.01-2.48,1.2-4.25,3.39-5.34.5-.25,2.95-.99,2.95-.99.07-.11.11-.22.11-.32,0-.18-.22-.4-.4-.39-.11,0-.29,0-.4.04-3.74.67-6.54,3.06-6.52,7.01,0,.4-.14,1.3.47,1.36ZM252.35,88.58c0,.32.22.54.54.54.32,0,.57-.22.57-.54,0-.29-.22-.54-.47-.57-.36,0-.65.18-.65.58Z" fill="#15a54a" stroke="#006838" stroke-miterlimit="10" stroke-width=".25"/></svg>